%TF.GenerationSoftware,KiCad,Pcbnew,9.0.6*%
%TF.CreationDate,2026-04-10T14:22:49+09:00*%
%TF.ProjectId,KeyboardHook,4b657962-6f61-4726-9448-6f6f6b2e6b69,rev?*%
%TF.SameCoordinates,Original*%
%TF.FileFunction,Copper,L2,Bot*%
%TF.FilePolarity,Positive*%
%FSLAX46Y46*%
G04 Gerber Fmt 4.6, Leading zero omitted, Abs format (unit mm)*
G04 Created by KiCad (PCBNEW 9.0.6) date 2026-04-10 14:22:49*
%MOMM*%
%LPD*%
G01*
G04 APERTURE LIST*
G04 Aperture macros list*
%AMRoundRect*
0 Rectangle with rounded corners*
0 $1 Rounding radius*
0 $2 $3 $4 $5 $6 $7 $8 $9 X,Y pos of 4 corners*
0 Add a 4 corners polygon primitive as box body*
4,1,4,$2,$3,$4,$5,$6,$7,$8,$9,$2,$3,0*
0 Add four circle primitives for the rounded corners*
1,1,$1+$1,$2,$3*
1,1,$1+$1,$4,$5*
1,1,$1+$1,$6,$7*
1,1,$1+$1,$8,$9*
0 Add four rect primitives between the rounded corners*
20,1,$1+$1,$2,$3,$4,$5,0*
20,1,$1+$1,$4,$5,$6,$7,0*
20,1,$1+$1,$6,$7,$8,$9,0*
20,1,$1+$1,$8,$9,$2,$3,0*%
G04 Aperture macros list end*
%ADD10C,0.300000*%
%TA.AperFunction,ComponentPad*%
%ADD11R,1.600000X1.600000*%
%TD*%
%TA.AperFunction,ComponentPad*%
%ADD12O,1.600000X1.600000*%
%TD*%
%TA.AperFunction,ComponentPad*%
%ADD13RoundRect,0.250000X-0.550000X-0.550000X0.550000X-0.550000X0.550000X0.550000X-0.550000X0.550000X0*%
%TD*%
%TA.AperFunction,ComponentPad*%
%ADD14C,1.600000*%
%TD*%
%TA.AperFunction,ComponentPad*%
%ADD15RoundRect,0.250000X0.550000X-0.550000X0.550000X0.550000X-0.550000X0.550000X-0.550000X-0.550000X0*%
%TD*%
%TA.AperFunction,ComponentPad*%
%ADD16RoundRect,0.250000X0.550000X0.550000X-0.550000X0.550000X-0.550000X-0.550000X0.550000X-0.550000X0*%
%TD*%
%TA.AperFunction,ComponentPad*%
%ADD17C,2.000000*%
%TD*%
%TA.AperFunction,ComponentPad*%
%ADD18R,1.700000X1.700000*%
%TD*%
%TA.AperFunction,ComponentPad*%
%ADD19C,1.700000*%
%TD*%
%TA.AperFunction,ViaPad*%
%ADD20C,2.000000*%
%TD*%
%TA.AperFunction,ViaPad*%
%ADD21C,1.600000*%
%TD*%
%TA.AperFunction,Conductor*%
%ADD22C,1.500000*%
%TD*%
%TA.AperFunction,Conductor*%
%ADD23C,0.300000*%
%TD*%
%TA.AperFunction,Conductor*%
%ADD24C,1.000000*%
%TD*%
%TA.AperFunction,Conductor*%
%ADD25C,0.500000*%
%TD*%
G04 APERTURE END LIST*
D10*
G36*
X160054060Y-139985828D02*
G01*
X159871260Y-139985828D01*
X159713657Y-139933294D01*
X159613052Y-139832688D01*
X159559871Y-139726328D01*
X159496917Y-139474507D01*
X159496917Y-139297148D01*
X159559871Y-139045327D01*
X159613052Y-138938967D01*
X159713658Y-138838361D01*
X159871260Y-138785828D01*
X160054060Y-138785828D01*
X160054060Y-139985828D01*
G37*
G36*
X163663584Y-140452495D02*
G01*
X159030250Y-140452495D01*
X159030250Y-139278685D01*
X159196917Y-139278685D01*
X159196917Y-139492971D01*
X159197419Y-139498074D01*
X159197094Y-139500262D01*
X159198713Y-139511212D01*
X159199799Y-139522235D01*
X159200646Y-139524279D01*
X159201396Y-139529351D01*
X159272824Y-139815065D01*
X159273595Y-139817223D01*
X159273672Y-139818304D01*
X159278330Y-139830478D01*
X159282717Y-139842756D01*
X159283361Y-139843626D01*
X159284181Y-139845767D01*
X159355610Y-139988624D01*
X159363537Y-140001217D01*
X159365053Y-140004877D01*
X159368434Y-140008996D01*
X159371275Y-140013510D01*
X159374268Y-140016106D01*
X159383708Y-140027608D01*
X159526565Y-140170466D01*
X159549295Y-140189121D01*
X159554274Y-140191183D01*
X159558346Y-140194715D01*
X159585197Y-140206703D01*
X159799483Y-140278131D01*
X159813995Y-140281430D01*
X159817653Y-140282946D01*
X159822955Y-140283468D01*
X159828157Y-140284651D01*
X159832111Y-140284369D01*
X159846917Y-140285828D01*
X160204060Y-140285828D01*
X160233324Y-140282946D01*
X160287396Y-140260548D01*
X160328780Y-140219164D01*
X160351178Y-140165092D01*
X160354060Y-140135828D01*
X160354060Y-138635828D01*
X160768346Y-138635828D01*
X160768346Y-140135828D01*
X160769087Y-140143353D01*
X160768712Y-140146305D01*
X160769754Y-140150125D01*
X160771228Y-140165092D01*
X160778863Y-140183524D01*
X160784112Y-140202769D01*
X160789966Y-140210328D01*
X160793626Y-140219164D01*
X160807733Y-140233271D01*
X160819947Y-140249043D01*
X160828249Y-140253787D01*
X160835010Y-140260548D01*
X160853440Y-140268182D01*
X160870763Y-140278081D01*
X160880248Y-140279286D01*
X160889082Y-140282946D01*
X160909032Y-140282946D01*
X160928823Y-140285462D01*
X160938048Y-140282946D01*
X160947610Y-140282946D01*
X160966042Y-140275310D01*
X160985287Y-140270062D01*
X160992846Y-140264207D01*
X161001682Y-140260548D01*
X161015789Y-140246440D01*
X161031561Y-140234227D01*
X161040266Y-140221963D01*
X161043066Y-140219164D01*
X161044204Y-140216416D01*
X161048582Y-140210249D01*
X161625489Y-139200663D01*
X161625489Y-140135828D01*
X161628371Y-140165092D01*
X161650769Y-140219164D01*
X161692153Y-140260548D01*
X161746225Y-140282946D01*
X161804753Y-140282946D01*
X161858825Y-140260548D01*
X161900209Y-140219164D01*
X161922607Y-140165092D01*
X161925489Y-140135828D01*
X161925489Y-139492971D01*
X162268346Y-139492971D01*
X162268346Y-139992971D01*
X162271228Y-140022235D01*
X162293626Y-140076307D01*
X162293629Y-140076310D01*
X162312279Y-140099036D01*
X162383707Y-140170465D01*
X162406438Y-140189120D01*
X162411414Y-140191181D01*
X162415489Y-140194715D01*
X162442340Y-140206703D01*
X162656626Y-140278131D01*
X162671138Y-140281430D01*
X162674796Y-140282946D01*
X162680098Y-140283468D01*
X162685300Y-140284651D01*
X162689254Y-140284369D01*
X162704060Y-140285828D01*
X162846917Y-140285828D01*
X162861722Y-140284369D01*
X162865677Y-140284651D01*
X162870878Y-140283468D01*
X162876181Y-140282946D01*
X162879838Y-140281430D01*
X162894351Y-140278131D01*
X163108637Y-140206703D01*
X163135488Y-140194715D01*
X163139559Y-140191183D01*
X163144539Y-140189121D01*
X163167269Y-140170466D01*
X163310126Y-140027608D01*
X163319564Y-140016106D01*
X163322559Y-140013510D01*
X163325399Y-140008996D01*
X163328781Y-140004877D01*
X163330296Y-140001217D01*
X163338224Y-139988624D01*
X163409653Y-139845768D01*
X163410472Y-139843625D01*
X163411117Y-139842756D01*
X163415501Y-139830484D01*
X163420162Y-139818304D01*
X163420238Y-139817223D01*
X163421010Y-139815065D01*
X163492438Y-139529351D01*
X163493187Y-139524279D01*
X163494035Y-139522235D01*
X163495120Y-139511212D01*
X163496740Y-139500262D01*
X163496414Y-139498074D01*
X163496917Y-139492971D01*
X163496917Y-139278685D01*
X163496414Y-139273581D01*
X163496740Y-139271394D01*
X163495120Y-139260443D01*
X163494035Y-139249421D01*
X163493187Y-139247376D01*
X163492438Y-139242305D01*
X163421010Y-138956591D01*
X163420238Y-138954432D01*
X163420162Y-138953352D01*
X163415501Y-138941171D01*
X163411117Y-138928900D01*
X163410472Y-138928030D01*
X163409653Y-138925888D01*
X163338224Y-138783032D01*
X163330297Y-138770440D01*
X163328781Y-138766778D01*
X163325397Y-138762655D01*
X163322559Y-138758146D01*
X163319566Y-138755550D01*
X163310126Y-138744048D01*
X163167269Y-138601191D01*
X163144538Y-138582536D01*
X163139558Y-138580473D01*
X163135488Y-138576943D01*
X163108637Y-138564954D01*
X162894351Y-138493526D01*
X162879843Y-138490227D01*
X162876181Y-138488710D01*
X162870872Y-138488187D01*
X162865678Y-138487006D01*
X162861728Y-138487286D01*
X162846917Y-138485828D01*
X162632632Y-138485828D01*
X162603368Y-138488710D01*
X162598390Y-138490771D01*
X162593013Y-138491154D01*
X162565550Y-138501664D01*
X162422692Y-138573093D01*
X162397806Y-138588758D01*
X162359460Y-138632973D01*
X162340952Y-138688495D01*
X162345100Y-138746876D01*
X162371275Y-138799225D01*
X162415490Y-138837571D01*
X162471012Y-138856079D01*
X162529393Y-138851931D01*
X162556856Y-138841421D01*
X162668042Y-138785828D01*
X162822577Y-138785828D01*
X162980175Y-138838361D01*
X163080782Y-138938968D01*
X163133961Y-139045327D01*
X163196917Y-139297148D01*
X163196917Y-139474507D01*
X163133961Y-139726328D01*
X163080782Y-139832688D01*
X162980176Y-139933294D01*
X162822574Y-139985828D01*
X162728403Y-139985828D01*
X162570800Y-139933294D01*
X162568346Y-139930839D01*
X162568346Y-139642971D01*
X162704060Y-139642971D01*
X162733324Y-139640089D01*
X162787396Y-139617691D01*
X162828780Y-139576307D01*
X162851178Y-139522235D01*
X162851178Y-139463707D01*
X162828780Y-139409635D01*
X162787396Y-139368251D01*
X162733324Y-139345853D01*
X162704060Y-139342971D01*
X162418346Y-139342971D01*
X162389082Y-139345853D01*
X162335010Y-139368251D01*
X162293626Y-139409635D01*
X162271228Y-139463707D01*
X162268346Y-139492971D01*
X161925489Y-139492971D01*
X161925489Y-138635828D01*
X161924747Y-138628301D01*
X161925123Y-138625350D01*
X161924080Y-138621528D01*
X161922607Y-138606564D01*
X161914971Y-138588131D01*
X161909723Y-138568887D01*
X161903868Y-138561327D01*
X161900209Y-138552492D01*
X161886101Y-138538384D01*
X161873888Y-138522613D01*
X161865585Y-138517868D01*
X161858825Y-138511108D01*
X161840394Y-138503473D01*
X161823072Y-138493575D01*
X161813586Y-138492369D01*
X161804753Y-138488710D01*
X161784803Y-138488710D01*
X161765012Y-138486194D01*
X161755787Y-138488710D01*
X161746225Y-138488710D01*
X161727796Y-138496343D01*
X161708548Y-138501593D01*
X161700986Y-138507449D01*
X161692153Y-138511108D01*
X161678047Y-138525213D01*
X161662274Y-138537429D01*
X161653568Y-138549692D01*
X161650769Y-138552492D01*
X161649630Y-138555239D01*
X161645253Y-138561407D01*
X161068346Y-139570994D01*
X161068346Y-138635828D01*
X161065464Y-138606564D01*
X161043066Y-138552492D01*
X161001682Y-138511108D01*
X160947610Y-138488710D01*
X160889082Y-138488710D01*
X160835010Y-138511108D01*
X160793626Y-138552492D01*
X160771228Y-138606564D01*
X160768346Y-138635828D01*
X160354060Y-138635828D01*
X160351178Y-138606564D01*
X160328780Y-138552492D01*
X160287396Y-138511108D01*
X160233324Y-138488710D01*
X160204060Y-138485828D01*
X159846917Y-138485828D01*
X159832105Y-138487286D01*
X159828156Y-138487006D01*
X159822961Y-138488187D01*
X159817653Y-138488710D01*
X159813991Y-138490226D01*
X159799482Y-138493526D01*
X159585197Y-138564955D01*
X159558346Y-138576943D01*
X159554276Y-138580472D01*
X159549295Y-138582536D01*
X159526565Y-138601191D01*
X159383708Y-138744048D01*
X159374268Y-138755549D01*
X159371275Y-138758146D01*
X159368434Y-138762659D01*
X159365053Y-138766779D01*
X159363537Y-138770438D01*
X159355610Y-138783032D01*
X159284181Y-138925889D01*
X159283361Y-138928029D01*
X159282717Y-138928900D01*
X159278330Y-138941177D01*
X159273672Y-138953352D01*
X159273595Y-138954432D01*
X159272824Y-138956591D01*
X159201396Y-139242305D01*
X159200646Y-139247376D01*
X159199799Y-139249421D01*
X159198713Y-139260443D01*
X159197094Y-139271394D01*
X159197419Y-139273581D01*
X159196917Y-139278685D01*
X159030250Y-139278685D01*
X159030250Y-138319161D01*
X163663584Y-138319161D01*
X163663584Y-140452495D01*
G37*
D11*
%TO.P,A1,1,D1/TX*%
%TO.N,unconnected-(A1-D1{slash}TX-Pad1)*%
X160020000Y-119380000D03*
D12*
%TO.P,A1,2,D0/RX*%
%TO.N,unconnected-(A1-D0{slash}RX-Pad2)*%
X157480000Y-119380000D03*
%TO.P,A1,3,~{RESET}*%
%TO.N,unconnected-(A1-~{RESET}-Pad3)*%
X154940001Y-119380000D03*
%TO.P,A1,4,GND*%
%TO.N,GND*%
X152400000Y-119380000D03*
%TO.P,A1,5,D2*%
%TO.N,/switch listener/N_INT*%
X149860000Y-119380000D03*
%TO.P,A1,6,D3*%
%TO.N,unconnected-(A1-D3-Pad6)*%
X147320000Y-119380000D03*
%TO.P,A1,7,D4*%
%TO.N,/switch listener/READ*%
X144780000Y-119380000D03*
%TO.P,A1,8,D5*%
%TO.N,unconnected-(A1-D5-Pad8)*%
X142239999Y-119380000D03*
%TO.P,A1,9,D6*%
%TO.N,unconnected-(A1-D6-Pad9)*%
X139700000Y-119380000D03*
%TO.P,A1,10,D7*%
%TO.N,unconnected-(A1-D7-Pad10)*%
X137160000Y-119380000D03*
%TO.P,A1,11,D8*%
%TO.N,/switch pusher/SHIFT*%
X134620000Y-119380000D03*
%TO.P,A1,12,D9*%
%TO.N,/switch pusher/LOAD*%
X132080001Y-119380000D03*
%TO.P,A1,13,D10*%
%TO.N,unconnected-(A1-D10-Pad13)*%
X129540000Y-119380000D03*
%TO.P,A1,14,D11*%
%TO.N,/switch pusher/MOSI*%
X127000000Y-119380000D03*
%TO.P,A1,15,D12*%
%TO.N,/switch listener/MISO*%
X124460000Y-119380000D03*
%TO.P,A1,16,D13*%
%TO.N,/switch listener/CLK*%
X124460000Y-134620000D03*
%TO.P,A1,17,3V3*%
%TO.N,unconnected-(A1-3V3-Pad17)*%
X127000000Y-134620000D03*
%TO.P,A1,18,AREF*%
%TO.N,unconnected-(A1-AREF-Pad18)*%
X129540000Y-134620000D03*
%TO.P,A1,19,A0*%
%TO.N,unconnected-(A1-A0-Pad19)*%
X132080000Y-134620000D03*
%TO.P,A1,20,A1*%
%TO.N,unconnected-(A1-A1-Pad20)*%
X134620000Y-134620000D03*
%TO.P,A1,21,A2*%
%TO.N,unconnected-(A1-A2-Pad21)*%
X137160000Y-134620000D03*
%TO.P,A1,22,A3*%
%TO.N,unconnected-(A1-A3-Pad22)*%
X139700000Y-134620000D03*
%TO.P,A1,23,A4*%
%TO.N,unconnected-(A1-A4-Pad23)*%
X142240000Y-134620000D03*
%TO.P,A1,24,A5*%
%TO.N,unconnected-(A1-A5-Pad24)*%
X144780000Y-134620000D03*
%TO.P,A1,25,A6*%
%TO.N,unconnected-(A1-A6-Pad25)*%
X147320000Y-134620000D03*
%TO.P,A1,26,A7*%
%TO.N,unconnected-(A1-A7-Pad26)*%
X149860000Y-134620000D03*
%TO.P,A1,27,+5V*%
%TO.N,+5V*%
X152400000Y-134620000D03*
%TO.P,A1,28,~{RESET}*%
%TO.N,unconnected-(A1-~{RESET}-Pad28)*%
X154940000Y-134620000D03*
%TO.P,A1,29,GND*%
%TO.N,GND*%
X157480000Y-134620000D03*
%TO.P,A1,30,VIN*%
%TO.N,unconnected-(A1-VIN-Pad30)*%
X160020000Y-134620000D03*
%TD*%
D13*
%TO.P,D3,1,K*%
%TO.N,+5V*%
X167005000Y-107950000D03*
D14*
%TO.P,D3,2,A*%
%TO.N,+5V_DEV*%
X177165000Y-107950000D03*
%TD*%
D13*
%TO.P,D2,1,K*%
%TO.N,Net-(D2-K)*%
X121920000Y-78740000D03*
D14*
%TO.P,D2,2,A*%
%TO.N,/ROW1*%
X132080000Y-78740000D03*
%TD*%
D13*
%TO.P,D1,1,K*%
%TO.N,Net-(D1-K)*%
X121920000Y-91440000D03*
D14*
%TO.P,D1,2,A*%
%TO.N,Net-(D1-A)*%
X132080000Y-91440000D03*
%TD*%
D15*
%TO.P,U1,1*%
%TO.N,/ROW7*%
X172720000Y-88900000D03*
D14*
%TO.P,U1,2*%
%TO.N,Net-(D1-A)*%
X175260000Y-88900000D03*
%TO.P,U1,3*%
X177800000Y-88900000D03*
%TO.P,U1,4*%
%TO.N,/ROW6*%
X180340000Y-88900000D03*
%TO.P,U1,5*%
%TO.N,/switch pusher/SEL_ROW6*%
X182880000Y-88900000D03*
%TO.P,U1,6*%
%TO.N,/switch pusher/SEL_ROW4*%
X185420000Y-88900000D03*
%TO.P,U1,7,V_{SS}*%
%TO.N,GND*%
X187960000Y-88900000D03*
%TO.P,U1,8*%
%TO.N,/ROW4*%
X187960000Y-81280000D03*
%TO.P,U1,9*%
%TO.N,Net-(D1-A)*%
X185420000Y-81280000D03*
%TO.P,U1,10*%
X182880000Y-81280000D03*
%TO.P,U1,11*%
%TO.N,/ROW5*%
X180340000Y-81280000D03*
%TO.P,U1,12*%
%TO.N,/switch pusher/SEL_ROW5*%
X177800000Y-81280000D03*
%TO.P,U1,13*%
%TO.N,/switch pusher/SEL_ROW7*%
X175260000Y-81280000D03*
%TO.P,U1,14,V_{DD}*%
%TO.N,+5V*%
X172720000Y-81280000D03*
%TD*%
%TO.P,R8,1*%
%TO.N,/ROW7*%
X140970000Y-104775000D03*
%TO.P,R8,2*%
%TO.N,+5V*%
X130810000Y-104775000D03*
%TD*%
%TO.P,R7,1*%
%TO.N,/ROW6*%
X140970000Y-101600000D03*
%TO.P,R7,2*%
%TO.N,+5V*%
X130810000Y-101600000D03*
%TD*%
%TO.P,R6,2*%
%TO.N,+5V*%
X129540000Y-97790000D03*
%TO.P,R6,1*%
%TO.N,/ROW5*%
X139700000Y-97790000D03*
%TD*%
%TO.P,R5,1*%
%TO.N,/ROW4*%
X139700000Y-94615000D03*
%TO.P,R5,2*%
%TO.N,+5V*%
X129540000Y-94615000D03*
%TD*%
%TO.P,R4,1*%
%TO.N,/ROW3*%
X139700000Y-75565000D03*
%TO.P,R4,2*%
%TO.N,+5V*%
X129540000Y-75565000D03*
%TD*%
%TO.P,R3,1*%
%TO.N,/ROW2*%
X139700000Y-81915000D03*
%TO.P,R3,2*%
%TO.N,+5V*%
X129540000Y-81915000D03*
%TD*%
%TO.P,R2,1*%
%TO.N,/ROW1*%
X139700000Y-85090000D03*
%TO.P,R2,2*%
%TO.N,+5V*%
X129540000Y-85090000D03*
%TD*%
%TO.P,R1,1*%
%TO.N,/ROW0*%
X139700000Y-88265000D03*
%TO.P,R1,2*%
%TO.N,+5V*%
X129540000Y-88265000D03*
%TD*%
D16*
%TO.P,C9,1*%
%TO.N,+5V*%
X162560000Y-112395000D03*
D14*
%TO.P,C9,2*%
%TO.N,GND*%
X160060000Y-112395000D03*
%TD*%
D17*
%TO.P,REF\u002A\u002A,1*%
%TO.N,N/C*%
X187960000Y-132080000D03*
%TO.P,REF\u002A\u002A,2*%
X190500000Y-132080000D03*
%TO.P,REF\u002A\u002A,3*%
X193040000Y-132080000D03*
%TO.P,REF\u002A\u002A,4*%
X195580000Y-132080000D03*
%TO.P,REF\u002A\u002A,5*%
X187960000Y-134620000D03*
%TO.P,REF\u002A\u002A,6*%
X190500000Y-134620000D03*
%TO.P,REF\u002A\u002A,7*%
X193040000Y-134620000D03*
%TO.P,REF\u002A\u002A,8*%
X195580000Y-134620000D03*
%TO.P,REF\u002A\u002A,9*%
X187960000Y-137160000D03*
%TO.P,REF\u002A\u002A,10*%
X190500000Y-137160000D03*
%TO.P,REF\u002A\u002A,11*%
X193040000Y-137160000D03*
%TO.P,REF\u002A\u002A,13*%
X187960000Y-139700000D03*
%TO.P,REF\u002A\u002A,14*%
X190500000Y-139700000D03*
%TO.P,REF\u002A\u002A,15*%
X193040000Y-139700000D03*
%TD*%
%TO.P,REF\u002A\u002A,9*%
%TO.N,N/C*%
X187960000Y-116840000D03*
%TO.P,REF\u002A\u002A,10*%
X190500000Y-116840000D03*
%TO.P,REF\u002A\u002A,11*%
X193040000Y-116840000D03*
%TO.P,REF\u002A\u002A,12*%
X195580000Y-116840000D03*
%TO.P,REF\u002A\u002A,13*%
X187960000Y-119380000D03*
%TO.P,REF\u002A\u002A,14*%
X190500000Y-119380000D03*
%TO.P,REF\u002A\u002A,15*%
X193040000Y-119380000D03*
%TO.P,REF\u002A\u002A,16*%
X195580000Y-119380000D03*
%TD*%
%TO.P,REF\u002A\u002A,5*%
%TO.N,N/C*%
X177800000Y-114300000D03*
%TO.P,REF\u002A\u002A,6*%
X180340000Y-114300000D03*
%TO.P,REF\u002A\u002A,7*%
X182880000Y-114300000D03*
%TO.P,REF\u002A\u002A,8*%
X185420000Y-114300000D03*
%TO.P,REF\u002A\u002A,9*%
X177800000Y-116840000D03*
%TO.P,REF\u002A\u002A,10*%
X180340000Y-116840000D03*
%TO.P,REF\u002A\u002A,11*%
X182880000Y-116840000D03*
%TO.P,REF\u002A\u002A,12*%
X185420000Y-116840000D03*
%TO.P,REF\u002A\u002A,13*%
X177800000Y-119380000D03*
%TO.P,REF\u002A\u002A,14*%
X180340000Y-119380000D03*
%TO.P,REF\u002A\u002A,15*%
X182880000Y-119380000D03*
%TO.P,REF\u002A\u002A,16*%
X185420000Y-119380000D03*
%TD*%
%TO.P,REF\u002A\u002A,5*%
%TO.N,N/C*%
X167640000Y-114300000D03*
%TO.P,REF\u002A\u002A,6*%
X170180000Y-114300000D03*
%TO.P,REF\u002A\u002A,7*%
X172720000Y-114300000D03*
%TO.P,REF\u002A\u002A,8*%
X175260000Y-114300000D03*
%TO.P,REF\u002A\u002A,9*%
X167640000Y-116840000D03*
%TO.P,REF\u002A\u002A,10*%
X170180000Y-116840000D03*
%TO.P,REF\u002A\u002A,11*%
X172720000Y-116840000D03*
%TO.P,REF\u002A\u002A,12*%
X175260000Y-116840000D03*
%TO.P,REF\u002A\u002A,13*%
X167640000Y-119380000D03*
%TO.P,REF\u002A\u002A,14*%
X170180000Y-119380000D03*
%TO.P,REF\u002A\u002A,15*%
X172720000Y-119380000D03*
%TO.P,REF\u002A\u002A,16*%
X175260000Y-119380000D03*
%TD*%
%TO.P,REF\u002A\u002A,1*%
%TO.N,N/C*%
X187960000Y-121920000D03*
%TO.P,REF\u002A\u002A,2*%
X190500000Y-121920000D03*
%TO.P,REF\u002A\u002A,3*%
X193040000Y-121920000D03*
%TO.P,REF\u002A\u002A,4*%
X195580000Y-121920000D03*
%TO.P,REF\u002A\u002A,5*%
X187960000Y-124460000D03*
%TO.P,REF\u002A\u002A,6*%
X190500000Y-124460000D03*
%TO.P,REF\u002A\u002A,7*%
X193040000Y-124460000D03*
%TO.P,REF\u002A\u002A,8*%
X195580000Y-124460000D03*
%TO.P,REF\u002A\u002A,9*%
X187960000Y-127000000D03*
%TO.P,REF\u002A\u002A,10*%
X190500000Y-127000000D03*
%TO.P,REF\u002A\u002A,11*%
X193040000Y-127000000D03*
%TO.P,REF\u002A\u002A,12*%
X195580000Y-127000000D03*
%TO.P,REF\u002A\u002A,13*%
X187960000Y-129540000D03*
%TO.P,REF\u002A\u002A,14*%
X190500000Y-129540000D03*
%TO.P,REF\u002A\u002A,15*%
X193040000Y-129540000D03*
%TO.P,REF\u002A\u002A,16*%
X195580000Y-129540000D03*
%TD*%
%TO.P,REF\u002A\u002A,1*%
%TO.N,N/C*%
X167640000Y-121920000D03*
%TO.P,REF\u002A\u002A,2*%
X170180000Y-121920000D03*
%TO.P,REF\u002A\u002A,3*%
X172720000Y-121920000D03*
%TO.P,REF\u002A\u002A,4*%
X175260000Y-121920000D03*
%TO.P,REF\u002A\u002A,5*%
X167640000Y-124460000D03*
%TO.P,REF\u002A\u002A,6*%
X170180000Y-124460000D03*
%TO.P,REF\u002A\u002A,7*%
X172720000Y-124460000D03*
%TO.P,REF\u002A\u002A,8*%
X175260000Y-124460000D03*
%TO.P,REF\u002A\u002A,9*%
X167640000Y-127000000D03*
%TO.P,REF\u002A\u002A,10*%
X170180000Y-127000000D03*
%TO.P,REF\u002A\u002A,11*%
X172720000Y-127000000D03*
%TO.P,REF\u002A\u002A,12*%
X175260000Y-127000000D03*
%TO.P,REF\u002A\u002A,13*%
X167640000Y-129540000D03*
%TO.P,REF\u002A\u002A,14*%
X170180000Y-129540000D03*
%TO.P,REF\u002A\u002A,15*%
X172720000Y-129540000D03*
%TO.P,REF\u002A\u002A,16*%
X175260000Y-129540000D03*
%TD*%
%TO.P,REF\u002A\u002A,1*%
%TO.N,N/C*%
X177800000Y-121920000D03*
%TO.P,REF\u002A\u002A,2*%
X180340000Y-121920000D03*
%TO.P,REF\u002A\u002A,3*%
X182880000Y-121920000D03*
%TO.P,REF\u002A\u002A,4*%
X185420000Y-121920000D03*
%TO.P,REF\u002A\u002A,5*%
X177800000Y-124460000D03*
%TO.P,REF\u002A\u002A,6*%
X180340000Y-124460000D03*
%TO.P,REF\u002A\u002A,7*%
X182880000Y-124460000D03*
%TO.P,REF\u002A\u002A,8*%
X185420000Y-124460000D03*
%TO.P,REF\u002A\u002A,9*%
X177800000Y-127000000D03*
%TO.P,REF\u002A\u002A,10*%
X180340000Y-127000000D03*
%TO.P,REF\u002A\u002A,11*%
X182880000Y-127000000D03*
%TO.P,REF\u002A\u002A,12*%
X185420000Y-127000000D03*
%TO.P,REF\u002A\u002A,13*%
X177800000Y-129540000D03*
%TO.P,REF\u002A\u002A,14*%
X180340000Y-129540000D03*
%TO.P,REF\u002A\u002A,15*%
X182880000Y-129540000D03*
%TO.P,REF\u002A\u002A,16*%
X185420000Y-129540000D03*
%TD*%
%TO.P,REF\u002A\u002A,1*%
%TO.N,N/C*%
X177800000Y-132080000D03*
%TO.P,REF\u002A\u002A,2*%
X180340000Y-132080000D03*
%TO.P,REF\u002A\u002A,3*%
X182880000Y-132080000D03*
%TO.P,REF\u002A\u002A,4*%
X185420000Y-132080000D03*
%TO.P,REF\u002A\u002A,5*%
X177800000Y-134620000D03*
%TO.P,REF\u002A\u002A,6*%
X180340000Y-134620000D03*
%TO.P,REF\u002A\u002A,7*%
X182880000Y-134620000D03*
%TO.P,REF\u002A\u002A,8*%
X185420000Y-134620000D03*
%TO.P,REF\u002A\u002A,9*%
X177800000Y-137160000D03*
%TO.P,REF\u002A\u002A,10*%
X180340000Y-137160000D03*
%TO.P,REF\u002A\u002A,11*%
X182880000Y-137160000D03*
%TO.P,REF\u002A\u002A,12*%
X185420000Y-137160000D03*
%TO.P,REF\u002A\u002A,13*%
X177800000Y-139700000D03*
%TO.P,REF\u002A\u002A,14*%
X180340000Y-139700000D03*
%TO.P,REF\u002A\u002A,15*%
X182880000Y-139700000D03*
%TO.P,REF\u002A\u002A,16*%
X185420000Y-139700000D03*
%TD*%
%TO.P,REF\u002A\u002A,1*%
%TO.N,N/C*%
X167640000Y-132080000D03*
%TO.P,REF\u002A\u002A,2*%
X170180000Y-132080000D03*
%TO.P,REF\u002A\u002A,3*%
X172720000Y-132080000D03*
%TO.P,REF\u002A\u002A,4*%
X175260000Y-132080000D03*
%TO.P,REF\u002A\u002A,5*%
X167640000Y-134620000D03*
%TO.P,REF\u002A\u002A,6*%
X170180000Y-134620000D03*
%TO.P,REF\u002A\u002A,7*%
X172720000Y-134620000D03*
%TO.P,REF\u002A\u002A,8*%
X175260000Y-134620000D03*
%TO.P,REF\u002A\u002A,9*%
X167640000Y-137160000D03*
%TO.P,REF\u002A\u002A,10*%
X170180000Y-137160000D03*
%TO.P,REF\u002A\u002A,11*%
X172720000Y-137160000D03*
%TO.P,REF\u002A\u002A,12*%
X175260000Y-137160000D03*
%TO.P,REF\u002A\u002A,13*%
X167640000Y-139700000D03*
%TO.P,REF\u002A\u002A,14*%
X170180000Y-139700000D03*
%TO.P,REF\u002A\u002A,15*%
X172720000Y-139700000D03*
%TO.P,REF\u002A\u002A,16*%
X175260000Y-139700000D03*
%TD*%
D15*
%TO.P,U5,1*%
%TO.N,/COL3*%
X109220000Y-88900000D03*
D14*
%TO.P,U5,2*%
%TO.N,Net-(D1-K)*%
X111760000Y-88900000D03*
%TO.P,U5,3*%
X114299999Y-88900000D03*
%TO.P,U5,4*%
%TO.N,/COL2*%
X116840000Y-88900000D03*
%TO.P,U5,5*%
%TO.N,/switch pusher/SEL_COL2*%
X119380000Y-88900000D03*
%TO.P,U5,6*%
%TO.N,/switch pusher/SHIFT*%
X121920000Y-88900000D03*
%TO.P,U5,7,V_{SS}*%
%TO.N,GND*%
X124460000Y-88900000D03*
%TO.P,U5,8*%
%TO.N,/COL0*%
X124460000Y-81280000D03*
%TO.P,U5,9*%
%TO.N,Net-(D2-K)*%
X121920000Y-81280000D03*
%TO.P,U5,10*%
%TO.N,Net-(D1-K)*%
X119380000Y-81280000D03*
%TO.P,U5,11*%
%TO.N,/COL1*%
X116840000Y-81280000D03*
%TO.P,U5,12*%
%TO.N,/switch pusher/SEL_COL1*%
X114300000Y-81280000D03*
%TO.P,U5,13*%
%TO.N,/switch pusher/SEL_COL3*%
X111760000Y-81280000D03*
%TO.P,U5,14,V_{DD}*%
%TO.N,+5V*%
X109220000Y-81280000D03*
%TD*%
D15*
%TO.P,U8,1,~{PL}*%
%TO.N,/switch listener/READ*%
X147320001Y-101600000D03*
D14*
%TO.P,U8,2,CP*%
%TO.N,/switch listener/CLK*%
X149860001Y-101600000D03*
%TO.P,U8,3,D4*%
%TO.N,/ROW4*%
X152400000Y-101600000D03*
%TO.P,U8,4,D5*%
%TO.N,/ROW5*%
X154940001Y-101600000D03*
%TO.P,U8,5,D6*%
%TO.N,/ROW6*%
X157480001Y-101600000D03*
%TO.P,U8,6,D7*%
%TO.N,/ROW7*%
X160020001Y-101600000D03*
%TO.P,U8,7,~{Q7}*%
%TO.N,unconnected-(U8-~{Q7}-Pad7)*%
X162560001Y-101600000D03*
%TO.P,U8,8,GND*%
%TO.N,GND*%
X165100002Y-101600000D03*
%TO.P,U8,9,Q7*%
%TO.N,Net-(U8-Q7)*%
X165100001Y-93980000D03*
%TO.P,U8,10,DS*%
%TO.N,GND*%
X162560001Y-93980000D03*
%TO.P,U8,11,D0*%
%TO.N,/ROW0*%
X160020001Y-93980000D03*
%TO.P,U8,12,D1*%
%TO.N,/ROW1*%
X157480001Y-93980000D03*
%TO.P,U8,13,D2*%
%TO.N,/ROW2*%
X154940001Y-93980000D03*
%TO.P,U8,14,D3*%
%TO.N,/ROW3*%
X152400001Y-93980000D03*
%TO.P,U8,15,~{CE}*%
%TO.N,GND*%
X149860001Y-93980000D03*
%TO.P,U8,16,VCC*%
%TO.N,+5V*%
X147320001Y-93980000D03*
%TD*%
D18*
%TO.P,J1,1,Pin_1*%
%TO.N,+5V_DEV*%
X165100000Y-71120000D03*
D19*
%TO.P,J1,2,Pin_2*%
%TO.N,unconnected-(J1-Pin_2-Pad2)*%
X165100000Y-68580000D03*
%TO.P,J1,3,Pin_3*%
%TO.N,unconnected-(J1-Pin_3-Pad3)*%
X162560000Y-71120000D03*
%TO.P,J1,4,Pin_4*%
%TO.N,unconnected-(J1-Pin_4-Pad4)*%
X162560000Y-68580000D03*
%TO.P,J1,5,Pin_5*%
%TO.N,GND*%
X160020001Y-71120000D03*
%TO.P,J1,6,Pin_6*%
%TO.N,unconnected-(J1-Pin_6-Pad6)*%
X160020000Y-68580000D03*
%TO.P,J1,7,Pin_7*%
%TO.N,unconnected-(J1-Pin_7-Pad7)*%
X157480000Y-71120000D03*
%TO.P,J1,8,Pin_8*%
%TO.N,/ROW0*%
X157480000Y-68580000D03*
%TO.P,J1,9,Pin_9*%
%TO.N,/ROW1*%
X154940000Y-71120000D03*
%TO.P,J1,10,Pin_10*%
%TO.N,/ROW2*%
X154940000Y-68580000D03*
%TO.P,J1,11,Pin_11*%
%TO.N,/ROW3*%
X152400000Y-71120000D03*
%TO.P,J1,12,Pin_12*%
%TO.N,/ROW4*%
X152400000Y-68580000D03*
%TO.P,J1,13,Pin_13*%
%TO.N,/ROW5*%
X149860000Y-71120000D03*
%TO.P,J1,14,Pin_14*%
%TO.N,/ROW6*%
X149860000Y-68580000D03*
%TO.P,J1,15,Pin_15*%
%TO.N,/ROW7*%
X147319999Y-71120000D03*
%TO.P,J1,16,Pin_16*%
%TO.N,/COL0*%
X147320000Y-68580000D03*
%TO.P,J1,17,Pin_17*%
%TO.N,/COL1*%
X144780000Y-71120000D03*
%TO.P,J1,18,Pin_18*%
%TO.N,/COL2*%
X144780000Y-68580000D03*
%TO.P,J1,19,Pin_19*%
%TO.N,/COL3*%
X142240000Y-71120000D03*
%TO.P,J1,20,Pin_20*%
%TO.N,/COL4*%
X142240000Y-68580000D03*
%TO.P,J1,21,Pin_21*%
%TO.N,/COL5*%
X139700000Y-71120000D03*
%TO.P,J1,22,Pin_22*%
%TO.N,/COL6*%
X139700000Y-68580000D03*
%TO.P,J1,23,Pin_23*%
%TO.N,/COL7*%
X137160001Y-71120000D03*
%TO.P,J1,24,Pin_24*%
%TO.N,unconnected-(J1-Pin_24-Pad24)*%
X137160000Y-68580000D03*
%TO.P,J1,25,Pin_25*%
%TO.N,unconnected-(J1-Pin_25-Pad25)*%
X134620000Y-71120000D03*
%TO.P,J1,26,Pin_26*%
%TO.N,unconnected-(J1-Pin_26-Pad26)*%
X134620000Y-68580000D03*
%TO.P,J1,27,Pin_27*%
%TO.N,unconnected-(J1-Pin_27-Pad27)*%
X132080000Y-71120000D03*
%TO.P,J1,28,Pin_28*%
%TO.N,unconnected-(J1-Pin_28-Pad28)*%
X132080000Y-68580000D03*
%TD*%
D15*
%TO.P,U2,1*%
%TO.N,/COL4*%
X109220000Y-101600000D03*
D14*
%TO.P,U2,2*%
%TO.N,Net-(D1-K)*%
X111760000Y-101600000D03*
%TO.P,U2,3*%
X114299999Y-101600000D03*
%TO.P,U2,4*%
%TO.N,/COL5*%
X116840000Y-101600000D03*
%TO.P,U2,5*%
%TO.N,/switch pusher/SEL_COL5*%
X119380000Y-101600000D03*
%TO.P,U2,6*%
%TO.N,/switch pusher/SEL_COL7*%
X121920000Y-101600000D03*
%TO.P,U2,7,V_{SS}*%
%TO.N,GND*%
X124460000Y-101600000D03*
%TO.P,U2,8*%
%TO.N,/COL7*%
X124460000Y-93980000D03*
%TO.P,U2,9*%
%TO.N,Net-(D1-K)*%
X121920000Y-93980000D03*
%TO.P,U2,10*%
X119380000Y-93980000D03*
%TO.P,U2,11*%
%TO.N,/COL6*%
X116840000Y-93980000D03*
%TO.P,U2,12*%
%TO.N,/switch pusher/SEL_COL6*%
X114300000Y-93980000D03*
%TO.P,U2,13*%
%TO.N,/switch pusher/SEL_COL4*%
X111760000Y-93980000D03*
%TO.P,U2,14,V_{DD}*%
%TO.N,+5V*%
X109220000Y-93980000D03*
%TD*%
%TO.P,C1,1*%
%TO.N,+5V*%
X169545000Y-82550000D03*
%TO.P,C1,2*%
%TO.N,GND*%
X169545000Y-87550000D03*
%TD*%
%TO.P,C5,1*%
%TO.N,+5V*%
X169545000Y-94060000D03*
%TO.P,C5,2*%
%TO.N,GND*%
X169545000Y-99060000D03*
%TD*%
%TO.P,C8,1*%
%TO.N,GND*%
X144145000Y-98385000D03*
%TO.P,C8,2*%
%TO.N,+5V*%
X144145000Y-93385000D03*
%TD*%
%TO.P,C2,1*%
%TO.N,+5V*%
X106172000Y-95036000D03*
%TO.P,C2,2*%
%TO.N,GND*%
X106172000Y-100036000D03*
%TD*%
D15*
%TO.P,U4,1,QB*%
%TO.N,/switch pusher/SEL_COL1*%
X109220000Y-114300000D03*
D14*
%TO.P,U4,2,QC*%
%TO.N,/switch pusher/SEL_COL2*%
X111760000Y-114300000D03*
%TO.P,U4,3,QD*%
%TO.N,/switch pusher/SEL_COL3*%
X114299999Y-114300000D03*
%TO.P,U4,4,QE*%
%TO.N,/switch pusher/SEL_COL4*%
X116840000Y-114300000D03*
%TO.P,U4,5,QF*%
%TO.N,/switch pusher/SEL_COL5*%
X119380000Y-114300000D03*
%TO.P,U4,6,QG*%
%TO.N,/switch pusher/SEL_COL6*%
X121920000Y-114300000D03*
%TO.P,U4,7,QH*%
%TO.N,/switch pusher/SEL_COL7*%
X124460000Y-114300000D03*
%TO.P,U4,8,GND*%
%TO.N,GND*%
X127000001Y-114300000D03*
%TO.P,U4,9,SO*%
%TO.N,unconnected-(U4-SO-Pad9)*%
X127000000Y-106680000D03*
%TO.P,U4,10,~{SRCLR}*%
%TO.N,+5V*%
X124460000Y-106680000D03*
%TO.P,U4,11,SRCLK*%
%TO.N,/switch listener/CLK*%
X121920000Y-106680000D03*
%TO.P,U4,12,RCLK*%
%TO.N,/switch pusher/LOAD*%
X119380000Y-106680000D03*
%TO.P,U4,13,~{OE}*%
%TO.N,GND*%
X116840000Y-106680000D03*
%TO.P,U4,14,SER*%
%TO.N,Net-(U3-SO)*%
X114300000Y-106680000D03*
%TO.P,U4,15,QA*%
%TO.N,unconnected-(U4-QA-Pad15)*%
X111760000Y-106680000D03*
%TO.P,U4,16,VCC*%
%TO.N,+5V*%
X109220000Y-106680000D03*
%TD*%
%TO.P,C4,1*%
%TO.N,+5V*%
X172085000Y-69850000D03*
%TO.P,C4,2*%
%TO.N,GND*%
X172085000Y-74850000D03*
%TD*%
D15*
%TO.P,U6,1*%
%TO.N,/ROW0*%
X175260000Y-76200000D03*
D14*
%TO.P,U6,2*%
%TO.N,Net-(D1-A)*%
X177800000Y-76200000D03*
%TO.P,U6,3*%
X180339999Y-76200000D03*
%TO.P,U6,4*%
%TO.N,/ROW1*%
X182880000Y-76200000D03*
%TO.P,U6,5*%
%TO.N,/switch pusher/SEL_ROW1*%
X185420000Y-76200000D03*
%TO.P,U6,6*%
%TO.N,/switch pusher/SEL_ROW3*%
X187960000Y-76200000D03*
%TO.P,U6,7,V_{SS}*%
%TO.N,GND*%
X190500000Y-76200000D03*
%TO.P,U6,8*%
%TO.N,/ROW3*%
X190500000Y-68580000D03*
%TO.P,U6,9*%
%TO.N,Net-(D1-A)*%
X187960000Y-68580000D03*
%TO.P,U6,10*%
X185420000Y-68580000D03*
%TO.P,U6,11*%
%TO.N,/ROW2*%
X182880000Y-68580000D03*
%TO.P,U6,12*%
%TO.N,/switch pusher/SEL_ROW2*%
X180340000Y-68580000D03*
%TO.P,U6,13*%
%TO.N,/switch pusher/SEL_ROW0*%
X177800000Y-68580000D03*
%TO.P,U6,14,V_{DD}*%
%TO.N,+5V*%
X175260000Y-68580000D03*
%TD*%
%TO.P,C7,1*%
%TO.N,GND*%
X144145000Y-83780000D03*
%TO.P,C7,2*%
%TO.N,+5V*%
X144145000Y-78780000D03*
%TD*%
D15*
%TO.P,U7,1,K*%
%TO.N,/switch listener/N_INT*%
X147320000Y-86360000D03*
D14*
%TO.P,U7,2,A*%
%TO.N,/ROW4*%
X149860000Y-86360000D03*
%TO.P,U7,3,B*%
%TO.N,/ROW5*%
X152399999Y-86360000D03*
%TO.P,U7,4,C*%
%TO.N,/ROW6*%
X154940000Y-86360000D03*
%TO.P,U7,5,D*%
%TO.N,/ROW7*%
X157480000Y-86360000D03*
%TO.P,U7,6,NC*%
%TO.N,unconnected-(U7-NC-Pad6)*%
X160020000Y-86360000D03*
%TO.P,U7,7,Vss*%
%TO.N,GND*%
X162560000Y-86360000D03*
%TO.P,U7,8,NC*%
%TO.N,unconnected-(U7-NC-Pad8)*%
X162560000Y-78740000D03*
%TO.P,U7,9,E*%
%TO.N,/ROW0*%
X160020000Y-78740000D03*
%TO.P,U7,10,F*%
%TO.N,/ROW1*%
X157480000Y-78740000D03*
%TO.P,U7,11,G*%
%TO.N,/ROW2*%
X154940000Y-78740000D03*
%TO.P,U7,12,H*%
%TO.N,/ROW3*%
X152400000Y-78740000D03*
%TO.P,U7,13,J*%
%TO.N,unconnected-(U7-J-Pad13)*%
X149860000Y-78740000D03*
%TO.P,U7,14,Vdd*%
%TO.N,+5V*%
X147320000Y-78740000D03*
%TD*%
%TO.P,C3,1*%
%TO.N,+5V*%
X106172000Y-82590000D03*
%TO.P,C3,2*%
%TO.N,GND*%
X106172000Y-87590000D03*
%TD*%
D15*
%TO.P,U9,1,~{PL}*%
%TO.N,/switch listener/READ*%
X106680000Y-76200000D03*
D14*
%TO.P,U9,2,CP*%
%TO.N,/switch listener/CLK*%
X109220000Y-76200000D03*
%TO.P,U9,3,D4*%
%TO.N,/COL4*%
X111759999Y-76200000D03*
%TO.P,U9,4,D5*%
%TO.N,/COL5*%
X114300000Y-76200000D03*
%TO.P,U9,5,D6*%
%TO.N,/COL6*%
X116840000Y-76200000D03*
%TO.P,U9,6,D7*%
%TO.N,/COL7*%
X119380000Y-76200000D03*
%TO.P,U9,7,~{Q7}*%
%TO.N,unconnected-(U9-~{Q7}-Pad7)*%
X121920000Y-76200000D03*
%TO.P,U9,8,GND*%
%TO.N,GND*%
X124460001Y-76200000D03*
%TO.P,U9,9,Q7*%
%TO.N,/switch listener/MISO*%
X124460000Y-68580000D03*
%TO.P,U9,10,DS*%
%TO.N,Net-(U8-Q7)*%
X121920000Y-68580000D03*
%TO.P,U9,11,D0*%
%TO.N,/COL0*%
X119380000Y-68580000D03*
%TO.P,U9,12,D1*%
%TO.N,/COL1*%
X116840000Y-68580000D03*
%TO.P,U9,13,D2*%
%TO.N,/COL2*%
X114300000Y-68580000D03*
%TO.P,U9,14,D3*%
%TO.N,/COL3*%
X111760000Y-68580000D03*
%TO.P,U9,15,~{CE}*%
%TO.N,GND*%
X109220000Y-68580000D03*
%TO.P,U9,16,VCC*%
%TO.N,+5V*%
X106680000Y-68580000D03*
%TD*%
%TO.P,C6,1*%
%TO.N,+5V*%
X106045000Y-107990000D03*
%TO.P,C6,2*%
%TO.N,GND*%
X106045000Y-112990000D03*
%TD*%
%TO.P,C17,1*%
%TO.N,GND*%
X103505000Y-74890000D03*
%TO.P,C17,2*%
%TO.N,+5V*%
X103505000Y-69890000D03*
%TD*%
D15*
%TO.P,U3,1,QB*%
%TO.N,/switch pusher/SEL_ROW1*%
X172720000Y-101600000D03*
D14*
%TO.P,U3,2,QC*%
%TO.N,/switch pusher/SEL_ROW2*%
X175260000Y-101600000D03*
%TO.P,U3,3,QD*%
%TO.N,/switch pusher/SEL_ROW3*%
X177799999Y-101600000D03*
%TO.P,U3,4,QE*%
%TO.N,/switch pusher/SEL_ROW4*%
X180340000Y-101600000D03*
%TO.P,U3,5,QF*%
%TO.N,/switch pusher/SEL_ROW5*%
X182880000Y-101600000D03*
%TO.P,U3,6,QG*%
%TO.N,/switch pusher/SEL_ROW6*%
X185420000Y-101600000D03*
%TO.P,U3,7,QH*%
%TO.N,/switch pusher/SEL_ROW7*%
X187960000Y-101600000D03*
%TO.P,U3,8,GND*%
%TO.N,GND*%
X190500001Y-101600000D03*
%TO.P,U3,9,SO*%
%TO.N,Net-(U3-SO)*%
X190500000Y-93980000D03*
%TO.P,U3,10,~{SRCLR}*%
%TO.N,+5V*%
X187960000Y-93980000D03*
%TO.P,U3,11,SRCLK*%
%TO.N,/switch listener/CLK*%
X185420000Y-93980000D03*
%TO.P,U3,12,RCLK*%
%TO.N,/switch pusher/LOAD*%
X182880000Y-93980000D03*
%TO.P,U3,13,~{OE}*%
%TO.N,GND*%
X180340000Y-93980000D03*
%TO.P,U3,14,SER*%
%TO.N,/switch pusher/MOSI*%
X177800000Y-93980000D03*
%TO.P,U3,15,QA*%
%TO.N,/switch pusher/SEL_ROW0*%
X175260000Y-93980000D03*
%TO.P,U3,16,VCC*%
%TO.N,+5V*%
X172720000Y-93980000D03*
%TD*%
D20*
%TO.N,GND*%
X165100000Y-73660000D03*
X165100000Y-78740000D03*
D21*
%TO.N,/switch listener/CLK*%
X160020000Y-106045000D03*
%TO.N,/ROW7*%
X156210000Y-99695000D03*
%TO.N,Net-(D1-A)*%
X137795000Y-104775000D03*
D20*
%TO.N,GND*%
X128905001Y-112395000D03*
D21*
%TO.N,Net-(D1-A)*%
X193040000Y-80645000D03*
%TO.N,/COL3*%
X110490000Y-83185000D03*
%TO.N,/COL6*%
X115570000Y-66675000D03*
%TO.N,/COL2*%
X115689000Y-79375000D03*
%TO.N,/COL5*%
X113030000Y-91440000D03*
%TO.N,GND*%
X118110000Y-116840000D03*
X191770000Y-88900000D03*
D20*
X195580000Y-99695000D03*
X193675000Y-101600000D03*
D21*
%TO.N,/switch pusher/SHIFT*%
X121920000Y-120015000D03*
%TO.N,+5V*%
X124460000Y-110490000D03*
%TO.N,/switch pusher/LOAD*%
X179070000Y-97790000D03*
%TO.N,/switch listener/CLK*%
X185420000Y-98425000D03*
%TO.N,/switch listener/READ*%
X129540000Y-127000000D03*
%TO.N,/switch pusher/MOSI*%
X171450000Y-97790000D03*
X137795000Y-107315000D03*
%TO.N,/switch pusher/SEL_ROW6*%
X188595000Y-98425000D03*
%TO.N,/switch pusher/SEL_ROW4*%
X193040000Y-86360000D03*
X187960000Y-86360000D03*
%TO.N,/switch pusher/SEL_ROW5*%
X193040000Y-84455000D03*
%TO.N,/switch pusher/SEL_ROW7*%
X193040000Y-82550000D03*
%TO.N,/switch pusher/SEL_ROW3*%
X191770000Y-78740000D03*
%TO.N,/switch pusher/SEL_COL1*%
X110933859Y-97320205D03*
%TO.N,/switch pusher/SEL_COL3*%
X110490000Y-91440000D03*
%TO.N,/switch pusher/SEL_COL2*%
X111760000Y-99060000D03*
%TD*%
D22*
%TO.N,GND*%
X165100000Y-73660000D02*
X165100000Y-78740000D01*
D23*
%TO.N,/ROW4*%
X167640000Y-80645000D02*
X151130000Y-80645000D01*
X169545000Y-78740000D02*
X167640000Y-80645000D01*
X187960000Y-81280000D02*
X185420000Y-78740000D01*
X185420000Y-78740000D02*
X169545000Y-78740000D01*
%TO.N,/ROW5*%
X152399999Y-82550001D02*
X152399999Y-86360000D01*
X168275000Y-81280000D02*
X153670000Y-81280000D01*
X179070000Y-79375000D02*
X170180000Y-79375000D01*
X170180000Y-79375000D02*
X168275000Y-81280000D01*
X180340000Y-80645000D02*
X179070000Y-79375000D01*
X180340000Y-81280000D02*
X180340000Y-80645000D01*
X153670000Y-81280000D02*
X152399999Y-82550001D01*
D24*
%TO.N,GND*%
X165100002Y-100330002D02*
X165100002Y-101600000D01*
X162560000Y-97790000D02*
X165100002Y-100330002D01*
X161290002Y-97790000D02*
X162560000Y-97790000D01*
X151130000Y-97790000D02*
X161290002Y-97790000D01*
X150535000Y-98385000D02*
X151130000Y-97790000D01*
X144145000Y-98385000D02*
X150535000Y-98385000D01*
D23*
%TO.N,/ROW7*%
X158750000Y-99695000D02*
X156210000Y-99695000D01*
X160020001Y-100965001D02*
X160020001Y-101600000D01*
X158750000Y-99695000D02*
X160020001Y-100965001D01*
%TO.N,GND*%
X161290002Y-95249999D02*
X161290002Y-97790000D01*
X162560001Y-93980000D02*
X161290002Y-95249999D01*
%TO.N,/ROW1*%
X140970000Y-86360000D02*
X139700000Y-85090000D01*
X140970000Y-92978000D02*
X140970000Y-86360000D01*
X142875000Y-96520000D02*
X141605000Y-95250000D01*
X141605000Y-95250000D02*
X141605000Y-93613000D01*
X149225000Y-96520000D02*
X142875000Y-96520000D01*
X155575001Y-95885000D02*
X149860000Y-95885000D01*
X157480001Y-93980000D02*
X155575001Y-95885000D01*
X149860000Y-95885000D02*
X149225000Y-96520000D01*
X141605000Y-93613000D02*
X140970000Y-92978000D01*
%TO.N,/ROW0*%
X149860000Y-97155000D02*
X150495000Y-96520000D01*
X142240000Y-97155000D02*
X149860000Y-97155000D01*
X140970000Y-93980000D02*
X140970000Y-95885000D01*
X139700000Y-88265000D02*
X139700000Y-92710000D01*
X139700000Y-92710000D02*
X140970000Y-93980000D01*
X140970000Y-95885000D02*
X142240000Y-97155000D01*
X150495000Y-96520000D02*
X157480001Y-96520000D01*
X157480001Y-96520000D02*
X160020001Y-93980000D01*
D24*
%TO.N,+5V*%
X144145000Y-91440000D02*
X144145000Y-93385000D01*
X166717243Y-91440000D02*
X144145000Y-91440000D01*
X169545000Y-94060000D02*
X169337243Y-94060000D01*
X169337243Y-94060000D02*
X166717243Y-91440000D01*
D23*
%TO.N,/ROW2*%
X149225000Y-95250000D02*
X153670001Y-95250000D01*
X148590000Y-95885000D02*
X149225000Y-95250000D01*
%TO.N,/ROW3*%
X149225000Y-92710000D02*
X151130000Y-92710000D01*
X148590000Y-94615000D02*
X148590000Y-93345000D01*
X147955000Y-95250000D02*
X148590000Y-94615000D01*
X148590000Y-93345000D02*
X149225000Y-92710000D01*
X151130000Y-92710000D02*
X152400001Y-93980000D01*
D24*
%TO.N,+5V*%
X144740000Y-93980000D02*
X147320001Y-93980000D01*
X144145000Y-93385000D02*
X144740000Y-93980000D01*
D23*
%TO.N,/ROW2*%
X142240000Y-94615000D02*
X143510000Y-95885000D01*
X143510000Y-95885000D02*
X148590000Y-95885000D01*
X142240000Y-92710000D02*
X142240000Y-94615000D01*
X141605000Y-83910714D02*
X141605000Y-92075000D01*
X139700000Y-82005714D02*
X141605000Y-83910714D01*
X153670001Y-95250000D02*
X154940001Y-93980000D01*
X139700000Y-81915000D02*
X139700000Y-82005714D01*
X141605000Y-92075000D02*
X142240000Y-92710000D01*
%TO.N,/ROW3*%
X142875000Y-93980000D02*
X144145000Y-95250000D01*
X142875000Y-92075000D02*
X142875000Y-93980000D01*
X142240000Y-78105000D02*
X142240000Y-91440000D01*
X142240000Y-91440000D02*
X142875000Y-92075000D01*
X139700000Y-75565000D02*
X142240000Y-78105000D01*
X144145000Y-95250000D02*
X147955000Y-95250000D01*
%TO.N,/ROW4*%
X151130000Y-100330000D02*
X152400000Y-101600000D01*
X139065000Y-99695000D02*
X142240000Y-99695000D01*
X142240000Y-99695000D02*
X142875000Y-100330000D01*
X142875000Y-100330000D02*
X151130000Y-100330000D01*
X138430000Y-99060000D02*
X139065000Y-99695000D01*
X138430000Y-95885000D02*
X138430000Y-99060000D01*
X139700000Y-94615000D02*
X138430000Y-95885000D01*
D25*
%TO.N,GND*%
X130810001Y-114300000D02*
X128905001Y-112395000D01*
X152400000Y-114300000D02*
X130810001Y-114300000D01*
X152400000Y-119380000D02*
X152400000Y-114300000D01*
X158155000Y-114300000D02*
X152400000Y-114300000D01*
X160060000Y-112395000D02*
X158155000Y-114300000D01*
D24*
%TO.N,+5V*%
X130810000Y-104775000D02*
X130810000Y-101600000D01*
D23*
%TO.N,/ROW6*%
X142875000Y-103505000D02*
X155575001Y-103505000D01*
X140970000Y-101600000D02*
X142875000Y-103505000D01*
X155575001Y-103505000D02*
X157480001Y-101600000D01*
D25*
%TO.N,GND*%
X124460001Y-116840000D02*
X127000001Y-114300000D01*
X107315000Y-114300000D02*
X107315000Y-115570000D01*
X108585000Y-116840000D02*
X124460001Y-116840000D01*
X106045000Y-112990000D02*
X107315000Y-114300000D01*
X107315000Y-115570000D02*
X108585000Y-116840000D01*
X106045000Y-112990000D02*
X106045000Y-113030000D01*
D23*
%TO.N,/switch listener/READ*%
X103505000Y-124460000D02*
X103505000Y-79375000D01*
X106045000Y-127000000D02*
X103505000Y-124460000D01*
X129540000Y-127000000D02*
X106045000Y-127000000D01*
X103505000Y-79375000D02*
X106680000Y-76200000D01*
%TO.N,/switch listener/CLK*%
X102235000Y-133542500D02*
X103312500Y-134620000D01*
X103312500Y-134620000D02*
X124460000Y-134620000D01*
X106045000Y-74295000D02*
X102235000Y-78105000D01*
X108585000Y-74295000D02*
X106045000Y-74295000D01*
X102235000Y-78105000D02*
X102235000Y-133542500D01*
X109220000Y-74930000D02*
X108585000Y-74295000D01*
X109220000Y-76200000D02*
X109220000Y-74930000D01*
D25*
%TO.N,GND*%
X190500001Y-101600000D02*
X190400000Y-101600000D01*
D23*
%TO.N,/switch pusher/SEL_ROW5*%
X184150000Y-97155000D02*
X182880000Y-98425000D01*
X191293750Y-97155000D02*
X184150000Y-97155000D01*
X182880000Y-98425000D02*
X182880000Y-101600000D01*
X194310000Y-94138750D02*
X191293750Y-97155000D01*
X194310000Y-85090000D02*
X194310000Y-94138750D01*
X193675000Y-84455000D02*
X194310000Y-85090000D01*
X193040000Y-84455000D02*
X193675000Y-84455000D01*
%TO.N,/switch pusher/SEL_ROW4*%
X180340000Y-97155000D02*
X180340000Y-101600000D01*
X190817500Y-96520000D02*
X180975000Y-96520000D01*
X193675000Y-93662500D02*
X190817500Y-96520000D01*
X180975000Y-96520000D02*
X180340000Y-97155000D01*
X193675000Y-86995000D02*
X193675000Y-93662500D01*
X193040000Y-86360000D02*
X193675000Y-86995000D01*
%TO.N,/switch pusher/SEL_ROW7*%
X194945000Y-94615000D02*
X187960000Y-101600000D01*
X194310000Y-82550000D02*
X194945000Y-83185000D01*
X193040000Y-82550000D02*
X194310000Y-82550000D01*
X194945000Y-83185000D02*
X194945000Y-94615000D01*
%TO.N,/switch listener/CLK*%
X184150000Y-99695000D02*
X185420000Y-98425000D01*
X184150000Y-102870000D02*
X184150000Y-99695000D01*
X181610000Y-105410000D02*
X184150000Y-102870000D01*
X160655000Y-105410000D02*
X181610000Y-105410000D01*
X160020000Y-106045000D02*
X160655000Y-105410000D01*
%TO.N,/switch pusher/LOAD*%
X179070000Y-102235000D02*
X179070000Y-97790000D01*
X177165000Y-104140000D02*
X179070000Y-102235000D01*
X168275000Y-104140000D02*
X177165000Y-104140000D01*
X167640000Y-104775000D02*
X168275000Y-104140000D01*
X159385000Y-104775000D02*
X167640000Y-104775000D01*
X158115000Y-106045000D02*
X159385000Y-104775000D01*
X146050000Y-109220000D02*
X149225000Y-106045000D01*
X120332500Y-109220000D02*
X146050000Y-109220000D01*
X149225000Y-106045000D02*
X158115000Y-106045000D01*
X119380000Y-108267500D02*
X120332500Y-109220000D01*
X119380000Y-106680000D02*
X119380000Y-108267500D01*
%TO.N,Net-(U3-SO)*%
X189230000Y-95250000D02*
X190500000Y-93980000D01*
X178435000Y-95250000D02*
X189230000Y-95250000D01*
X176530000Y-97155000D02*
X178435000Y-95250000D01*
X176530000Y-102870000D02*
X176530000Y-97155000D01*
X175895000Y-103505000D02*
X176530000Y-102870000D01*
X167640000Y-103505000D02*
X175895000Y-103505000D01*
X167005000Y-104140000D02*
X167640000Y-103505000D01*
X158750000Y-104140000D02*
X167005000Y-104140000D01*
X157480000Y-105410000D02*
X158750000Y-104140000D01*
X145415000Y-108585000D02*
X148590000Y-105410000D01*
X120650000Y-107950000D02*
X121285000Y-108585000D01*
X121285000Y-108585000D02*
X145415000Y-108585000D01*
X120650000Y-106045000D02*
X120650000Y-107950000D01*
X120015000Y-105410000D02*
X120650000Y-106045000D01*
X148590000Y-105410000D02*
X157480000Y-105410000D01*
X115570000Y-105410000D02*
X120015000Y-105410000D01*
X114300000Y-106680000D02*
X115570000Y-105410000D01*
%TO.N,/switch pusher/MOSI*%
X168910000Y-97790000D02*
X171450000Y-97790000D01*
X166296480Y-103505000D02*
X167640000Y-102161480D01*
X167640000Y-99060000D02*
X168910000Y-97790000D01*
X158115000Y-103505000D02*
X166296480Y-103505000D01*
X167640000Y-102161480D02*
X167640000Y-99060000D01*
X145415000Y-107315000D02*
X147955000Y-104775000D01*
X147955000Y-104775000D02*
X156845000Y-104775000D01*
X137795000Y-107315000D02*
X145415000Y-107315000D01*
X156845000Y-104775000D02*
X158115000Y-103505000D01*
%TO.N,Net-(D1-A)*%
X170815000Y-93345000D02*
X175260000Y-88900000D01*
X170815000Y-96520000D02*
X170815000Y-93345000D01*
X170180000Y-97155000D02*
X170815000Y-96520000D01*
X168275000Y-97155000D02*
X170180000Y-97155000D01*
X166631000Y-98799000D02*
X168275000Y-97155000D01*
X166631000Y-101900480D02*
X166631000Y-98799000D01*
X157480000Y-102870000D02*
X165661480Y-102870000D01*
X156210000Y-104140000D02*
X157480000Y-102870000D01*
X139700000Y-106680000D02*
X144780000Y-106680000D01*
X144780000Y-106680000D02*
X147320000Y-104140000D01*
X147320000Y-104140000D02*
X156210000Y-104140000D01*
X165661480Y-102870000D02*
X166631000Y-101900480D01*
X137795000Y-104775000D02*
X139700000Y-106680000D01*
%TO.N,/ROW5*%
X142875000Y-99060000D02*
X143510000Y-99695000D01*
X140970000Y-99060000D02*
X142875000Y-99060000D01*
X143510000Y-99695000D02*
X153035001Y-99695000D01*
X139700000Y-97790000D02*
X140970000Y-99060000D01*
%TO.N,/switch listener/CLK*%
X123190000Y-105410000D02*
X121920000Y-106680000D01*
X129540000Y-106045000D02*
X128905000Y-105410000D01*
X128905000Y-105410000D02*
X123190000Y-105410000D01*
X136525000Y-104775000D02*
X135255000Y-106045000D01*
X136525000Y-101600000D02*
X136525000Y-104775000D01*
X135255000Y-106045000D02*
X129540000Y-106045000D01*
X137795000Y-100330000D02*
X136525000Y-101600000D01*
X141605000Y-100330000D02*
X137795000Y-100330000D01*
X144145000Y-102870000D02*
X141605000Y-100330000D01*
X149860001Y-101600000D02*
X148590001Y-102870000D01*
X148590001Y-102870000D02*
X144145000Y-102870000D01*
%TO.N,/ROW5*%
X154940001Y-101600000D02*
X153035000Y-99695000D01*
%TO.N,/ROW6*%
X147320000Y-88900000D02*
X153670000Y-88900000D01*
X146050000Y-87630000D02*
X147320000Y-88900000D01*
X146050000Y-74930000D02*
X146050000Y-87630000D01*
X153670000Y-88900000D02*
X154940000Y-87630000D01*
X148590000Y-69850000D02*
X148590000Y-72390000D01*
X148590000Y-72390000D02*
X146050000Y-74930000D01*
X149860000Y-68580000D02*
X148590000Y-69850000D01*
X154940000Y-87630000D02*
X154940000Y-86360000D01*
%TO.N,/ROW7*%
X144145000Y-90170000D02*
X156210000Y-90170000D01*
X142875000Y-88900000D02*
X144145000Y-90170000D01*
X157480000Y-88900000D02*
X157480000Y-86360000D01*
X142875000Y-76835000D02*
X142875000Y-88900000D01*
X156210000Y-90170000D02*
X157480000Y-88900000D01*
X147319999Y-72390001D02*
X142875000Y-76835000D01*
X147319999Y-71120000D02*
X147319999Y-72390001D01*
%TO.N,+5V*%
X130810000Y-101600000D02*
X130175000Y-101600000D01*
D24*
X129540000Y-88265000D02*
X129540000Y-100330000D01*
X129540000Y-100330000D02*
X130810000Y-101600000D01*
X129540000Y-85090000D02*
X129540000Y-88265000D01*
X129540000Y-81915000D02*
X129540000Y-85090000D01*
X129540000Y-75565000D02*
X129540000Y-81915000D01*
D23*
%TO.N,/ROW1*%
X138430000Y-85090000D02*
X132080000Y-78740000D01*
X139700000Y-85090000D02*
X138430000Y-85090000D01*
%TO.N,/ROW5*%
X148590000Y-87630000D02*
X149225000Y-88265000D01*
X149225000Y-88265000D02*
X151765000Y-88265000D01*
X149860000Y-72390000D02*
X148590000Y-73660000D01*
X152399999Y-87630001D02*
X152399999Y-86360000D01*
X149860000Y-71120000D02*
X149860000Y-72390000D01*
X148590000Y-73660000D02*
X148590000Y-87630000D01*
X151765000Y-88265000D02*
X152399999Y-87630001D01*
%TO.N,/ROW4*%
X149860000Y-85090000D02*
X149860000Y-86360000D01*
X151130000Y-81280000D02*
X151130000Y-83820000D01*
X151130000Y-83820000D02*
X149860000Y-85090000D01*
X151130000Y-73660000D02*
X151130000Y-81280000D01*
D25*
%TO.N,GND*%
X128905001Y-112395000D02*
X127000001Y-114300000D01*
D23*
%TO.N,Net-(D1-A)*%
X177799999Y-86360001D02*
X182880000Y-81280000D01*
X185420000Y-68580000D02*
X187960000Y-68580000D01*
X191724520Y-69731000D02*
X189111000Y-69731000D01*
X177799999Y-88900000D02*
X177799999Y-86360001D01*
X193040000Y-80645000D02*
X193040000Y-71046480D01*
X193040000Y-71046480D02*
X191724520Y-69731000D01*
X187960000Y-68580000D02*
X189111000Y-69731000D01*
X177800000Y-76200000D02*
X180339999Y-76200000D01*
%TO.N,Net-(D1-K)*%
X119380000Y-82550000D02*
X123071000Y-86241000D01*
X119380000Y-93980000D02*
X119380000Y-96519999D01*
X123071000Y-90289000D02*
X121920000Y-91440000D01*
X119380000Y-96519999D02*
X114299999Y-101600000D01*
X119380000Y-93980000D02*
X121920000Y-93980000D01*
X114300000Y-88899999D02*
X114299999Y-88900000D01*
X119380000Y-81280000D02*
X119380000Y-82550000D01*
X114299999Y-101600000D02*
X111760000Y-101600000D01*
X123071000Y-86241000D02*
X123071000Y-90289000D01*
%TO.N,/ROW1*%
X154940000Y-71120000D02*
X154940000Y-73660000D01*
X168275000Y-66742900D02*
X168275000Y-70485000D01*
X156210000Y-66675000D02*
X157480000Y-65405000D01*
X168275000Y-70485000D02*
X169545000Y-71755000D01*
X175895000Y-71755000D02*
X176530000Y-72390000D01*
X166937100Y-65405000D02*
X168275000Y-66742900D01*
X177442240Y-77470000D02*
X181610000Y-77470000D01*
X176530000Y-72390000D02*
X176530000Y-76557760D01*
X156210000Y-69850000D02*
X156210000Y-66675000D01*
X181610000Y-77470000D02*
X182880000Y-76200000D01*
X154940000Y-71120000D02*
X156210000Y-69850000D01*
X157480000Y-65405000D02*
X166937100Y-65405000D01*
X154940000Y-73660000D02*
X157480000Y-76200000D01*
X157480000Y-76200000D02*
X157480000Y-78740000D01*
X176530000Y-76557760D02*
X177442240Y-77470000D01*
X169545000Y-71755000D02*
X175895000Y-71755000D01*
%TO.N,Net-(D2-K)*%
X121920000Y-78740000D02*
X121920000Y-81280000D01*
%TO.N,/COL3*%
X110490000Y-83185000D02*
X109220000Y-84455000D01*
X109220000Y-84455000D02*
X109220000Y-88900000D01*
%TO.N,/ROW7*%
X158750000Y-83820000D02*
X157480000Y-85090000D01*
X157480000Y-85090000D02*
X157480000Y-86360000D01*
X172720000Y-88900000D02*
X167640000Y-83820000D01*
X167640000Y-83820000D02*
X158750000Y-83820000D01*
%TO.N,/COL6*%
X116840000Y-93345000D02*
X116840000Y-93980000D01*
X116840000Y-78105000D02*
X118110000Y-79375000D01*
X137795000Y-65405000D02*
X139700000Y-67310000D01*
X115570000Y-66675000D02*
X116840000Y-65405000D01*
X116840000Y-65405000D02*
X137795000Y-65405000D01*
X139700000Y-67310000D02*
X139700000Y-68580000D01*
X116840000Y-76200000D02*
X116840000Y-78105000D01*
X118110000Y-84455000D02*
X120650000Y-86995000D01*
X120650000Y-86995000D02*
X120650000Y-89535000D01*
X118110000Y-79375000D02*
X118110000Y-84455000D01*
X120650000Y-89535000D02*
X116840000Y-93345000D01*
%TO.N,/ROW2*%
X154940000Y-74930000D02*
X154940000Y-78740000D01*
X180975000Y-64770000D02*
X182880000Y-66675000D01*
X156845000Y-64770000D02*
X180975000Y-64770000D01*
X182880000Y-68580000D02*
X182880000Y-66675000D01*
X153670000Y-70485000D02*
X153670000Y-73660000D01*
X154940000Y-68580000D02*
X154940000Y-69215000D01*
X154940000Y-66675000D02*
X156845000Y-64770000D01*
X153670000Y-73660000D02*
X154940000Y-74930000D01*
X154940000Y-69215000D02*
X153670000Y-70485000D01*
X154940000Y-68580000D02*
X154940000Y-66675000D01*
%TO.N,/COL7*%
X125730000Y-92710000D02*
X124460000Y-93980000D01*
X125730000Y-87630000D02*
X125730000Y-92710000D01*
X120650000Y-82550000D02*
X125730000Y-87630000D01*
X120650000Y-80010000D02*
X120650000Y-82550000D01*
X119380000Y-78740000D02*
X120650000Y-80010000D01*
X119380000Y-76200000D02*
X119380000Y-78740000D01*
%TO.N,/ROW4*%
X151130000Y-73660000D02*
X151130000Y-69850000D01*
X151130000Y-69850000D02*
X152400000Y-68580000D01*
%TO.N,/ROW3*%
X153670000Y-66040000D02*
X155575000Y-64135000D01*
X190500000Y-66548000D02*
X190500000Y-68580000D01*
X155575000Y-64135000D02*
X188087000Y-64135000D01*
X153670000Y-69282900D02*
X153670000Y-66040000D01*
X188087000Y-64135000D02*
X190500000Y-66548000D01*
X152400000Y-70552900D02*
X153670000Y-69282900D01*
X152400000Y-71120000D02*
X152400000Y-70552900D01*
X152400000Y-71120000D02*
X152400000Y-78740000D01*
%TO.N,/COL2*%
X115689000Y-83939000D02*
X116840000Y-85090000D01*
X144780000Y-68580000D02*
X144780000Y-67310000D01*
X114300000Y-66040000D02*
X114300000Y-68580000D01*
X115689000Y-79375000D02*
X115689000Y-83939000D01*
X115570000Y-64770000D02*
X114300000Y-66040000D01*
X144780000Y-67310000D02*
X142240000Y-64770000D01*
X116840000Y-85090000D02*
X116840000Y-88900000D01*
X142240000Y-64770000D02*
X115570000Y-64770000D01*
%TO.N,/COL5*%
X113030000Y-91440000D02*
X113030000Y-80010000D01*
X113030000Y-80010000D02*
X114300000Y-78740000D01*
X114300000Y-78740000D02*
X114300000Y-76200000D01*
%TO.N,/COL4*%
X109220000Y-101600000D02*
X109220000Y-95885000D01*
X107950000Y-94615000D02*
X107950000Y-80009999D01*
X109220000Y-95885000D02*
X107950000Y-94615000D01*
X107950000Y-80009999D02*
X111759999Y-76200000D01*
%TO.N,/ROW0*%
X157480000Y-68580000D02*
X160020000Y-66040000D01*
X158750000Y-69850000D02*
X158750000Y-74930000D01*
X160020000Y-66040000D02*
X165735000Y-66040000D01*
X167640000Y-67945000D02*
X167640000Y-74930000D01*
X160020000Y-76200000D02*
X160020000Y-78740000D01*
X157480000Y-68580000D02*
X158750000Y-69850000D01*
X167640000Y-74930000D02*
X168910000Y-76200000D01*
X158750000Y-74930000D02*
X160020000Y-76200000D01*
X168910000Y-76200000D02*
X175260000Y-76200000D01*
X165735000Y-66040000D02*
X167640000Y-67945000D01*
%TO.N,/COL0*%
X120015000Y-66675000D02*
X127000000Y-66675000D01*
X146118999Y-71686001D02*
X146118999Y-69781001D01*
X145415000Y-72390000D02*
X146118999Y-71686001D01*
X146118999Y-69781001D02*
X147320000Y-68580000D01*
X130175000Y-72390000D02*
X145415000Y-72390000D01*
X119380000Y-67310000D02*
X120015000Y-66675000D01*
X128905000Y-68580000D02*
X128905000Y-71120000D01*
X128905000Y-71120000D02*
X130175000Y-72390000D01*
X127000000Y-66675000D02*
X128905000Y-68580000D01*
X119380000Y-68580000D02*
X119380000Y-67310000D01*
%TO.N,/COL1*%
X127708521Y-66040000D02*
X118110000Y-66040000D01*
X118110000Y-66040000D02*
X116840000Y-67310000D01*
X144780000Y-71120000D02*
X143510000Y-69850000D01*
X143510000Y-69850000D02*
X131518521Y-69850000D01*
X116840000Y-67310000D02*
X116840000Y-68580000D01*
X131518521Y-69850000D02*
X127708521Y-66040000D01*
%TO.N,/ROW6*%
X175895000Y-87630000D02*
X176530000Y-88265000D01*
X172720000Y-87630000D02*
X175895000Y-87630000D01*
X154940000Y-86360000D02*
X154940000Y-84455000D01*
X156210000Y-83185000D02*
X168275000Y-83185000D01*
X176530000Y-89535000D02*
X177165000Y-90170000D01*
X168275000Y-83185000D02*
X172720000Y-87630000D01*
X177165000Y-90170000D02*
X179070000Y-90170000D01*
X154940000Y-84455000D02*
X156210000Y-83185000D01*
X179070000Y-90170000D02*
X180340000Y-88900000D01*
X176530000Y-88265000D02*
X176530000Y-89535000D01*
D24*
%TO.N,GND*%
X124460000Y-101600000D02*
X122555000Y-103505000D01*
D23*
X109220000Y-73025000D02*
X109220000Y-68580000D01*
X191770000Y-90805000D02*
X191770000Y-88900000D01*
D25*
X152400000Y-119380000D02*
X152400000Y-123190000D01*
D24*
X109220000Y-73025000D02*
X105370000Y-73025000D01*
X106172000Y-102362000D02*
X106172000Y-100036000D01*
D23*
X180340000Y-93980000D02*
X181610000Y-92710000D01*
D24*
X121285001Y-73025000D02*
X124460001Y-76200000D01*
D23*
X181610000Y-92710000D02*
X189865000Y-92710000D01*
D24*
X105370000Y-73025000D02*
X103505000Y-74890000D01*
D25*
X157480000Y-134620000D02*
X157480000Y-123190000D01*
D23*
X189865000Y-92710000D02*
X191770000Y-90805000D01*
D24*
X122555000Y-103505000D02*
X107315000Y-103505000D01*
X109220000Y-73025000D02*
X121285001Y-73025000D01*
X107315000Y-103505000D02*
X106172000Y-102362000D01*
D25*
X152400000Y-123190000D02*
X157480000Y-123190000D01*
D23*
%TO.N,/switch pusher/SHIFT*%
X130810000Y-118110000D02*
X131445000Y-117475000D01*
X131445000Y-117475000D02*
X133985000Y-117475000D01*
X133985000Y-117475000D02*
X134620000Y-118110000D01*
X130810000Y-120015000D02*
X130810000Y-118110000D01*
X122555000Y-120650000D02*
X130175000Y-120650000D01*
X121920000Y-120015000D02*
X122555000Y-120650000D01*
X134620000Y-118110000D02*
X134620000Y-119380000D01*
X130175000Y-120650000D02*
X130810000Y-120015000D01*
D24*
%TO.N,+5V*%
X106045000Y-107990000D02*
X107910000Y-107990000D01*
D23*
X124460000Y-110490000D02*
X111125000Y-110490000D01*
X111125000Y-110490000D02*
X109220000Y-108585000D01*
D24*
X107910000Y-107990000D02*
X109220000Y-106680000D01*
D23*
X109220000Y-108585000D02*
X109220000Y-106680000D01*
%TO.N,/switch listener/CLK*%
X121920000Y-106680000D02*
X121920000Y-106045000D01*
X104775000Y-103505000D02*
X104775000Y-80645000D01*
X121920000Y-106045000D02*
X120650000Y-104775000D01*
X104775000Y-80645000D02*
X109220000Y-76200000D01*
X120650000Y-104775000D02*
X106045000Y-104775000D01*
X106045000Y-104775000D02*
X104775000Y-103505000D01*
%TO.N,/switch pusher/SEL_ROW6*%
X188595000Y-98425000D02*
X185420000Y-101600000D01*
%TO.N,/switch pusher/SEL_ROW4*%
X187960000Y-86360000D02*
X185420000Y-88900000D01*
%TO.N,/switch pusher/SEL_ROW2*%
X189230000Y-92075000D02*
X190500000Y-90805000D01*
X180975000Y-70485000D02*
X180340000Y-69850000D01*
X176649000Y-93226000D02*
X177800000Y-92075000D01*
X180340000Y-69850000D02*
X180340000Y-68580000D01*
X190500000Y-90805000D02*
X190500000Y-78105000D01*
X175260000Y-96520000D02*
X176649000Y-95131000D01*
X176649000Y-95131000D02*
X176649000Y-93226000D01*
X177800000Y-92075000D02*
X189230000Y-92075000D01*
X175260000Y-101600000D02*
X175260000Y-96520000D01*
X191651000Y-76954000D02*
X191651000Y-72271000D01*
X191651000Y-72271000D02*
X189865000Y-70485000D01*
X189865000Y-70485000D02*
X180975000Y-70485000D01*
X190500000Y-78105000D02*
X191651000Y-76954000D01*
%TO.N,/switch pusher/SEL_ROW3*%
X177799999Y-101600000D02*
X177799999Y-97155001D01*
X191135000Y-79375000D02*
X191770000Y-78740000D01*
X191135000Y-86360000D02*
X191135000Y-79375000D01*
X193040000Y-88265000D02*
X191135000Y-86360000D01*
X177799999Y-97155001D02*
X179070000Y-95885000D01*
X179070000Y-95885000D02*
X190500000Y-95885000D01*
X190500000Y-95885000D02*
X193040000Y-93345000D01*
X193040000Y-93345000D02*
X193040000Y-88265000D01*
%TO.N,/switch pusher/SEL_ROW0*%
X189111000Y-77351000D02*
X189111000Y-72271000D01*
X175260000Y-92710000D02*
X175260000Y-93980000D01*
X177800000Y-69850000D02*
X179070000Y-71120000D01*
X179070000Y-71120000D02*
X187960000Y-71120000D01*
X189111000Y-72271000D02*
X187960000Y-71120000D01*
X189865000Y-78105000D02*
X189111000Y-77351000D01*
X177800000Y-68580000D02*
X177800000Y-69850000D01*
X188595000Y-91440000D02*
X176530000Y-91440000D01*
X189865000Y-78105000D02*
X189865000Y-90170000D01*
X189865000Y-90170000D02*
X188595000Y-91440000D01*
X176530000Y-91440000D02*
X175260000Y-92710000D01*
%TO.N,/switch pusher/SEL_ROW1*%
X173990000Y-97790000D02*
X172720000Y-99060000D01*
X185420000Y-76200000D02*
X185420000Y-77470000D01*
X186055000Y-78105000D02*
X188595000Y-78105000D01*
X173990000Y-92710000D02*
X173990000Y-97790000D01*
X188595000Y-78105000D02*
X189230000Y-78740000D01*
X189230000Y-89535000D02*
X187960000Y-90805000D01*
X175895000Y-90805000D02*
X173990000Y-92710000D01*
X187960000Y-90805000D02*
X175895000Y-90805000D01*
X185420000Y-77470000D02*
X186055000Y-78105000D01*
X189230000Y-78740000D02*
X189230000Y-89535000D01*
X172720000Y-99060000D02*
X172720000Y-101600000D01*
%TO.N,/switch pusher/SEL_COL1*%
X114300000Y-83820000D02*
X115570000Y-85090000D01*
X115570000Y-85090000D02*
X115570000Y-90805000D01*
X113030000Y-93345000D02*
X113030000Y-95224065D01*
X114300000Y-81280000D02*
X114300000Y-83820000D01*
X115570000Y-90805000D02*
X113030000Y-93345000D01*
X113030000Y-95224065D02*
X110933859Y-97320205D01*
%TO.N,/switch pusher/SEL_COL3*%
X110490000Y-85090000D02*
X110490000Y-91440000D01*
X111760000Y-83820000D02*
X110490000Y-85090000D01*
X111760000Y-81280000D02*
X111760000Y-83820000D01*
%TO.N,/switch pusher/SEL_COL2*%
X115570000Y-95250000D02*
X115570000Y-92710000D01*
X115570000Y-92710000D02*
X119380000Y-88900000D01*
X111760000Y-99060000D02*
X115570000Y-95250000D01*
%TD*%
%TA.AperFunction,Conductor*%
%TO.N,GND*%
G36*
X199442539Y-98444685D02*
G01*
X199488294Y-98497489D01*
X199499500Y-98549000D01*
X199499500Y-104651000D01*
X199479815Y-104718039D01*
X199427011Y-104763794D01*
X199375500Y-104775000D01*
X188595000Y-104775000D01*
X188595000Y-113665000D01*
X199375500Y-113665000D01*
X199442539Y-113684685D01*
X199488294Y-113737489D01*
X199499500Y-113789000D01*
X199499500Y-138376000D01*
X199479815Y-138443039D01*
X199427011Y-138488794D01*
X199375500Y-138500000D01*
X195000000Y-138500000D01*
X195000000Y-142875500D01*
X194980315Y-142942539D01*
X194927511Y-142988294D01*
X194876000Y-142999500D01*
X155064000Y-142999500D01*
X154996961Y-142979815D01*
X154951206Y-142927011D01*
X154940000Y-142875500D01*
X154940000Y-140293353D01*
X159189213Y-140293353D01*
X163504621Y-140293353D01*
X163504621Y-138478303D01*
X159189213Y-138478303D01*
X159189213Y-140293353D01*
X154940000Y-140293353D01*
X154940000Y-136042616D01*
X154959685Y-135975577D01*
X155012489Y-135929822D01*
X155044597Y-135920144D01*
X155244534Y-135888477D01*
X155439219Y-135825220D01*
X155621610Y-135732287D01*
X155714590Y-135664732D01*
X155787213Y-135611971D01*
X155787215Y-135611968D01*
X155787219Y-135611966D01*
X155931966Y-135467219D01*
X155931968Y-135467215D01*
X155931971Y-135467213D01*
X156052284Y-135301614D01*
X156052286Y-135301611D01*
X156052287Y-135301610D01*
X156099795Y-135208369D01*
X156147770Y-135157574D01*
X156215591Y-135140779D01*
X156281725Y-135163316D01*
X156320765Y-135208370D01*
X156368140Y-135301349D01*
X156488417Y-135466894D01*
X156488417Y-135466895D01*
X156633104Y-135611582D01*
X156798650Y-135731859D01*
X156980968Y-135824754D01*
X157175578Y-135887988D01*
X157230000Y-135896607D01*
X157230000Y-135053012D01*
X157287007Y-135085925D01*
X157414174Y-135120000D01*
X157545826Y-135120000D01*
X157672993Y-135085925D01*
X157730000Y-135053012D01*
X157730000Y-135896606D01*
X157784421Y-135887988D01*
X157979031Y-135824754D01*
X158161349Y-135731859D01*
X158326894Y-135611582D01*
X158326895Y-135611582D01*
X158471582Y-135466895D01*
X158471582Y-135466894D01*
X158591861Y-135301347D01*
X158639234Y-135208371D01*
X158687208Y-135157575D01*
X158755028Y-135140779D01*
X158821164Y-135163316D01*
X158860203Y-135208369D01*
X158907713Y-135301611D01*
X159028028Y-135467213D01*
X159172786Y-135611971D01*
X159327749Y-135724556D01*
X159338390Y-135732287D01*
X159451034Y-135789682D01*
X159520776Y-135825218D01*
X159520778Y-135825218D01*
X159520781Y-135825220D01*
X159581698Y-135845013D01*
X159715465Y-135888477D01*
X159809318Y-135903342D01*
X159917648Y-135920500D01*
X159917649Y-135920500D01*
X160122351Y-135920500D01*
X160122352Y-135920500D01*
X160324534Y-135888477D01*
X160519219Y-135825220D01*
X160701610Y-135732287D01*
X160794590Y-135664732D01*
X160867213Y-135611971D01*
X160867215Y-135611968D01*
X160867219Y-135611966D01*
X161011966Y-135467219D01*
X161011968Y-135467215D01*
X161011971Y-135467213D01*
X161064732Y-135394590D01*
X161132287Y-135301610D01*
X161225220Y-135119219D01*
X161288477Y-134924534D01*
X161320500Y-134722352D01*
X161320500Y-134517648D01*
X161288477Y-134315466D01*
X161287673Y-134312993D01*
X161225218Y-134120776D01*
X161132419Y-133938650D01*
X161132287Y-133938390D01*
X161124556Y-133927749D01*
X161011971Y-133772786D01*
X160867213Y-133628028D01*
X160701613Y-133507715D01*
X160701612Y-133507714D01*
X160701610Y-133507713D01*
X160638349Y-133475480D01*
X160519223Y-133414781D01*
X160324534Y-133351522D01*
X160149995Y-133323878D01*
X160122352Y-133319500D01*
X159917648Y-133319500D01*
X159893329Y-133323351D01*
X159715465Y-133351522D01*
X159520776Y-133414781D01*
X159338386Y-133507715D01*
X159172786Y-133628028D01*
X159028028Y-133772786D01*
X158907713Y-133938388D01*
X158860203Y-134031630D01*
X158812228Y-134082426D01*
X158744407Y-134099220D01*
X158678272Y-134076682D01*
X158639234Y-134031628D01*
X158591861Y-133938652D01*
X158471582Y-133773105D01*
X158471582Y-133773104D01*
X158326895Y-133628417D01*
X158161349Y-133508140D01*
X157979029Y-133415244D01*
X157784413Y-133352009D01*
X157730000Y-133343390D01*
X157730000Y-134186988D01*
X157672993Y-134154075D01*
X157545826Y-134120000D01*
X157414174Y-134120000D01*
X157287007Y-134154075D01*
X157230000Y-134186988D01*
X157230000Y-133343390D01*
X157175586Y-133352009D01*
X156980970Y-133415244D01*
X156798650Y-133508140D01*
X156633105Y-133628417D01*
X156633104Y-133628417D01*
X156488417Y-133773104D01*
X156488417Y-133773105D01*
X156368140Y-133938650D01*
X156320765Y-134031629D01*
X156272790Y-134082425D01*
X156204969Y-134099220D01*
X156138834Y-134076682D01*
X156099795Y-134031629D01*
X156052419Y-133938650D01*
X156052287Y-133938390D01*
X156044556Y-133927749D01*
X155931971Y-133772786D01*
X155787213Y-133628028D01*
X155621613Y-133507715D01*
X155621612Y-133507714D01*
X155621610Y-133507713D01*
X155558349Y-133475480D01*
X155439223Y-133414781D01*
X155244534Y-133351522D01*
X155044602Y-133319856D01*
X154981467Y-133289927D01*
X154944536Y-133230615D01*
X154940000Y-133197383D01*
X154940000Y-127000000D01*
X130962616Y-127000000D01*
X130895577Y-126980315D01*
X130849822Y-126927511D01*
X130840144Y-126895402D01*
X130808477Y-126695466D01*
X130745220Y-126500781D01*
X130745218Y-126500778D01*
X130745218Y-126500776D01*
X130663833Y-126341051D01*
X130652287Y-126318390D01*
X130637753Y-126298385D01*
X130531971Y-126152786D01*
X130387213Y-126008028D01*
X130221613Y-125887715D01*
X130221612Y-125887714D01*
X130221610Y-125887713D01*
X130158349Y-125855480D01*
X130039223Y-125794781D01*
X129844534Y-125731522D01*
X129669995Y-125703878D01*
X129642352Y-125699500D01*
X129437648Y-125699500D01*
X129413329Y-125703351D01*
X129235465Y-125731522D01*
X129040776Y-125794781D01*
X128858386Y-125887715D01*
X128692786Y-126008028D01*
X128548034Y-126152780D01*
X128548030Y-126152786D01*
X128442246Y-126298386D01*
X128386918Y-126341051D01*
X128341929Y-126349500D01*
X106365808Y-126349500D01*
X106298769Y-126329815D01*
X106278127Y-126313181D01*
X104191819Y-124226873D01*
X104158334Y-124165550D01*
X104155500Y-124139192D01*
X104155500Y-119912648D01*
X120619500Y-119912648D01*
X120619500Y-120117351D01*
X120651522Y-120319534D01*
X120714781Y-120514223D01*
X120761042Y-120605013D01*
X120806887Y-120694989D01*
X120807715Y-120696613D01*
X120928028Y-120862213D01*
X121072786Y-121006971D01*
X121221755Y-121115201D01*
X121238390Y-121127287D01*
X121354607Y-121186503D01*
X121420776Y-121220218D01*
X121420778Y-121220218D01*
X121420781Y-121220220D01*
X121525137Y-121254127D01*
X121615465Y-121283477D01*
X121716557Y-121299488D01*
X121817648Y-121315500D01*
X121817649Y-121315500D01*
X122022351Y-121315500D01*
X122022352Y-121315500D01*
X122224534Y-121283477D01*
X122270680Y-121268482D01*
X122340518Y-121266487D01*
X122356450Y-121271854D01*
X122365249Y-121275499D01*
X122365260Y-121275502D01*
X122490928Y-121300500D01*
X122490931Y-121300500D01*
X130239071Y-121300500D01*
X130324647Y-121283477D01*
X130364744Y-121275501D01*
X130483127Y-121226465D01*
X130492466Y-121220224D01*
X130492474Y-121220222D01*
X130492473Y-121220220D01*
X130492476Y-121220218D01*
X130589669Y-121155277D01*
X131239097Y-120505847D01*
X131300420Y-120472363D01*
X131370111Y-120477347D01*
X131393985Y-120490162D01*
X131394242Y-120489744D01*
X131398385Y-120492283D01*
X131398391Y-120492287D01*
X131441435Y-120514219D01*
X131580777Y-120585218D01*
X131580779Y-120585218D01*
X131580782Y-120585220D01*
X131641699Y-120605013D01*
X131775466Y-120648477D01*
X131876558Y-120664488D01*
X131977649Y-120680500D01*
X131977650Y-120680500D01*
X132182352Y-120680500D01*
X132182353Y-120680500D01*
X132384535Y-120648477D01*
X132579220Y-120585220D01*
X132761611Y-120492287D01*
X132857902Y-120422328D01*
X132927214Y-120371971D01*
X132927216Y-120371968D01*
X132927220Y-120371966D01*
X133071967Y-120227219D01*
X133071969Y-120227215D01*
X133071972Y-120227213D01*
X133192287Y-120061611D01*
X133192421Y-120061349D01*
X133239516Y-119968919D01*
X133287489Y-119918125D01*
X133355310Y-119901329D01*
X133421445Y-119923866D01*
X133460485Y-119968920D01*
X133507715Y-120061613D01*
X133628028Y-120227213D01*
X133772786Y-120371971D01*
X133910967Y-120472363D01*
X133938390Y-120492287D01*
X134027212Y-120537544D01*
X134120776Y-120585218D01*
X134120778Y-120585218D01*
X134120781Y-120585220D01*
X134181698Y-120605013D01*
X134315465Y-120648477D01*
X134416557Y-120664488D01*
X134517648Y-120680500D01*
X134517649Y-120680500D01*
X134722351Y-120680500D01*
X134722352Y-120680500D01*
X134924534Y-120648477D01*
X135119219Y-120585220D01*
X135301610Y-120492287D01*
X135397901Y-120422328D01*
X135467213Y-120371971D01*
X135467215Y-120371968D01*
X135467219Y-120371966D01*
X135611966Y-120227219D01*
X135611968Y-120227215D01*
X135611971Y-120227213D01*
X135732284Y-120061614D01*
X135732286Y-120061611D01*
X135732287Y-120061610D01*
X135779516Y-119968917D01*
X135827489Y-119918123D01*
X135895310Y-119901328D01*
X135961445Y-119923865D01*
X136000483Y-119968917D01*
X136044348Y-120055006D01*
X136047715Y-120061614D01*
X136168028Y-120227213D01*
X136312786Y-120371971D01*
X136450967Y-120472363D01*
X136478390Y-120492287D01*
X136567212Y-120537544D01*
X136660776Y-120585218D01*
X136660778Y-120585218D01*
X136660781Y-120585220D01*
X136721698Y-120605013D01*
X136855465Y-120648477D01*
X136956557Y-120664488D01*
X137057648Y-120680500D01*
X137057649Y-120680500D01*
X137262351Y-120680500D01*
X137262352Y-120680500D01*
X137464534Y-120648477D01*
X137659219Y-120585220D01*
X137841610Y-120492287D01*
X137937901Y-120422328D01*
X138007213Y-120371971D01*
X138007215Y-120371968D01*
X138007219Y-120371966D01*
X138151966Y-120227219D01*
X138151968Y-120227215D01*
X138151971Y-120227213D01*
X138272284Y-120061614D01*
X138272286Y-120061611D01*
X138272287Y-120061610D01*
X138319516Y-119968917D01*
X138367489Y-119918123D01*
X138435310Y-119901328D01*
X138501445Y-119923865D01*
X138540483Y-119968917D01*
X138584348Y-120055006D01*
X138587715Y-120061614D01*
X138708028Y-120227213D01*
X138852786Y-120371971D01*
X138990967Y-120472363D01*
X139018390Y-120492287D01*
X139107212Y-120537544D01*
X139200776Y-120585218D01*
X139200778Y-120585218D01*
X139200781Y-120585220D01*
X139261698Y-120605013D01*
X139395465Y-120648477D01*
X139496557Y-120664488D01*
X139597648Y-120680500D01*
X139597649Y-120680500D01*
X139802351Y-120680500D01*
X139802352Y-120680500D01*
X140004534Y-120648477D01*
X140199219Y-120585220D01*
X140381610Y-120492287D01*
X140477901Y-120422328D01*
X140547213Y-120371971D01*
X140547215Y-120371968D01*
X140547219Y-120371966D01*
X140691966Y-120227219D01*
X140691968Y-120227215D01*
X140691971Y-120227213D01*
X140812286Y-120061611D01*
X140812420Y-120061349D01*
X140859515Y-119968919D01*
X140907488Y-119918125D01*
X140975309Y-119901329D01*
X141041444Y-119923866D01*
X141080484Y-119968920D01*
X141127714Y-120061613D01*
X141248027Y-120227213D01*
X141392785Y-120371971D01*
X141530966Y-120472363D01*
X141558389Y-120492287D01*
X141647211Y-120537544D01*
X141740775Y-120585218D01*
X141740777Y-120585218D01*
X141740780Y-120585220D01*
X141801697Y-120605013D01*
X141935464Y-120648477D01*
X142036556Y-120664488D01*
X142137647Y-120680500D01*
X142137648Y-120680500D01*
X142342350Y-120680500D01*
X142342351Y-120680500D01*
X142544533Y-120648477D01*
X142739218Y-120585220D01*
X142921609Y-120492287D01*
X143017900Y-120422328D01*
X143087212Y-120371971D01*
X143087214Y-120371968D01*
X143087218Y-120371966D01*
X143231965Y-120227219D01*
X143231967Y-120227215D01*
X143231970Y-120227213D01*
X143352285Y-120061611D01*
X143352286Y-120061610D01*
X143399515Y-119968917D01*
X143447488Y-119918123D01*
X143515309Y-119901327D01*
X143581444Y-119923864D01*
X143620484Y-119968918D01*
X143667715Y-120061613D01*
X143788028Y-120227213D01*
X143932786Y-120371971D01*
X144070967Y-120472363D01*
X144098390Y-120492287D01*
X144187212Y-120537544D01*
X144280776Y-120585218D01*
X144280778Y-120585218D01*
X144280781Y-120585220D01*
X144341698Y-120605013D01*
X144475465Y-120648477D01*
X144576557Y-120664488D01*
X144677648Y-120680500D01*
X144677649Y-120680500D01*
X144882351Y-120680500D01*
X144882352Y-120680500D01*
X145084534Y-120648477D01*
X145279219Y-120585220D01*
X145461610Y-120492287D01*
X145557901Y-120422328D01*
X145627213Y-120371971D01*
X145627215Y-120371968D01*
X145627219Y-120371966D01*
X145771966Y-120227219D01*
X145771968Y-120227215D01*
X145771971Y-120227213D01*
X145892284Y-120061614D01*
X145892286Y-120061611D01*
X145892287Y-120061610D01*
X145939516Y-119968917D01*
X145987489Y-119918123D01*
X146055310Y-119901328D01*
X146121445Y-119923865D01*
X146160483Y-119968917D01*
X146204348Y-120055006D01*
X146207715Y-120061614D01*
X146328028Y-120227213D01*
X146472786Y-120371971D01*
X146610967Y-120472363D01*
X146638390Y-120492287D01*
X146727212Y-120537544D01*
X146820776Y-120585218D01*
X146820778Y-120585218D01*
X146820781Y-120585220D01*
X146881698Y-120605013D01*
X147015465Y-120648477D01*
X147116557Y-120664488D01*
X147217648Y-120680500D01*
X147217649Y-120680500D01*
X147422351Y-120680500D01*
X147422352Y-120680500D01*
X147624534Y-120648477D01*
X147819219Y-120585220D01*
X148001610Y-120492287D01*
X148097901Y-120422328D01*
X148167213Y-120371971D01*
X148167215Y-120371968D01*
X148167219Y-120371966D01*
X148311966Y-120227219D01*
X148311968Y-120227215D01*
X148311971Y-120227213D01*
X148432284Y-120061614D01*
X148432286Y-120061611D01*
X148432287Y-120061610D01*
X148479516Y-119968917D01*
X148527489Y-119918123D01*
X148595310Y-119901328D01*
X148661445Y-119923865D01*
X148700483Y-119968917D01*
X148744348Y-120055006D01*
X148747715Y-120061614D01*
X148868028Y-120227213D01*
X149012786Y-120371971D01*
X149150967Y-120472363D01*
X149178390Y-120492287D01*
X149267212Y-120537544D01*
X149360776Y-120585218D01*
X149360778Y-120585218D01*
X149360781Y-120585220D01*
X149421698Y-120605013D01*
X149555465Y-120648477D01*
X149656557Y-120664488D01*
X149757648Y-120680500D01*
X149757649Y-120680500D01*
X149962351Y-120680500D01*
X149962352Y-120680500D01*
X150164534Y-120648477D01*
X150359219Y-120585220D01*
X150541610Y-120492287D01*
X150637901Y-120422328D01*
X150707213Y-120371971D01*
X150707215Y-120371968D01*
X150707219Y-120371966D01*
X150851966Y-120227219D01*
X150851968Y-120227215D01*
X150851971Y-120227213D01*
X150972284Y-120061614D01*
X150972286Y-120061611D01*
X150972287Y-120061610D01*
X151019795Y-119968369D01*
X151067770Y-119917574D01*
X151135591Y-119900779D01*
X151201725Y-119923316D01*
X151240765Y-119968370D01*
X151288140Y-120061349D01*
X151408417Y-120226894D01*
X151408417Y-120226895D01*
X151553104Y-120371582D01*
X151718650Y-120491859D01*
X151900968Y-120584754D01*
X152095578Y-120647988D01*
X152150000Y-120656607D01*
X152150000Y-119813012D01*
X152207007Y-119845925D01*
X152334174Y-119880000D01*
X152465826Y-119880000D01*
X152592993Y-119845925D01*
X152650000Y-119813012D01*
X152650000Y-120656606D01*
X152704421Y-120647988D01*
X152899031Y-120584754D01*
X153081349Y-120491859D01*
X153246894Y-120371582D01*
X153246895Y-120371582D01*
X153391582Y-120226895D01*
X153391582Y-120226894D01*
X153511861Y-120061347D01*
X153559235Y-119968370D01*
X153607209Y-119917573D01*
X153675030Y-119900778D01*
X153741165Y-119923315D01*
X153780205Y-119968369D01*
X153827716Y-120061613D01*
X153948029Y-120227213D01*
X154092787Y-120371971D01*
X154230968Y-120472363D01*
X154258391Y-120492287D01*
X154347213Y-120537544D01*
X154440777Y-120585218D01*
X154440779Y-120585218D01*
X154440782Y-120585220D01*
X154501699Y-120605013D01*
X154635466Y-120648477D01*
X154736558Y-120664488D01*
X154837649Y-120680500D01*
X154837650Y-120680500D01*
X155042352Y-120680500D01*
X155042353Y-120680500D01*
X155244535Y-120648477D01*
X155439220Y-120585220D01*
X155621611Y-120492287D01*
X155717902Y-120422328D01*
X155787214Y-120371971D01*
X155787216Y-120371968D01*
X155787220Y-120371966D01*
X155931967Y-120227219D01*
X155931969Y-120227215D01*
X155931972Y-120227213D01*
X156052287Y-120061611D01*
X156052421Y-120061349D01*
X156099516Y-119968919D01*
X156147489Y-119918125D01*
X156215310Y-119901329D01*
X156281445Y-119923866D01*
X156320485Y-119968920D01*
X156367715Y-120061613D01*
X156488028Y-120227213D01*
X156632786Y-120371971D01*
X156770967Y-120472363D01*
X156798390Y-120492287D01*
X156887212Y-120537544D01*
X156980776Y-120585218D01*
X156980778Y-120585218D01*
X156980781Y-120585220D01*
X157041698Y-120605013D01*
X157175465Y-120648477D01*
X157276557Y-120664488D01*
X157377648Y-120680500D01*
X157377649Y-120680500D01*
X157582351Y-120680500D01*
X157582352Y-120680500D01*
X157784534Y-120648477D01*
X157979219Y-120585220D01*
X158161610Y-120492287D01*
X158257901Y-120422328D01*
X158327213Y-120371971D01*
X158327215Y-120371968D01*
X158327219Y-120371966D01*
X158471966Y-120227219D01*
X158498330Y-120190930D01*
X158553658Y-120148265D01*
X158623271Y-120142284D01*
X158685067Y-120174889D01*
X158719426Y-120235726D01*
X158721938Y-120250559D01*
X158725907Y-120287480D01*
X158776202Y-120422328D01*
X158776206Y-120422335D01*
X158862452Y-120537544D01*
X158862455Y-120537547D01*
X158977664Y-120623793D01*
X158977671Y-120623797D01*
X159112517Y-120674091D01*
X159112516Y-120674091D01*
X159117493Y-120674626D01*
X159172127Y-120680500D01*
X160867872Y-120680499D01*
X160927483Y-120674091D01*
X161062331Y-120623796D01*
X161177546Y-120537546D01*
X161263796Y-120422331D01*
X161314091Y-120287483D01*
X161320500Y-120227873D01*
X161320499Y-118532128D01*
X161314091Y-118472517D01*
X161306873Y-118453165D01*
X161263797Y-118337671D01*
X161263793Y-118337664D01*
X161177547Y-118222455D01*
X161177544Y-118222452D01*
X161062335Y-118136206D01*
X161062328Y-118136202D01*
X160927482Y-118085908D01*
X160927483Y-118085908D01*
X160867883Y-118079501D01*
X160867881Y-118079500D01*
X160867873Y-118079500D01*
X160867864Y-118079500D01*
X159172129Y-118079500D01*
X159172123Y-118079501D01*
X159112516Y-118085908D01*
X158977671Y-118136202D01*
X158977664Y-118136206D01*
X158862455Y-118222452D01*
X158862452Y-118222455D01*
X158776206Y-118337664D01*
X158776202Y-118337671D01*
X158725908Y-118472516D01*
X158721939Y-118509440D01*
X158695201Y-118573991D01*
X158637809Y-118613839D01*
X158567983Y-118616332D01*
X158507895Y-118580679D01*
X158498332Y-118569070D01*
X158471967Y-118532782D01*
X158327213Y-118388028D01*
X158161613Y-118267715D01*
X158161612Y-118267714D01*
X158161610Y-118267713D01*
X158077536Y-118224875D01*
X157979223Y-118174781D01*
X157784534Y-118111522D01*
X157609995Y-118083878D01*
X157582352Y-118079500D01*
X157377648Y-118079500D01*
X157353329Y-118083351D01*
X157175465Y-118111522D01*
X156980776Y-118174781D01*
X156798386Y-118267715D01*
X156632786Y-118388028D01*
X156488028Y-118532786D01*
X156367712Y-118698389D01*
X156367711Y-118698391D01*
X156320484Y-118791079D01*
X156272510Y-118841875D01*
X156204689Y-118858670D01*
X156138554Y-118836132D01*
X156099515Y-118791079D01*
X156076812Y-118746522D01*
X156052288Y-118698390D01*
X156052286Y-118698387D01*
X156052285Y-118698385D01*
X155931972Y-118532786D01*
X155787214Y-118388028D01*
X155621614Y-118267715D01*
X155621613Y-118267714D01*
X155621611Y-118267713D01*
X155537537Y-118224875D01*
X155439224Y-118174781D01*
X155244535Y-118111522D01*
X155069996Y-118083878D01*
X155042353Y-118079500D01*
X154837649Y-118079500D01*
X154813330Y-118083351D01*
X154635466Y-118111522D01*
X154440777Y-118174781D01*
X154258387Y-118267715D01*
X154092787Y-118388028D01*
X153948029Y-118532786D01*
X153827714Y-118698388D01*
X153780204Y-118791631D01*
X153732230Y-118842426D01*
X153664408Y-118859221D01*
X153598274Y-118836683D01*
X153559235Y-118791630D01*
X153511859Y-118698650D01*
X153391582Y-118533105D01*
X153391582Y-118533104D01*
X153246895Y-118388417D01*
X153081349Y-118268140D01*
X152899029Y-118175244D01*
X152704413Y-118112009D01*
X152650000Y-118103390D01*
X152650000Y-118946988D01*
X152592993Y-118914075D01*
X152465826Y-118880000D01*
X152334174Y-118880000D01*
X152207007Y-118914075D01*
X152150000Y-118946988D01*
X152150000Y-118103390D01*
X152095586Y-118112009D01*
X151900970Y-118175244D01*
X151718650Y-118268140D01*
X151553105Y-118388417D01*
X151553104Y-118388417D01*
X151408417Y-118533104D01*
X151408417Y-118533105D01*
X151288140Y-118698650D01*
X151240765Y-118791629D01*
X151192790Y-118842425D01*
X151124969Y-118859220D01*
X151058834Y-118836682D01*
X151019795Y-118791629D01*
X150996812Y-118746523D01*
X150972287Y-118698390D01*
X150910858Y-118613839D01*
X150851971Y-118532786D01*
X150707213Y-118388028D01*
X150541613Y-118267715D01*
X150541612Y-118267714D01*
X150541610Y-118267713D01*
X150457536Y-118224875D01*
X150359223Y-118174781D01*
X150164534Y-118111522D01*
X149989995Y-118083878D01*
X149962352Y-118079500D01*
X149757648Y-118079500D01*
X149733329Y-118083351D01*
X149555465Y-118111522D01*
X149360776Y-118174781D01*
X149178386Y-118267715D01*
X149012786Y-118388028D01*
X148868028Y-118532786D01*
X148747715Y-118698386D01*
X148700485Y-118791080D01*
X148652510Y-118841876D01*
X148584689Y-118858671D01*
X148518554Y-118836134D01*
X148479515Y-118791080D01*
X148456812Y-118746523D01*
X148432287Y-118698390D01*
X148370858Y-118613839D01*
X148311971Y-118532786D01*
X148167213Y-118388028D01*
X148001613Y-118267715D01*
X148001612Y-118267714D01*
X148001610Y-118267713D01*
X147917536Y-118224875D01*
X147819223Y-118174781D01*
X147624534Y-118111522D01*
X147449995Y-118083878D01*
X147422352Y-118079500D01*
X147217648Y-118079500D01*
X147193329Y-118083351D01*
X147015465Y-118111522D01*
X146820776Y-118174781D01*
X146638386Y-118267715D01*
X146472786Y-118388028D01*
X146328028Y-118532786D01*
X146207715Y-118698386D01*
X146160485Y-118791080D01*
X146112510Y-118841876D01*
X146044689Y-118858671D01*
X145978554Y-118836134D01*
X145939515Y-118791080D01*
X145916812Y-118746523D01*
X145892287Y-118698390D01*
X145830858Y-118613839D01*
X145771971Y-118532786D01*
X145627213Y-118388028D01*
X145461613Y-118267715D01*
X145461612Y-118267714D01*
X145461610Y-118267713D01*
X145377536Y-118224875D01*
X145279223Y-118174781D01*
X145084534Y-118111522D01*
X144909995Y-118083878D01*
X144882352Y-118079500D01*
X144677648Y-118079500D01*
X144653329Y-118083351D01*
X144475465Y-118111522D01*
X144280776Y-118174781D01*
X144098386Y-118267715D01*
X143932786Y-118388028D01*
X143788028Y-118532786D01*
X143667712Y-118698389D01*
X143667711Y-118698391D01*
X143620483Y-118791081D01*
X143572509Y-118841877D01*
X143504688Y-118858672D01*
X143438553Y-118836134D01*
X143399514Y-118791081D01*
X143399513Y-118791080D01*
X143352286Y-118698390D01*
X143352284Y-118698387D01*
X143352283Y-118698385D01*
X143231970Y-118532786D01*
X143087212Y-118388028D01*
X142921612Y-118267715D01*
X142921611Y-118267714D01*
X142921609Y-118267713D01*
X142837535Y-118224875D01*
X142739222Y-118174781D01*
X142544533Y-118111522D01*
X142369994Y-118083878D01*
X142342351Y-118079500D01*
X142137647Y-118079500D01*
X142113328Y-118083351D01*
X141935464Y-118111522D01*
X141740775Y-118174781D01*
X141558385Y-118267715D01*
X141392785Y-118388028D01*
X141248027Y-118532786D01*
X141127711Y-118698389D01*
X141127710Y-118698391D01*
X141080483Y-118791079D01*
X141032509Y-118841875D01*
X140964688Y-118858670D01*
X140898553Y-118836132D01*
X140859514Y-118791079D01*
X140836811Y-118746522D01*
X140812287Y-118698390D01*
X140812285Y-118698387D01*
X140812284Y-118698385D01*
X140691971Y-118532786D01*
X140547213Y-118388028D01*
X140381613Y-118267715D01*
X140381612Y-118267714D01*
X140381610Y-118267713D01*
X140297536Y-118224875D01*
X140199223Y-118174781D01*
X140004534Y-118111522D01*
X139829995Y-118083878D01*
X139802352Y-118079500D01*
X139597648Y-118079500D01*
X139573329Y-118083351D01*
X139395465Y-118111522D01*
X139200776Y-118174781D01*
X139018386Y-118267715D01*
X138852786Y-118388028D01*
X138708028Y-118532786D01*
X138587715Y-118698386D01*
X138540485Y-118791080D01*
X138492510Y-118841876D01*
X138424689Y-118858671D01*
X138358554Y-118836134D01*
X138319515Y-118791080D01*
X138296812Y-118746523D01*
X138272287Y-118698390D01*
X138210858Y-118613839D01*
X138151971Y-118532786D01*
X138007213Y-118388028D01*
X137841613Y-118267715D01*
X137841612Y-118267714D01*
X137841610Y-118267713D01*
X137757536Y-118224875D01*
X137659223Y-118174781D01*
X137464534Y-118111522D01*
X137289995Y-118083878D01*
X137262352Y-118079500D01*
X137057648Y-118079500D01*
X137033329Y-118083351D01*
X136855465Y-118111522D01*
X136660776Y-118174781D01*
X136478386Y-118267715D01*
X136312786Y-118388028D01*
X136168028Y-118532786D01*
X136047715Y-118698386D01*
X136000485Y-118791080D01*
X135952510Y-118841876D01*
X135884689Y-118858671D01*
X135818554Y-118836134D01*
X135779515Y-118791080D01*
X135756812Y-118746523D01*
X135732287Y-118698390D01*
X135670858Y-118613839D01*
X135611971Y-118532786D01*
X135467217Y-118388032D01*
X135467212Y-118388028D01*
X135321615Y-118282246D01*
X135278949Y-118226916D01*
X135270500Y-118181928D01*
X135270500Y-118045928D01*
X135245502Y-117920261D01*
X135245501Y-117920260D01*
X135245501Y-117920256D01*
X135212465Y-117840500D01*
X135202943Y-117817512D01*
X135196469Y-117801881D01*
X135196468Y-117801880D01*
X135196466Y-117801874D01*
X135125277Y-117695331D01*
X135125272Y-117695325D01*
X134399673Y-116969726D01*
X134382269Y-116958097D01*
X134293127Y-116898535D01*
X134174744Y-116849499D01*
X134174738Y-116849497D01*
X134049071Y-116824500D01*
X134049069Y-116824500D01*
X131380931Y-116824500D01*
X131380929Y-116824500D01*
X131255261Y-116849497D01*
X131255251Y-116849500D01*
X131206220Y-116869810D01*
X131136881Y-116898530D01*
X131136863Y-116898540D01*
X131030332Y-116969721D01*
X131030325Y-116969727D01*
X130304726Y-117695326D01*
X130233534Y-117801874D01*
X130184499Y-117920255D01*
X130184497Y-117920261D01*
X130159499Y-118045928D01*
X130158903Y-118051991D01*
X130156971Y-118051800D01*
X130139815Y-118110229D01*
X130087011Y-118155984D01*
X130017853Y-118165928D01*
X129997182Y-118161121D01*
X129844536Y-118111523D01*
X129682816Y-118085909D01*
X129642352Y-118079500D01*
X129437648Y-118079500D01*
X129413329Y-118083351D01*
X129235465Y-118111522D01*
X129040776Y-118174781D01*
X128858386Y-118267715D01*
X128692786Y-118388028D01*
X128548028Y-118532786D01*
X128427715Y-118698386D01*
X128380485Y-118791080D01*
X128332510Y-118841876D01*
X128264689Y-118858671D01*
X128198554Y-118836134D01*
X128159515Y-118791080D01*
X128136812Y-118746523D01*
X128112287Y-118698390D01*
X128050858Y-118613839D01*
X127991971Y-118532786D01*
X127847213Y-118388028D01*
X127681613Y-118267715D01*
X127681612Y-118267714D01*
X127681610Y-118267713D01*
X127597536Y-118224875D01*
X127499223Y-118174781D01*
X127304534Y-118111522D01*
X127129995Y-118083878D01*
X127102352Y-118079500D01*
X126897648Y-118079500D01*
X126873329Y-118083351D01*
X126695465Y-118111522D01*
X126500776Y-118174781D01*
X126318386Y-118267715D01*
X126152786Y-118388028D01*
X126008028Y-118532786D01*
X125887715Y-118698386D01*
X125840485Y-118791080D01*
X125792510Y-118841876D01*
X125724689Y-118858671D01*
X125658554Y-118836134D01*
X125619515Y-118791080D01*
X125596812Y-118746523D01*
X125572287Y-118698390D01*
X125510858Y-118613839D01*
X125451971Y-118532786D01*
X125307213Y-118388028D01*
X125141613Y-118267715D01*
X125141612Y-118267714D01*
X125141610Y-118267713D01*
X125057536Y-118224875D01*
X124959223Y-118174781D01*
X124764534Y-118111522D01*
X124589995Y-118083878D01*
X124562352Y-118079500D01*
X124357648Y-118079500D01*
X124333329Y-118083351D01*
X124155465Y-118111522D01*
X123960776Y-118174781D01*
X123778386Y-118267715D01*
X123612786Y-118388028D01*
X123468028Y-118532786D01*
X123347715Y-118698386D01*
X123254781Y-118880776D01*
X123191523Y-119075464D01*
X123176313Y-119171492D01*
X123146383Y-119234627D01*
X123087071Y-119271557D01*
X123017209Y-119270559D01*
X122958976Y-119231948D01*
X122953521Y-119224977D01*
X122911969Y-119167784D01*
X122767213Y-119023028D01*
X122601613Y-118902715D01*
X122601612Y-118902714D01*
X122601610Y-118902713D01*
X122544653Y-118873691D01*
X122419223Y-118809781D01*
X122224534Y-118746522D01*
X122049995Y-118718878D01*
X122022352Y-118714500D01*
X121817648Y-118714500D01*
X121793329Y-118718351D01*
X121615465Y-118746522D01*
X121420776Y-118809781D01*
X121238386Y-118902715D01*
X121072786Y-119023028D01*
X120928028Y-119167786D01*
X120807715Y-119333386D01*
X120714781Y-119515776D01*
X120651522Y-119710465D01*
X120619500Y-119912648D01*
X104155500Y-119912648D01*
X104155500Y-112887682D01*
X104745000Y-112887682D01*
X104745000Y-113092317D01*
X104777009Y-113294417D01*
X104840244Y-113489031D01*
X104933141Y-113671350D01*
X104933147Y-113671359D01*
X104965523Y-113715921D01*
X104965524Y-113715922D01*
X105645000Y-113036446D01*
X105645000Y-113042661D01*
X105672259Y-113144394D01*
X105724920Y-113235606D01*
X105799394Y-113310080D01*
X105890606Y-113362741D01*
X105992339Y-113390000D01*
X105998553Y-113390000D01*
X105319076Y-114069474D01*
X105363650Y-114101859D01*
X105545968Y-114194755D01*
X105740582Y-114257990D01*
X105942683Y-114290000D01*
X106147317Y-114290000D01*
X106349417Y-114257990D01*
X106544031Y-114194755D01*
X106726349Y-114101859D01*
X106770921Y-114069474D01*
X106091447Y-113390000D01*
X106097661Y-113390000D01*
X106199394Y-113362741D01*
X106290606Y-113310080D01*
X106365080Y-113235606D01*
X106417741Y-113144394D01*
X106445000Y-113042661D01*
X106445000Y-113036448D01*
X107124474Y-113715922D01*
X107124474Y-113715921D01*
X107136054Y-113699983D01*
X107919500Y-113699983D01*
X107919500Y-114900001D01*
X107919501Y-114900018D01*
X107930000Y-115002796D01*
X107930001Y-115002799D01*
X107985185Y-115169331D01*
X107985187Y-115169336D01*
X108020069Y-115225888D01*
X108077288Y-115318656D01*
X108201344Y-115442712D01*
X108350666Y-115534814D01*
X108517203Y-115589999D01*
X108619991Y-115600500D01*
X109820008Y-115600499D01*
X109922797Y-115589999D01*
X110089334Y-115534814D01*
X110238656Y-115442712D01*
X110362712Y-115318656D01*
X110454814Y-115169334D01*
X110481955Y-115087427D01*
X110521726Y-115029984D01*
X110586242Y-115003161D01*
X110655018Y-115015476D01*
X110699977Y-115053547D01*
X110737214Y-115104798D01*
X110768034Y-115147219D01*
X110912786Y-115291971D01*
X111029060Y-115376447D01*
X111078390Y-115412287D01*
X111191034Y-115469682D01*
X111260776Y-115505218D01*
X111260778Y-115505218D01*
X111260781Y-115505220D01*
X111321698Y-115525013D01*
X111455465Y-115568477D01*
X111556557Y-115584488D01*
X111657648Y-115600500D01*
X111657649Y-115600500D01*
X111862351Y-115600500D01*
X111862352Y-115600500D01*
X112064534Y-115568477D01*
X112259219Y-115505220D01*
X112441610Y-115412287D01*
X112570482Y-115318657D01*
X112607213Y-115291971D01*
X112607215Y-115291968D01*
X112607219Y-115291966D01*
X112751966Y-115147219D01*
X112751968Y-115147215D01*
X112751971Y-115147213D01*
X112856894Y-115002797D01*
X112872287Y-114981610D01*
X112919515Y-114888919D01*
X112967488Y-114838125D01*
X113035309Y-114821329D01*
X113101444Y-114843866D01*
X113140484Y-114888920D01*
X113187584Y-114981359D01*
X113187714Y-114981613D01*
X113308027Y-115147213D01*
X113452785Y-115291971D01*
X113569059Y-115376447D01*
X113618389Y-115412287D01*
X113731033Y-115469682D01*
X113800775Y-115505218D01*
X113800777Y-115505218D01*
X113800780Y-115505220D01*
X113861697Y-115525013D01*
X113995464Y-115568477D01*
X114096556Y-115584488D01*
X114197647Y-115600500D01*
X114197648Y-115600500D01*
X114402350Y-115600500D01*
X114402351Y-115600500D01*
X114604533Y-115568477D01*
X114799218Y-115505220D01*
X114981609Y-115412287D01*
X115110481Y-115318657D01*
X115147212Y-115291971D01*
X115147214Y-115291968D01*
X115147218Y-115291966D01*
X115291965Y-115147219D01*
X115291967Y-115147215D01*
X115291970Y-115147213D01*
X115396893Y-115002797D01*
X115412286Y-114981610D01*
X115459515Y-114888917D01*
X115507488Y-114838123D01*
X115575309Y-114821327D01*
X115641444Y-114843864D01*
X115680483Y-114888917D01*
X115727585Y-114981359D01*
X115727715Y-114981613D01*
X115848028Y-115147213D01*
X115992786Y-115291971D01*
X116109060Y-115376447D01*
X116158390Y-115412287D01*
X116271034Y-115469682D01*
X116340776Y-115505218D01*
X116340778Y-115505218D01*
X116340781Y-115505220D01*
X116401698Y-115525013D01*
X116535465Y-115568477D01*
X116636557Y-115584488D01*
X116737648Y-115600500D01*
X116737649Y-115600500D01*
X116942351Y-115600500D01*
X116942352Y-115600500D01*
X117144534Y-115568477D01*
X117339219Y-115505220D01*
X117521610Y-115412287D01*
X117650482Y-115318657D01*
X117687213Y-115291971D01*
X117687215Y-115291968D01*
X117687219Y-115291966D01*
X117831966Y-115147219D01*
X117831968Y-115147215D01*
X117831971Y-115147213D01*
X117952284Y-114981614D01*
X117952286Y-114981611D01*
X117952287Y-114981610D01*
X117999516Y-114888917D01*
X118047489Y-114838123D01*
X118115310Y-114821328D01*
X118181445Y-114843865D01*
X118220483Y-114888917D01*
X118226140Y-114900018D01*
X118267715Y-114981614D01*
X118388028Y-115147213D01*
X118532786Y-115291971D01*
X118649060Y-115376447D01*
X118698390Y-115412287D01*
X118811034Y-115469682D01*
X118880776Y-115505218D01*
X118880778Y-115505218D01*
X118880781Y-115505220D01*
X118941698Y-115525013D01*
X119075465Y-115568477D01*
X119176557Y-115584488D01*
X119277648Y-115600500D01*
X119277649Y-115600500D01*
X119482351Y-115600500D01*
X119482352Y-115600500D01*
X119684534Y-115568477D01*
X119879219Y-115505220D01*
X120061610Y-115412287D01*
X120190482Y-115318657D01*
X120227213Y-115291971D01*
X120227215Y-115291968D01*
X120227219Y-115291966D01*
X120371966Y-115147219D01*
X120371968Y-115147215D01*
X120371971Y-115147213D01*
X120492284Y-114981614D01*
X120492286Y-114981611D01*
X120492287Y-114981610D01*
X120539516Y-114888917D01*
X120587489Y-114838123D01*
X120655310Y-114821328D01*
X120721445Y-114843865D01*
X120760483Y-114888917D01*
X120766140Y-114900018D01*
X120807715Y-114981614D01*
X120928028Y-115147213D01*
X121072786Y-115291971D01*
X121189060Y-115376447D01*
X121238390Y-115412287D01*
X121351034Y-115469682D01*
X121420776Y-115505218D01*
X121420778Y-115505218D01*
X121420781Y-115505220D01*
X121481698Y-115525013D01*
X121615465Y-115568477D01*
X121716557Y-115584488D01*
X121817648Y-115600500D01*
X121817649Y-115600500D01*
X122022351Y-115600500D01*
X122022352Y-115600500D01*
X122224534Y-115568477D01*
X122419219Y-115505220D01*
X122601610Y-115412287D01*
X122730482Y-115318657D01*
X122767213Y-115291971D01*
X122767215Y-115291968D01*
X122767219Y-115291966D01*
X122911966Y-115147219D01*
X122911968Y-115147215D01*
X122911971Y-115147213D01*
X123032284Y-114981614D01*
X123032286Y-114981611D01*
X123032287Y-114981610D01*
X123079516Y-114888917D01*
X123127489Y-114838123D01*
X123195310Y-114821328D01*
X123261445Y-114843865D01*
X123300483Y-114888917D01*
X123306140Y-114900018D01*
X123347715Y-114981614D01*
X123468028Y-115147213D01*
X123612786Y-115291971D01*
X123729060Y-115376447D01*
X123778390Y-115412287D01*
X123891034Y-115469682D01*
X123960776Y-115505218D01*
X123960778Y-115505218D01*
X123960781Y-115505220D01*
X124021698Y-115525013D01*
X124155465Y-115568477D01*
X124256557Y-115584488D01*
X124357648Y-115600500D01*
X124357649Y-115600500D01*
X124562351Y-115600500D01*
X124562352Y-115600500D01*
X124764534Y-115568477D01*
X124959219Y-115505220D01*
X125141610Y-115412287D01*
X125270482Y-115318657D01*
X125307213Y-115291971D01*
X125307215Y-115291968D01*
X125307219Y-115291966D01*
X125451966Y-115147219D01*
X125451968Y-115147215D01*
X125451971Y-115147213D01*
X125556894Y-115002797D01*
X125572287Y-114981610D01*
X125619796Y-114888367D01*
X125667769Y-114837573D01*
X125735589Y-114820777D01*
X125801725Y-114843314D01*
X125840765Y-114888368D01*
X125888142Y-114981350D01*
X125888148Y-114981359D01*
X125920524Y-115025921D01*
X125920525Y-115025922D01*
X126600001Y-114346446D01*
X126600001Y-114352661D01*
X126627260Y-114454394D01*
X126679921Y-114545606D01*
X126754395Y-114620080D01*
X126845607Y-114672741D01*
X126947340Y-114700000D01*
X126953554Y-114700000D01*
X126274077Y-115379474D01*
X126318651Y-115411859D01*
X126500969Y-115504755D01*
X126695583Y-115567990D01*
X126897684Y-115600000D01*
X127102318Y-115600000D01*
X127304418Y-115567990D01*
X127499032Y-115504755D01*
X127681350Y-115411859D01*
X127725922Y-115379474D01*
X127046448Y-114700000D01*
X127052662Y-114700000D01*
X127154395Y-114672741D01*
X127245607Y-114620080D01*
X127320081Y-114545606D01*
X127372742Y-114454394D01*
X127400001Y-114352661D01*
X127400001Y-114346448D01*
X128079475Y-115025922D01*
X128079475Y-115025921D01*
X128111860Y-114981349D01*
X128204756Y-114799031D01*
X128267991Y-114604417D01*
X128300001Y-114402317D01*
X128300001Y-114197688D01*
X128299803Y-114196439D01*
X128299803Y-114196434D01*
X128297501Y-114181902D01*
X166139500Y-114181902D01*
X166139500Y-114418097D01*
X166176446Y-114651368D01*
X166249433Y-114875996D01*
X166325825Y-115025922D01*
X166356657Y-115086433D01*
X166495483Y-115277510D01*
X166662490Y-115444517D01*
X166697127Y-115469683D01*
X166739792Y-115525013D01*
X166745771Y-115594626D01*
X166713165Y-115656421D01*
X166697130Y-115670315D01*
X166679365Y-115683222D01*
X166662488Y-115695484D01*
X166495485Y-115862487D01*
X166495485Y-115862488D01*
X166495483Y-115862490D01*
X166439320Y-115939792D01*
X166356657Y-116053566D01*
X166249433Y-116264003D01*
X166176446Y-116488631D01*
X166139500Y-116721902D01*
X166139500Y-116958097D01*
X166176446Y-117191368D01*
X166249433Y-117415996D01*
X166356657Y-117626433D01*
X166495483Y-117817510D01*
X166662490Y-117984517D01*
X166697127Y-118009683D01*
X166739792Y-118065013D01*
X166745771Y-118134626D01*
X166713165Y-118196421D01*
X166697130Y-118210315D01*
X166680423Y-118222454D01*
X166662488Y-118235484D01*
X166495485Y-118402487D01*
X166495485Y-118402488D01*
X166495483Y-118402490D01*
X166444606Y-118472516D01*
X166356657Y-118593566D01*
X166249433Y-118804003D01*
X166176446Y-119028631D01*
X166139500Y-119261902D01*
X166139500Y-119498097D01*
X166176446Y-119731368D01*
X166249433Y-119955996D01*
X166303249Y-120061614D01*
X166356657Y-120166433D01*
X166495483Y-120357510D01*
X166662490Y-120524517D01*
X166697127Y-120549683D01*
X166739792Y-120605013D01*
X166745771Y-120674626D01*
X166713165Y-120736421D01*
X166697130Y-120750315D01*
X166679365Y-120763222D01*
X166662488Y-120775484D01*
X166495485Y-120942487D01*
X166495485Y-120942488D01*
X166495483Y-120942490D01*
X166448638Y-121006966D01*
X166356657Y-121133566D01*
X166249433Y-121344003D01*
X166176446Y-121568631D01*
X166139500Y-121801902D01*
X166139500Y-122038097D01*
X166176446Y-122271368D01*
X166249433Y-122495996D01*
X166356657Y-122706433D01*
X166495483Y-122897510D01*
X166662490Y-123064517D01*
X166697127Y-123089683D01*
X166739792Y-123145013D01*
X166745771Y-123214626D01*
X166713165Y-123276421D01*
X166697130Y-123290315D01*
X166679365Y-123303222D01*
X166662488Y-123315484D01*
X166495485Y-123482487D01*
X166495485Y-123482488D01*
X166495483Y-123482490D01*
X166439320Y-123559792D01*
X166356657Y-123673566D01*
X166249433Y-123884003D01*
X166176446Y-124108631D01*
X166139500Y-124341902D01*
X166139500Y-124578097D01*
X166176446Y-124811368D01*
X166249433Y-125035996D01*
X166356657Y-125246433D01*
X166495483Y-125437510D01*
X166662490Y-125604517D01*
X166697127Y-125629683D01*
X166739792Y-125685013D01*
X166745771Y-125754626D01*
X166713165Y-125816421D01*
X166697130Y-125830315D01*
X166679365Y-125843222D01*
X166662488Y-125855484D01*
X166495485Y-126022487D01*
X166495485Y-126022488D01*
X166495483Y-126022490D01*
X166439320Y-126099792D01*
X166356657Y-126213566D01*
X166249433Y-126424003D01*
X166176446Y-126648631D01*
X166139500Y-126881902D01*
X166139500Y-127118097D01*
X166176446Y-127351368D01*
X166249433Y-127575996D01*
X166303247Y-127681610D01*
X166356657Y-127786433D01*
X166495483Y-127977510D01*
X166662490Y-128144517D01*
X166697127Y-128169683D01*
X166739792Y-128225013D01*
X166745771Y-128294626D01*
X166713165Y-128356421D01*
X166697130Y-128370315D01*
X166679365Y-128383222D01*
X166662488Y-128395484D01*
X166495485Y-128562487D01*
X166495485Y-128562488D01*
X166495483Y-128562490D01*
X166439320Y-128639792D01*
X166356657Y-128753566D01*
X166249433Y-128964003D01*
X166176446Y-129188631D01*
X166139500Y-129421902D01*
X166139500Y-129658097D01*
X166176446Y-129891368D01*
X166249433Y-130115996D01*
X166356657Y-130326433D01*
X166495483Y-130517510D01*
X166662490Y-130684517D01*
X166697127Y-130709683D01*
X166739792Y-130765013D01*
X166745771Y-130834626D01*
X166713165Y-130896421D01*
X166697130Y-130910315D01*
X166679365Y-130923222D01*
X166662488Y-130935484D01*
X166495485Y-131102487D01*
X166495485Y-131102488D01*
X166495483Y-131102490D01*
X166439320Y-131179792D01*
X166356657Y-131293566D01*
X166249433Y-131504003D01*
X166176446Y-131728631D01*
X166139500Y-131961902D01*
X166139500Y-132198097D01*
X166176446Y-132431368D01*
X166249433Y-132655996D01*
X166356657Y-132866433D01*
X166495483Y-133057510D01*
X166662490Y-133224517D01*
X166697127Y-133249683D01*
X166739792Y-133305013D01*
X166745771Y-133374626D01*
X166713165Y-133436421D01*
X166697130Y-133450315D01*
X166679365Y-133463222D01*
X166662488Y-133475484D01*
X166495485Y-133642487D01*
X166495485Y-133642488D01*
X166495483Y-133642490D01*
X166439320Y-133719792D01*
X166356657Y-133833566D01*
X166249433Y-134044003D01*
X166176446Y-134268631D01*
X166139500Y-134501902D01*
X166139500Y-134738097D01*
X166176446Y-134971368D01*
X166249433Y-135195996D01*
X166303249Y-135301614D01*
X166356657Y-135406433D01*
X166495483Y-135597510D01*
X166662490Y-135764517D01*
X166697127Y-135789683D01*
X166739792Y-135845013D01*
X166745771Y-135914626D01*
X166713165Y-135976421D01*
X166697130Y-135990315D01*
X166679365Y-136003222D01*
X166662488Y-136015484D01*
X166495485Y-136182487D01*
X166495485Y-136182488D01*
X166495483Y-136182490D01*
X166439320Y-136259792D01*
X166356657Y-136373566D01*
X166249433Y-136584003D01*
X166176446Y-136808631D01*
X166139500Y-137041902D01*
X166139500Y-137278097D01*
X166176446Y-137511368D01*
X166249433Y-137735996D01*
X166356657Y-137946433D01*
X166495483Y-138137510D01*
X166662490Y-138304517D01*
X166697127Y-138329683D01*
X166739792Y-138385013D01*
X166745771Y-138454626D01*
X166713165Y-138516421D01*
X166697130Y-138530315D01*
X166679365Y-138543222D01*
X166662488Y-138555484D01*
X166495485Y-138722487D01*
X166495485Y-138722488D01*
X166495483Y-138722490D01*
X166439320Y-138799792D01*
X166356657Y-138913566D01*
X166249433Y-139124003D01*
X166176446Y-139348631D01*
X166139500Y-139581902D01*
X166139500Y-139818097D01*
X166176446Y-140051368D01*
X166249433Y-140275996D01*
X166356657Y-140486433D01*
X166495483Y-140677510D01*
X166662490Y-140844517D01*
X166853567Y-140983343D01*
X166952991Y-141034002D01*
X167064003Y-141090566D01*
X167064005Y-141090566D01*
X167064008Y-141090568D01*
X167172939Y-141125962D01*
X167288631Y-141163553D01*
X167521903Y-141200500D01*
X167521908Y-141200500D01*
X167758097Y-141200500D01*
X167991368Y-141163553D01*
X168215992Y-141090568D01*
X168426433Y-140983343D01*
X168617510Y-140844517D01*
X168784517Y-140677510D01*
X168809682Y-140642872D01*
X168865011Y-140600207D01*
X168934625Y-140594228D01*
X168996420Y-140626833D01*
X169010315Y-140642870D01*
X169035483Y-140677510D01*
X169202490Y-140844517D01*
X169393567Y-140983343D01*
X169492991Y-141034002D01*
X169604003Y-141090566D01*
X169604005Y-141090566D01*
X169604008Y-141090568D01*
X169712939Y-141125962D01*
X169828631Y-141163553D01*
X170061903Y-141200500D01*
X170061908Y-141200500D01*
X170298097Y-141200500D01*
X170531368Y-141163553D01*
X170755992Y-141090568D01*
X170966433Y-140983343D01*
X171157510Y-140844517D01*
X171324517Y-140677510D01*
X171349682Y-140642872D01*
X171405011Y-140600207D01*
X171474625Y-140594228D01*
X171536420Y-140626833D01*
X171550315Y-140642870D01*
X171575483Y-140677510D01*
X171742490Y-140844517D01*
X171933567Y-140983343D01*
X172032991Y-141034002D01*
X172144003Y-141090566D01*
X172144005Y-141090566D01*
X172144008Y-141090568D01*
X172252939Y-141125962D01*
X172368631Y-141163553D01*
X172601903Y-141200500D01*
X172601908Y-141200500D01*
X172838097Y-141200500D01*
X173071368Y-141163553D01*
X173295992Y-141090568D01*
X173506433Y-140983343D01*
X173697510Y-140844517D01*
X173864517Y-140677510D01*
X173889682Y-140642872D01*
X173945011Y-140600207D01*
X174014625Y-140594228D01*
X174076420Y-140626833D01*
X174090315Y-140642870D01*
X174115483Y-140677510D01*
X174282490Y-140844517D01*
X174473567Y-140983343D01*
X174572991Y-141034002D01*
X174684003Y-141090566D01*
X174684005Y-141090566D01*
X174684008Y-141090568D01*
X174792939Y-141125962D01*
X174908631Y-141163553D01*
X175141903Y-141200500D01*
X175141908Y-141200500D01*
X175378097Y-141200500D01*
X175611368Y-141163553D01*
X175835992Y-141090568D01*
X176046433Y-140983343D01*
X176237510Y-140844517D01*
X176404517Y-140677510D01*
X176429682Y-140642872D01*
X176485011Y-140600207D01*
X176554625Y-140594228D01*
X176616420Y-140626833D01*
X176630315Y-140642870D01*
X176655483Y-140677510D01*
X176822490Y-140844517D01*
X177013567Y-140983343D01*
X177112991Y-141034002D01*
X177224003Y-141090566D01*
X177224005Y-141090566D01*
X177224008Y-141090568D01*
X177332939Y-141125962D01*
X177448631Y-141163553D01*
X177681903Y-141200500D01*
X177681908Y-141200500D01*
X177918097Y-141200500D01*
X178151368Y-141163553D01*
X178375992Y-141090568D01*
X178586433Y-140983343D01*
X178777510Y-140844517D01*
X178944517Y-140677510D01*
X178969682Y-140642872D01*
X179025011Y-140600207D01*
X179094625Y-140594228D01*
X179156420Y-140626833D01*
X179170315Y-140642870D01*
X179195483Y-140677510D01*
X179362490Y-140844517D01*
X179553567Y-140983343D01*
X179652991Y-141034002D01*
X179764003Y-141090566D01*
X179764005Y-141090566D01*
X179764008Y-141090568D01*
X179872939Y-141125962D01*
X179988631Y-141163553D01*
X180221903Y-141200500D01*
X180221908Y-141200500D01*
X180458097Y-141200500D01*
X180691368Y-141163553D01*
X180915992Y-141090568D01*
X181126433Y-140983343D01*
X181317510Y-140844517D01*
X181484517Y-140677510D01*
X181509682Y-140642872D01*
X181565011Y-140600207D01*
X181634625Y-140594228D01*
X181696420Y-140626833D01*
X181710315Y-140642870D01*
X181735483Y-140677510D01*
X181902490Y-140844517D01*
X182093567Y-140983343D01*
X182192991Y-141034002D01*
X182304003Y-141090566D01*
X182304005Y-141090566D01*
X182304008Y-141090568D01*
X182412939Y-141125962D01*
X182528631Y-141163553D01*
X182761903Y-141200500D01*
X182761908Y-141200500D01*
X182998097Y-141200500D01*
X183231368Y-141163553D01*
X183455992Y-141090568D01*
X183666433Y-140983343D01*
X183857510Y-140844517D01*
X184024517Y-140677510D01*
X184049682Y-140642872D01*
X184105011Y-140600207D01*
X184174625Y-140594228D01*
X184236420Y-140626833D01*
X184250315Y-140642870D01*
X184275483Y-140677510D01*
X184442490Y-140844517D01*
X184633567Y-140983343D01*
X184732991Y-141034002D01*
X184844003Y-141090566D01*
X184844005Y-141090566D01*
X184844008Y-141090568D01*
X184952939Y-141125962D01*
X185068631Y-141163553D01*
X185301903Y-141200500D01*
X185301908Y-141200500D01*
X185538097Y-141200500D01*
X185771368Y-141163553D01*
X185995992Y-141090568D01*
X186206433Y-140983343D01*
X186397510Y-140844517D01*
X186564517Y-140677510D01*
X186589682Y-140642872D01*
X186645011Y-140600207D01*
X186714625Y-140594228D01*
X186776420Y-140626833D01*
X186790315Y-140642870D01*
X186815483Y-140677510D01*
X186982490Y-140844517D01*
X187173567Y-140983343D01*
X187272991Y-141034002D01*
X187384003Y-141090566D01*
X187384005Y-141090566D01*
X187384008Y-141090568D01*
X187492939Y-141125962D01*
X187608631Y-141163553D01*
X187841903Y-141200500D01*
X187841908Y-141200500D01*
X188078097Y-141200500D01*
X188311368Y-141163553D01*
X188535992Y-141090568D01*
X188746433Y-140983343D01*
X188937510Y-140844517D01*
X189104517Y-140677510D01*
X189129682Y-140642872D01*
X189185011Y-140600207D01*
X189254625Y-140594228D01*
X189316420Y-140626833D01*
X189330315Y-140642870D01*
X189355483Y-140677510D01*
X189522490Y-140844517D01*
X189713567Y-140983343D01*
X189812991Y-141034002D01*
X189924003Y-141090566D01*
X189924005Y-141090566D01*
X189924008Y-141090568D01*
X190032939Y-141125962D01*
X190148631Y-141163553D01*
X190381903Y-141200500D01*
X190381908Y-141200500D01*
X190618097Y-141200500D01*
X190851368Y-141163553D01*
X191075992Y-141090568D01*
X191286433Y-140983343D01*
X191477510Y-140844517D01*
X191644517Y-140677510D01*
X191669682Y-140642872D01*
X191725011Y-140600207D01*
X191794625Y-140594228D01*
X191856420Y-140626833D01*
X191870315Y-140642870D01*
X191895483Y-140677510D01*
X192062490Y-140844517D01*
X192253567Y-140983343D01*
X192352991Y-141034002D01*
X192464003Y-141090566D01*
X192464005Y-141090566D01*
X192464008Y-141090568D01*
X192572939Y-141125962D01*
X192688631Y-141163553D01*
X192921903Y-141200500D01*
X192921908Y-141200500D01*
X193158097Y-141200500D01*
X193391368Y-141163553D01*
X193615992Y-141090568D01*
X193826433Y-140983343D01*
X194017510Y-140844517D01*
X194184517Y-140677510D01*
X194323343Y-140486433D01*
X194430568Y-140275992D01*
X194503553Y-140051368D01*
X194518445Y-139957344D01*
X194540500Y-139818097D01*
X194540500Y-139581902D01*
X194503553Y-139348631D01*
X194430566Y-139124003D01*
X194323342Y-138913566D01*
X194309999Y-138895201D01*
X194184517Y-138722490D01*
X194017510Y-138555483D01*
X193982872Y-138530317D01*
X193940207Y-138474989D01*
X193934228Y-138405375D01*
X193966833Y-138343580D01*
X193982873Y-138329682D01*
X194017510Y-138304517D01*
X194184517Y-138137510D01*
X194323343Y-137946433D01*
X194430568Y-137735992D01*
X194503553Y-137511368D01*
X194540500Y-137278097D01*
X194540500Y-137041902D01*
X194503553Y-136808631D01*
X194430566Y-136584003D01*
X194323342Y-136373566D01*
X194309999Y-136355201D01*
X194184517Y-136182490D01*
X194017510Y-136015483D01*
X193982872Y-135990317D01*
X193940207Y-135934989D01*
X193934228Y-135865375D01*
X193966833Y-135803580D01*
X193982873Y-135789682D01*
X194017510Y-135764517D01*
X194184517Y-135597510D01*
X194209682Y-135562872D01*
X194265011Y-135520207D01*
X194334625Y-135514228D01*
X194396420Y-135546833D01*
X194410315Y-135562870D01*
X194435483Y-135597510D01*
X194602490Y-135764517D01*
X194793567Y-135903343D01*
X194827240Y-135920500D01*
X195004003Y-136010566D01*
X195004005Y-136010566D01*
X195004008Y-136010568D01*
X195102641Y-136042616D01*
X195228631Y-136083553D01*
X195461903Y-136120500D01*
X195461908Y-136120500D01*
X195698097Y-136120500D01*
X195931368Y-136083553D01*
X196155992Y-136010568D01*
X196366433Y-135903343D01*
X196557510Y-135764517D01*
X196724517Y-135597510D01*
X196863343Y-135406433D01*
X196970568Y-135195992D01*
X197043553Y-134971368D01*
X197068637Y-134812993D01*
X197080500Y-134738097D01*
X197080500Y-134501902D01*
X197043553Y-134268631D01*
X196995513Y-134120781D01*
X196970568Y-134044008D01*
X196970566Y-134044005D01*
X196970566Y-134044003D01*
X196914002Y-133932991D01*
X196863343Y-133833567D01*
X196724517Y-133642490D01*
X196557510Y-133475483D01*
X196522872Y-133450317D01*
X196480207Y-133394989D01*
X196474228Y-133325375D01*
X196506833Y-133263580D01*
X196522873Y-133249682D01*
X196557510Y-133224517D01*
X196724517Y-133057510D01*
X196863343Y-132866433D01*
X196970568Y-132655992D01*
X197043553Y-132431368D01*
X197080500Y-132198097D01*
X197080500Y-131961902D01*
X197043553Y-131728631D01*
X196970566Y-131504003D01*
X196863342Y-131293566D01*
X196849999Y-131275201D01*
X196724517Y-131102490D01*
X196557510Y-130935483D01*
X196522872Y-130910317D01*
X196480207Y-130854989D01*
X196474228Y-130785375D01*
X196506833Y-130723580D01*
X196522873Y-130709682D01*
X196557510Y-130684517D01*
X196724517Y-130517510D01*
X196863343Y-130326433D01*
X196970568Y-130115992D01*
X197043553Y-129891368D01*
X197080500Y-129658097D01*
X197080500Y-129421902D01*
X197043553Y-129188631D01*
X196970566Y-128964003D01*
X196863342Y-128753566D01*
X196849999Y-128735201D01*
X196724517Y-128562490D01*
X196557510Y-128395483D01*
X196522872Y-128370317D01*
X196480207Y-128314989D01*
X196474228Y-128245375D01*
X196506833Y-128183580D01*
X196522873Y-128169682D01*
X196557510Y-128144517D01*
X196724517Y-127977510D01*
X196863343Y-127786433D01*
X196970568Y-127575992D01*
X197043553Y-127351368D01*
X197050971Y-127304534D01*
X197080500Y-127118097D01*
X197080500Y-126881902D01*
X197043553Y-126648631D01*
X196995513Y-126500781D01*
X196970568Y-126424008D01*
X196970566Y-126424005D01*
X196970566Y-126424003D01*
X196863342Y-126213566D01*
X196849999Y-126195201D01*
X196724517Y-126022490D01*
X196557510Y-125855483D01*
X196522872Y-125830317D01*
X196480207Y-125774989D01*
X196474228Y-125705375D01*
X196506833Y-125643580D01*
X196522873Y-125629682D01*
X196557510Y-125604517D01*
X196724517Y-125437510D01*
X196863343Y-125246433D01*
X196970568Y-125035992D01*
X197043553Y-124811368D01*
X197050402Y-124768127D01*
X197080500Y-124578097D01*
X197080500Y-124341902D01*
X197043553Y-124108631D01*
X196970566Y-123884003D01*
X196863342Y-123673566D01*
X196849999Y-123655201D01*
X196724517Y-123482490D01*
X196557510Y-123315483D01*
X196522872Y-123290317D01*
X196480207Y-123234989D01*
X196474228Y-123165375D01*
X196506833Y-123103580D01*
X196522873Y-123089682D01*
X196557510Y-123064517D01*
X196724517Y-122897510D01*
X196863343Y-122706433D01*
X196970568Y-122495992D01*
X197043553Y-122271368D01*
X197080500Y-122038097D01*
X197080500Y-121801902D01*
X197043553Y-121568631D01*
X196970566Y-121344003D01*
X196907494Y-121220218D01*
X196863343Y-121133567D01*
X196724517Y-120942490D01*
X196557510Y-120775483D01*
X196522872Y-120750317D01*
X196480207Y-120694989D01*
X196474228Y-120625375D01*
X196506833Y-120563580D01*
X196522873Y-120549682D01*
X196557510Y-120524517D01*
X196724517Y-120357510D01*
X196863343Y-120166433D01*
X196970568Y-119955992D01*
X197043553Y-119731368D01*
X197068637Y-119572993D01*
X197080500Y-119498097D01*
X197080500Y-119261902D01*
X197043553Y-119028631D01*
X196995513Y-118880781D01*
X196970568Y-118804008D01*
X196970566Y-118804005D01*
X196970566Y-118804003D01*
X196863342Y-118593566D01*
X196849120Y-118573991D01*
X196724517Y-118402490D01*
X196557510Y-118235483D01*
X196522872Y-118210317D01*
X196480207Y-118154989D01*
X196474228Y-118085375D01*
X196506833Y-118023580D01*
X196522873Y-118009682D01*
X196557510Y-117984517D01*
X196724517Y-117817510D01*
X196863343Y-117626433D01*
X196970568Y-117415992D01*
X197043553Y-117191368D01*
X197080500Y-116958097D01*
X197080500Y-116721902D01*
X197043553Y-116488631D01*
X196970566Y-116264003D01*
X196863342Y-116053566D01*
X196849999Y-116035201D01*
X196724517Y-115862490D01*
X196557510Y-115695483D01*
X196366433Y-115556657D01*
X196323560Y-115534812D01*
X196155996Y-115449433D01*
X195931368Y-115376446D01*
X195698097Y-115339500D01*
X195698092Y-115339500D01*
X195461908Y-115339500D01*
X195461903Y-115339500D01*
X195228631Y-115376446D01*
X195004003Y-115449433D01*
X194793566Y-115556657D01*
X194733222Y-115600500D01*
X194602490Y-115695483D01*
X194602488Y-115695485D01*
X194602487Y-115695485D01*
X194435484Y-115862488D01*
X194410318Y-115897127D01*
X194354987Y-115939792D01*
X194285374Y-115945771D01*
X194223579Y-115913165D01*
X194209682Y-115897127D01*
X194184517Y-115862490D01*
X194017510Y-115695483D01*
X193826433Y-115556657D01*
X193783560Y-115534812D01*
X193615996Y-115449433D01*
X193391368Y-115376446D01*
X193158097Y-115339500D01*
X193158092Y-115339500D01*
X192921908Y-115339500D01*
X192921903Y-115339500D01*
X192688631Y-115376446D01*
X192464003Y-115449433D01*
X192253566Y-115556657D01*
X192193222Y-115600500D01*
X192062490Y-115695483D01*
X192062488Y-115695485D01*
X192062487Y-115695485D01*
X191895484Y-115862488D01*
X191870318Y-115897127D01*
X191814987Y-115939792D01*
X191745374Y-115945771D01*
X191683579Y-115913165D01*
X191669682Y-115897127D01*
X191644517Y-115862490D01*
X191477510Y-115695483D01*
X191286433Y-115556657D01*
X191243560Y-115534812D01*
X191075996Y-115449433D01*
X190851368Y-115376446D01*
X190618097Y-115339500D01*
X190618092Y-115339500D01*
X190381908Y-115339500D01*
X190381903Y-115339500D01*
X190148631Y-115376446D01*
X189924003Y-115449433D01*
X189713566Y-115556657D01*
X189653222Y-115600500D01*
X189522490Y-115695483D01*
X189522488Y-115695485D01*
X189522487Y-115695485D01*
X189355484Y-115862488D01*
X189330318Y-115897127D01*
X189274987Y-115939792D01*
X189205374Y-115945771D01*
X189143579Y-115913165D01*
X189129682Y-115897127D01*
X189104517Y-115862490D01*
X188937510Y-115695483D01*
X188746433Y-115556657D01*
X188703560Y-115534812D01*
X188535996Y-115449433D01*
X188311368Y-115376446D01*
X188078097Y-115339500D01*
X188078092Y-115339500D01*
X187841908Y-115339500D01*
X187841903Y-115339500D01*
X187608631Y-115376446D01*
X187384003Y-115449433D01*
X187173566Y-115556657D01*
X187113222Y-115600500D01*
X186982490Y-115695483D01*
X186982488Y-115695485D01*
X186982487Y-115695485D01*
X186815484Y-115862488D01*
X186790318Y-115897127D01*
X186734987Y-115939792D01*
X186665374Y-115945771D01*
X186603579Y-115913165D01*
X186589682Y-115897127D01*
X186564517Y-115862490D01*
X186397510Y-115695483D01*
X186362872Y-115670317D01*
X186320207Y-115614989D01*
X186314228Y-115545375D01*
X186346833Y-115483580D01*
X186362873Y-115469682D01*
X186397510Y-115444517D01*
X186564517Y-115277510D01*
X186703343Y-115086433D01*
X186810568Y-114875992D01*
X186883553Y-114651368D01*
X186920500Y-114418097D01*
X186920500Y-114181902D01*
X186883553Y-113948631D01*
X186821006Y-113756134D01*
X186810568Y-113724008D01*
X186810566Y-113724005D01*
X186810566Y-113724003D01*
X186734174Y-113574076D01*
X186703343Y-113513567D01*
X186564517Y-113322490D01*
X186397510Y-113155483D01*
X186206433Y-113016657D01*
X186173742Y-113000000D01*
X185995996Y-112909433D01*
X185771368Y-112836446D01*
X185538097Y-112799500D01*
X185538092Y-112799500D01*
X185301908Y-112799500D01*
X185301903Y-112799500D01*
X185068631Y-112836446D01*
X184844003Y-112909433D01*
X184633566Y-113016657D01*
X184529430Y-113092317D01*
X184442490Y-113155483D01*
X184442488Y-113155485D01*
X184442487Y-113155485D01*
X184275484Y-113322488D01*
X184250318Y-113357127D01*
X184194987Y-113399792D01*
X184125374Y-113405771D01*
X184063579Y-113373165D01*
X184049682Y-113357127D01*
X184036900Y-113339534D01*
X184024517Y-113322490D01*
X183857510Y-113155483D01*
X183666433Y-113016657D01*
X183633742Y-113000000D01*
X183455996Y-112909433D01*
X183231368Y-112836446D01*
X182998097Y-112799500D01*
X182998092Y-112799500D01*
X182761908Y-112799500D01*
X182761903Y-112799500D01*
X182528631Y-112836446D01*
X182304003Y-112909433D01*
X182093566Y-113016657D01*
X181989430Y-113092317D01*
X181902490Y-113155483D01*
X181902488Y-113155485D01*
X181902487Y-113155485D01*
X181735484Y-113322488D01*
X181710318Y-113357127D01*
X181654987Y-113399792D01*
X181585374Y-113405771D01*
X181523579Y-113373165D01*
X181509682Y-113357127D01*
X181496900Y-113339534D01*
X181484517Y-113322490D01*
X181317510Y-113155483D01*
X181126433Y-113016657D01*
X181093742Y-113000000D01*
X180915996Y-112909433D01*
X180691368Y-112836446D01*
X180458097Y-112799500D01*
X180458092Y-112799500D01*
X180221908Y-112799500D01*
X180221903Y-112799500D01*
X179988631Y-112836446D01*
X179764003Y-112909433D01*
X179553566Y-113016657D01*
X179449430Y-113092317D01*
X179362490Y-113155483D01*
X179362488Y-113155485D01*
X179362487Y-113155485D01*
X179195484Y-113322488D01*
X179170318Y-113357127D01*
X179114987Y-113399792D01*
X179045374Y-113405771D01*
X178983579Y-113373165D01*
X178969682Y-113357127D01*
X178956900Y-113339534D01*
X178944517Y-113322490D01*
X178777510Y-113155483D01*
X178586433Y-113016657D01*
X178553742Y-113000000D01*
X178375996Y-112909433D01*
X178151368Y-112836446D01*
X177918097Y-112799500D01*
X177918092Y-112799500D01*
X177681908Y-112799500D01*
X177681903Y-112799500D01*
X177448631Y-112836446D01*
X177224003Y-112909433D01*
X177013566Y-113016657D01*
X176909430Y-113092317D01*
X176822490Y-113155483D01*
X176822488Y-113155485D01*
X176822487Y-113155485D01*
X176655484Y-113322488D01*
X176630318Y-113357127D01*
X176574987Y-113399792D01*
X176505374Y-113405771D01*
X176443579Y-113373165D01*
X176429682Y-113357127D01*
X176416900Y-113339534D01*
X176404517Y-113322490D01*
X176237510Y-113155483D01*
X176046433Y-113016657D01*
X176013742Y-113000000D01*
X175835996Y-112909433D01*
X175611368Y-112836446D01*
X175378097Y-112799500D01*
X175378092Y-112799500D01*
X175141908Y-112799500D01*
X175141903Y-112799500D01*
X174908631Y-112836446D01*
X174684003Y-112909433D01*
X174473566Y-113016657D01*
X174369430Y-113092317D01*
X174282490Y-113155483D01*
X174282488Y-113155485D01*
X174282487Y-113155485D01*
X174115484Y-113322488D01*
X174090318Y-113357127D01*
X174034987Y-113399792D01*
X173965374Y-113405771D01*
X173903579Y-113373165D01*
X173889682Y-113357127D01*
X173876900Y-113339534D01*
X173864517Y-113322490D01*
X173697510Y-113155483D01*
X173506433Y-113016657D01*
X173473742Y-113000000D01*
X173295996Y-112909433D01*
X173071368Y-112836446D01*
X172838097Y-112799500D01*
X172838092Y-112799500D01*
X172601908Y-112799500D01*
X172601903Y-112799500D01*
X172368631Y-112836446D01*
X172144003Y-112909433D01*
X171933566Y-113016657D01*
X171829430Y-113092317D01*
X171742490Y-113155483D01*
X171742488Y-113155485D01*
X171742487Y-113155485D01*
X171575484Y-113322488D01*
X171550318Y-113357127D01*
X171494987Y-113399792D01*
X171425374Y-113405771D01*
X171363579Y-113373165D01*
X171349682Y-113357127D01*
X171336900Y-113339534D01*
X171324517Y-113322490D01*
X171157510Y-113155483D01*
X170966433Y-113016657D01*
X170933742Y-113000000D01*
X170755996Y-112909433D01*
X170531368Y-112836446D01*
X170298097Y-112799500D01*
X170298092Y-112799500D01*
X170061908Y-112799500D01*
X170061903Y-112799500D01*
X169828631Y-112836446D01*
X169604003Y-112909433D01*
X169393566Y-113016657D01*
X169289430Y-113092317D01*
X169202490Y-113155483D01*
X169202488Y-113155485D01*
X169202487Y-113155485D01*
X169035484Y-113322488D01*
X169010318Y-113357127D01*
X168954987Y-113399792D01*
X168885374Y-113405771D01*
X168823579Y-113373165D01*
X168809682Y-113357127D01*
X168796900Y-113339534D01*
X168784517Y-113322490D01*
X168617510Y-113155483D01*
X168426433Y-113016657D01*
X168393742Y-113000000D01*
X168215996Y-112909433D01*
X167991368Y-112836446D01*
X167758097Y-112799500D01*
X167758092Y-112799500D01*
X167521908Y-112799500D01*
X167521903Y-112799500D01*
X167288631Y-112836446D01*
X167064003Y-112909433D01*
X166853566Y-113016657D01*
X166749430Y-113092317D01*
X166662490Y-113155483D01*
X166662488Y-113155485D01*
X166662487Y-113155485D01*
X166495485Y-113322487D01*
X166495485Y-113322488D01*
X166495483Y-113322490D01*
X166446434Y-113390000D01*
X166356657Y-113513566D01*
X166249433Y-113724003D01*
X166176446Y-113948631D01*
X166139500Y-114181902D01*
X128297501Y-114181902D01*
X128267991Y-113995582D01*
X128204756Y-113800968D01*
X128111860Y-113618650D01*
X128079475Y-113574077D01*
X128079475Y-113574076D01*
X127400001Y-114253551D01*
X127400001Y-114247339D01*
X127372742Y-114145606D01*
X127320081Y-114054394D01*
X127245607Y-113979920D01*
X127154395Y-113927259D01*
X127052662Y-113900000D01*
X127046447Y-113900000D01*
X127606914Y-113339534D01*
X127725923Y-113220524D01*
X127725922Y-113220523D01*
X127681360Y-113188147D01*
X127681351Y-113188141D01*
X127499032Y-113095244D01*
X127304418Y-113032009D01*
X127102318Y-113000000D01*
X126897684Y-113000000D01*
X126695583Y-113032009D01*
X126500969Y-113095244D01*
X126318645Y-113188143D01*
X126274078Y-113220523D01*
X126274078Y-113220524D01*
X126953555Y-113900000D01*
X126947340Y-113900000D01*
X126845607Y-113927259D01*
X126754395Y-113979920D01*
X126679921Y-114054394D01*
X126627260Y-114145606D01*
X126600001Y-114247339D01*
X126600001Y-114253553D01*
X125920525Y-113574077D01*
X125920524Y-113574077D01*
X125888144Y-113618645D01*
X125888142Y-113618648D01*
X125840764Y-113711632D01*
X125792790Y-113762427D01*
X125724968Y-113779222D01*
X125658834Y-113756684D01*
X125619795Y-113711630D01*
X125611576Y-113695500D01*
X125572287Y-113618390D01*
X125572286Y-113618388D01*
X125451971Y-113452786D01*
X125307213Y-113308028D01*
X125141613Y-113187715D01*
X125141612Y-113187714D01*
X125141610Y-113187713D01*
X125032876Y-113132310D01*
X124959223Y-113094781D01*
X124764534Y-113031522D01*
X124589995Y-113003878D01*
X124562352Y-112999500D01*
X124357648Y-112999500D01*
X124333329Y-113003351D01*
X124155465Y-113031522D01*
X123960776Y-113094781D01*
X123778386Y-113187715D01*
X123612786Y-113308028D01*
X123468028Y-113452786D01*
X123347715Y-113618386D01*
X123300485Y-113711080D01*
X123252510Y-113761876D01*
X123184689Y-113778671D01*
X123118554Y-113756134D01*
X123079515Y-113711080D01*
X123073861Y-113699983D01*
X123032287Y-113618390D01*
X123000092Y-113574077D01*
X122911971Y-113452786D01*
X122767213Y-113308028D01*
X122601613Y-113187715D01*
X122601612Y-113187714D01*
X122601610Y-113187713D01*
X122492876Y-113132310D01*
X122419223Y-113094781D01*
X122224534Y-113031522D01*
X122049995Y-113003878D01*
X122022352Y-112999500D01*
X121817648Y-112999500D01*
X121793329Y-113003351D01*
X121615465Y-113031522D01*
X121420776Y-113094781D01*
X121238386Y-113187715D01*
X121072786Y-113308028D01*
X120928028Y-113452786D01*
X120807715Y-113618386D01*
X120760485Y-113711080D01*
X120712510Y-113761876D01*
X120644689Y-113778671D01*
X120578554Y-113756134D01*
X120539515Y-113711080D01*
X120533861Y-113699983D01*
X120492287Y-113618390D01*
X120460092Y-113574077D01*
X120371971Y-113452786D01*
X120227213Y-113308028D01*
X120061613Y-113187715D01*
X120061612Y-113187714D01*
X120061610Y-113187713D01*
X119952876Y-113132310D01*
X119879223Y-113094781D01*
X119684534Y-113031522D01*
X119509995Y-113003878D01*
X119482352Y-112999500D01*
X119277648Y-112999500D01*
X119253329Y-113003351D01*
X119075465Y-113031522D01*
X118880776Y-113094781D01*
X118698386Y-113187715D01*
X118532786Y-113308028D01*
X118388028Y-113452786D01*
X118267715Y-113618386D01*
X118220485Y-113711080D01*
X118172510Y-113761876D01*
X118104689Y-113778671D01*
X118038554Y-113756134D01*
X117999515Y-113711080D01*
X117993861Y-113699983D01*
X117952287Y-113618390D01*
X117920092Y-113574077D01*
X117831971Y-113452786D01*
X117687213Y-113308028D01*
X117521613Y-113187715D01*
X117521612Y-113187714D01*
X117521610Y-113187713D01*
X117412876Y-113132310D01*
X117339223Y-113094781D01*
X117144534Y-113031522D01*
X116969995Y-113003878D01*
X116942352Y-112999500D01*
X116737648Y-112999500D01*
X116713329Y-113003351D01*
X116535465Y-113031522D01*
X116340776Y-113094781D01*
X116158386Y-113187715D01*
X115992786Y-113308028D01*
X115848028Y-113452786D01*
X115727712Y-113618389D01*
X115727711Y-113618391D01*
X115680483Y-113711081D01*
X115632509Y-113761877D01*
X115564688Y-113778672D01*
X115498553Y-113756134D01*
X115459514Y-113711081D01*
X115459513Y-113711080D01*
X115412286Y-113618390D01*
X115412284Y-113618387D01*
X115412283Y-113618385D01*
X115291970Y-113452786D01*
X115147212Y-113308028D01*
X114981612Y-113187715D01*
X114981611Y-113187714D01*
X114981609Y-113187713D01*
X114872875Y-113132310D01*
X114799222Y-113094781D01*
X114604533Y-113031522D01*
X114429994Y-113003878D01*
X114402351Y-112999500D01*
X114197647Y-112999500D01*
X114173328Y-113003351D01*
X113995464Y-113031522D01*
X113800775Y-113094781D01*
X113618385Y-113187715D01*
X113452785Y-113308028D01*
X113308027Y-113452786D01*
X113187711Y-113618389D01*
X113187710Y-113618391D01*
X113140483Y-113711079D01*
X113092509Y-113761875D01*
X113024688Y-113778670D01*
X112958553Y-113756132D01*
X112919514Y-113711079D01*
X112913864Y-113699991D01*
X112872287Y-113618390D01*
X112872285Y-113618387D01*
X112872284Y-113618385D01*
X112751971Y-113452786D01*
X112607213Y-113308028D01*
X112441613Y-113187715D01*
X112441612Y-113187714D01*
X112441610Y-113187713D01*
X112332876Y-113132310D01*
X112259223Y-113094781D01*
X112064534Y-113031522D01*
X111889995Y-113003878D01*
X111862352Y-112999500D01*
X111657648Y-112999500D01*
X111633329Y-113003351D01*
X111455465Y-113031522D01*
X111260776Y-113094781D01*
X111078386Y-113187715D01*
X110912786Y-113308028D01*
X110768032Y-113452782D01*
X110768028Y-113452787D01*
X110699978Y-113546451D01*
X110644648Y-113589117D01*
X110575035Y-113595096D01*
X110513240Y-113562490D01*
X110481954Y-113512570D01*
X110480062Y-113506859D01*
X110454814Y-113430666D01*
X110362712Y-113281344D01*
X110238656Y-113157288D01*
X110133321Y-113092317D01*
X110089336Y-113065187D01*
X110089331Y-113065185D01*
X110087862Y-113064698D01*
X109922797Y-113010001D01*
X109922795Y-113010000D01*
X109820010Y-112999500D01*
X108619998Y-112999500D01*
X108619981Y-112999501D01*
X108517203Y-113010000D01*
X108517200Y-113010001D01*
X108350668Y-113065185D01*
X108350663Y-113065187D01*
X108201342Y-113157289D01*
X108077289Y-113281342D01*
X107985187Y-113430663D01*
X107985186Y-113430666D01*
X107930001Y-113597203D01*
X107930001Y-113597204D01*
X107930000Y-113597204D01*
X107919500Y-113699983D01*
X107136054Y-113699983D01*
X107156861Y-113671347D01*
X107156861Y-113671346D01*
X107172558Y-113640540D01*
X107172558Y-113640539D01*
X107249755Y-113489031D01*
X107312990Y-113294417D01*
X107345000Y-113092317D01*
X107345000Y-112887682D01*
X107312990Y-112685582D01*
X107249754Y-112490965D01*
X107174928Y-112344110D01*
X107156861Y-112308653D01*
X107145257Y-112292682D01*
X158760000Y-112292682D01*
X158760000Y-112497317D01*
X158792009Y-112699417D01*
X158855244Y-112894031D01*
X158948141Y-113076350D01*
X158948147Y-113076359D01*
X158980523Y-113120921D01*
X158980524Y-113120922D01*
X159660000Y-112441446D01*
X159660000Y-112447661D01*
X159687259Y-112549394D01*
X159739920Y-112640606D01*
X159814394Y-112715080D01*
X159905606Y-112767741D01*
X160007339Y-112795000D01*
X160013553Y-112795000D01*
X159334076Y-113474474D01*
X159378650Y-113506859D01*
X159560968Y-113599755D01*
X159755582Y-113662990D01*
X159957683Y-113695000D01*
X160162317Y-113695000D01*
X160364417Y-113662990D01*
X160559031Y-113599755D01*
X160741349Y-113506859D01*
X160785921Y-113474474D01*
X160106447Y-112795000D01*
X160112661Y-112795000D01*
X160214394Y-112767741D01*
X160305606Y-112715080D01*
X160380080Y-112640606D01*
X160432741Y-112549394D01*
X160460000Y-112447661D01*
X160460000Y-112441447D01*
X161139473Y-113120921D01*
X161177280Y-113117946D01*
X161245658Y-113132310D01*
X161295415Y-113181361D01*
X161304714Y-113202556D01*
X161315666Y-113235606D01*
X161325186Y-113264333D01*
X161325187Y-113264336D01*
X161352140Y-113308034D01*
X161417288Y-113413656D01*
X161541344Y-113537712D01*
X161690666Y-113629814D01*
X161857203Y-113684999D01*
X161959991Y-113695500D01*
X163160008Y-113695499D01*
X163262797Y-113684999D01*
X163429334Y-113629814D01*
X163578656Y-113537712D01*
X163702712Y-113413656D01*
X163794814Y-113264334D01*
X163849999Y-113097797D01*
X163860500Y-112995009D01*
X163860499Y-111794992D01*
X163849999Y-111692203D01*
X163794814Y-111525666D01*
X163702712Y-111376344D01*
X163578656Y-111252288D01*
X163447860Y-111171613D01*
X163429336Y-111160187D01*
X163429331Y-111160185D01*
X163427862Y-111159698D01*
X163262797Y-111105001D01*
X163262795Y-111105000D01*
X163160010Y-111094500D01*
X161959998Y-111094500D01*
X161959981Y-111094501D01*
X161857203Y-111105000D01*
X161857200Y-111105001D01*
X161690668Y-111160185D01*
X161690663Y-111160187D01*
X161541342Y-111252289D01*
X161417289Y-111376342D01*
X161325187Y-111525663D01*
X161325185Y-111525668D01*
X161304717Y-111587438D01*
X161264944Y-111644883D01*
X161200428Y-111671706D01*
X161177283Y-111672052D01*
X161139474Y-111669076D01*
X160460000Y-112348551D01*
X160460000Y-112342339D01*
X160432741Y-112240606D01*
X160380080Y-112149394D01*
X160305606Y-112074920D01*
X160214394Y-112022259D01*
X160112661Y-111995000D01*
X160106446Y-111995000D01*
X160785922Y-111315524D01*
X160785921Y-111315523D01*
X160741359Y-111283147D01*
X160741350Y-111283141D01*
X160559031Y-111190244D01*
X160364417Y-111127009D01*
X160162317Y-111095000D01*
X159957683Y-111095000D01*
X159755582Y-111127009D01*
X159560968Y-111190244D01*
X159378644Y-111283143D01*
X159334077Y-111315523D01*
X159334077Y-111315524D01*
X160013554Y-111995000D01*
X160007339Y-111995000D01*
X159905606Y-112022259D01*
X159814394Y-112074920D01*
X159739920Y-112149394D01*
X159687259Y-112240606D01*
X159660000Y-112342339D01*
X159660000Y-112348553D01*
X158980524Y-111669077D01*
X158980523Y-111669077D01*
X158948143Y-111713644D01*
X158855244Y-111895968D01*
X158792009Y-112090582D01*
X158760000Y-112292682D01*
X107145257Y-112292682D01*
X107124474Y-112264077D01*
X107124474Y-112264076D01*
X106445000Y-112943551D01*
X106445000Y-112937339D01*
X106417741Y-112835606D01*
X106365080Y-112744394D01*
X106290606Y-112669920D01*
X106199394Y-112617259D01*
X106097661Y-112590000D01*
X106091446Y-112590000D01*
X106770922Y-111910524D01*
X106770921Y-111910523D01*
X106726359Y-111878147D01*
X106726350Y-111878141D01*
X106544031Y-111785244D01*
X106349417Y-111722009D01*
X106147317Y-111690000D01*
X105942683Y-111690000D01*
X105740582Y-111722009D01*
X105545968Y-111785244D01*
X105363644Y-111878143D01*
X105319077Y-111910523D01*
X105319077Y-111910524D01*
X105998554Y-112590000D01*
X105992339Y-112590000D01*
X105890606Y-112617259D01*
X105799394Y-112669920D01*
X105724920Y-112744394D01*
X105672259Y-112835606D01*
X105645000Y-112937339D01*
X105645000Y-112943553D01*
X104965524Y-112264077D01*
X104965523Y-112264077D01*
X104933143Y-112308644D01*
X104840244Y-112490968D01*
X104777009Y-112685582D01*
X104745000Y-112887682D01*
X104155500Y-112887682D01*
X104155500Y-109979000D01*
X104175185Y-109911961D01*
X104227989Y-109866206D01*
X104279500Y-109855000D01*
X109518692Y-109855000D01*
X109585731Y-109874685D01*
X109606373Y-109891319D01*
X110710325Y-110995272D01*
X110710332Y-110995278D01*
X110775521Y-111038835D01*
X110775523Y-111038836D01*
X110775526Y-111038838D01*
X110816873Y-111066465D01*
X110935256Y-111115501D01*
X110935260Y-111115501D01*
X110935261Y-111115502D01*
X111060928Y-111140500D01*
X111060931Y-111140500D01*
X123261929Y-111140500D01*
X123328968Y-111160185D01*
X123362245Y-111191613D01*
X123428746Y-111283143D01*
X123468034Y-111337219D01*
X123612786Y-111481971D01*
X123757952Y-111587438D01*
X123778390Y-111602287D01*
X123894607Y-111661503D01*
X123960776Y-111695218D01*
X123960778Y-111695218D01*
X123960781Y-111695220D01*
X124043229Y-111722009D01*
X124155465Y-111758477D01*
X124256557Y-111774488D01*
X124357648Y-111790500D01*
X124357649Y-111790500D01*
X124562351Y-111790500D01*
X124562352Y-111790500D01*
X124764534Y-111758477D01*
X124959219Y-111695220D01*
X125141610Y-111602287D01*
X125247075Y-111525663D01*
X125307213Y-111481971D01*
X125307215Y-111481968D01*
X125307219Y-111481966D01*
X125451966Y-111337219D01*
X125572287Y-111171610D01*
X125665220Y-110989219D01*
X125728477Y-110794534D01*
X125760500Y-110592352D01*
X125760500Y-110387648D01*
X125728477Y-110185466D01*
X125728476Y-110185462D01*
X125728476Y-110185461D01*
X125678879Y-110032818D01*
X125676884Y-109962977D01*
X125712964Y-109903144D01*
X125775665Y-109872316D01*
X125796810Y-109870500D01*
X146114071Y-109870500D01*
X146198615Y-109853682D01*
X146239744Y-109845501D01*
X146358127Y-109796465D01*
X146464669Y-109725277D01*
X148839963Y-107349983D01*
X165704500Y-107349983D01*
X165704500Y-108550001D01*
X165704501Y-108550018D01*
X165715000Y-108652796D01*
X165715001Y-108652799D01*
X165740396Y-108729434D01*
X165770186Y-108819334D01*
X165862288Y-108968656D01*
X165986344Y-109092712D01*
X166135666Y-109184814D01*
X166302203Y-109239999D01*
X166404991Y-109250500D01*
X167605008Y-109250499D01*
X167707797Y-109239999D01*
X167874334Y-109184814D01*
X168023656Y-109092712D01*
X168147712Y-108968656D01*
X168239814Y-108819334D01*
X168294999Y-108652797D01*
X168305500Y-108550009D01*
X168305499Y-107847648D01*
X175864500Y-107847648D01*
X175864500Y-108052351D01*
X175896522Y-108254534D01*
X175959781Y-108449223D01*
X176052715Y-108631613D01*
X176173028Y-108797213D01*
X176317786Y-108941971D01*
X176472749Y-109054556D01*
X176483390Y-109062287D01*
X176599607Y-109121503D01*
X176665776Y-109155218D01*
X176665778Y-109155218D01*
X176665781Y-109155220D01*
X176756856Y-109184812D01*
X176860465Y-109218477D01*
X176961557Y-109234488D01*
X177062648Y-109250500D01*
X177062649Y-109250500D01*
X177267351Y-109250500D01*
X177267352Y-109250500D01*
X177469534Y-109218477D01*
X177664219Y-109155220D01*
X177846610Y-109062287D01*
X177975482Y-108968657D01*
X178012213Y-108941971D01*
X178012215Y-108941968D01*
X178012219Y-108941966D01*
X178156966Y-108797219D01*
X178156968Y-108797215D01*
X178156971Y-108797213D01*
X178240554Y-108682169D01*
X178277287Y-108631610D01*
X178370220Y-108449219D01*
X178433477Y-108254534D01*
X178465500Y-108052352D01*
X178465500Y-107847648D01*
X178453547Y-107772182D01*
X178433477Y-107645465D01*
X178383217Y-107490781D01*
X178370220Y-107450781D01*
X178370218Y-107450778D01*
X178370218Y-107450776D01*
X178318865Y-107349991D01*
X178277287Y-107268390D01*
X178254008Y-107236349D01*
X178156971Y-107102786D01*
X178012213Y-106958028D01*
X177846613Y-106837715D01*
X177846612Y-106837714D01*
X177846610Y-106837713D01*
X177786898Y-106807288D01*
X177664223Y-106744781D01*
X177469534Y-106681522D01*
X177294995Y-106653878D01*
X177267352Y-106649500D01*
X177062648Y-106649500D01*
X177038329Y-106653351D01*
X176860465Y-106681522D01*
X176665776Y-106744781D01*
X176483386Y-106837715D01*
X176317786Y-106958028D01*
X176173028Y-107102786D01*
X176052715Y-107268386D01*
X175959781Y-107450776D01*
X175896522Y-107645465D01*
X175864500Y-107847648D01*
X168305499Y-107847648D01*
X168305499Y-107349992D01*
X168294999Y-107247203D01*
X168239814Y-107080666D01*
X168147712Y-106931344D01*
X168023656Y-106807288D01*
X167892860Y-106726613D01*
X167874336Y-106715187D01*
X167874331Y-106715185D01*
X167823478Y-106698334D01*
X167707797Y-106660001D01*
X167707795Y-106660000D01*
X167605010Y-106649500D01*
X166404998Y-106649500D01*
X166404981Y-106649501D01*
X166302203Y-106660000D01*
X166302200Y-106660001D01*
X166135668Y-106715185D01*
X166135663Y-106715187D01*
X165986342Y-106807289D01*
X165862289Y-106931342D01*
X165770187Y-107080663D01*
X165770186Y-107080666D01*
X165715001Y-107247203D01*
X165715001Y-107247204D01*
X165715000Y-107247204D01*
X165704500Y-107349983D01*
X148839963Y-107349983D01*
X149458127Y-106731819D01*
X149519450Y-106698334D01*
X149545808Y-106695500D01*
X158179071Y-106695500D01*
X158263615Y-106678682D01*
X158304744Y-106670501D01*
X158423127Y-106621465D01*
X158431409Y-106615931D01*
X158529669Y-106550277D01*
X158607826Y-106472119D01*
X158612820Y-106468068D01*
X158639348Y-106456977D01*
X158664584Y-106443197D01*
X158671181Y-106443668D01*
X158677283Y-106441118D01*
X158705595Y-106446129D01*
X158734276Y-106448181D01*
X158739570Y-106452144D01*
X158746083Y-106453297D01*
X158767191Y-106472819D01*
X158790210Y-106490051D01*
X158794255Y-106497851D01*
X158797377Y-106500739D01*
X158798994Y-106506991D01*
X158808875Y-106526044D01*
X158814781Y-106544223D01*
X158858135Y-106629308D01*
X158901892Y-106715186D01*
X158907715Y-106726613D01*
X159028028Y-106892213D01*
X159172786Y-107036971D01*
X159318424Y-107142781D01*
X159338390Y-107157287D01*
X159447042Y-107212648D01*
X159520776Y-107250218D01*
X159520778Y-107250218D01*
X159520781Y-107250220D01*
X159576703Y-107268390D01*
X159715465Y-107313477D01*
X159816557Y-107329488D01*
X159917648Y-107345500D01*
X159917649Y-107345500D01*
X160122351Y-107345500D01*
X160122352Y-107345500D01*
X160324534Y-107313477D01*
X160519219Y-107250220D01*
X160519222Y-107250217D01*
X160519226Y-107250217D01*
X160546441Y-107236350D01*
X160546443Y-107236349D01*
X160592958Y-107212648D01*
X160701610Y-107157287D01*
X160807075Y-107080663D01*
X160867213Y-107036971D01*
X160867215Y-107036968D01*
X160867219Y-107036966D01*
X161011966Y-106892219D01*
X161011968Y-106892215D01*
X161011971Y-106892213D01*
X161091788Y-106782352D01*
X161132287Y-106726610D01*
X161225220Y-106544219D01*
X161288477Y-106349534D01*
X161295407Y-106305779D01*
X161317689Y-106165102D01*
X161347618Y-106101967D01*
X161406930Y-106065036D01*
X161440162Y-106060500D01*
X181674071Y-106060500D01*
X181759647Y-106043477D01*
X181799744Y-106035501D01*
X181918127Y-105986465D01*
X181926402Y-105980935D01*
X181926409Y-105980933D01*
X181926409Y-105980932D01*
X182002447Y-105930125D01*
X182024669Y-105915277D01*
X184655276Y-103284670D01*
X184726465Y-103178127D01*
X184775501Y-103059744D01*
X184787440Y-102999723D01*
X184800500Y-102934069D01*
X184800500Y-102925902D01*
X184802404Y-102915163D01*
X184813291Y-102893246D01*
X184820185Y-102869770D01*
X184828558Y-102862514D01*
X184833489Y-102852589D01*
X184854498Y-102840037D01*
X184872989Y-102824015D01*
X184883955Y-102822438D01*
X184893470Y-102816754D01*
X184917928Y-102817553D01*
X184942147Y-102814071D01*
X184962808Y-102818875D01*
X185062530Y-102851277D01*
X185115465Y-102868477D01*
X185216557Y-102884488D01*
X185317648Y-102900500D01*
X185317649Y-102900500D01*
X185522351Y-102900500D01*
X185522352Y-102900500D01*
X185724534Y-102868477D01*
X185919219Y-102805220D01*
X186101610Y-102712287D01*
X186230482Y-102618657D01*
X186267213Y-102591971D01*
X186267215Y-102591968D01*
X186267219Y-102591966D01*
X186411966Y-102447219D01*
X186411968Y-102447215D01*
X186411971Y-102447213D01*
X186532284Y-102281614D01*
X186532286Y-102281611D01*
X186532287Y-102281610D01*
X186579516Y-102188917D01*
X186627489Y-102138123D01*
X186695310Y-102121328D01*
X186761445Y-102143865D01*
X186800483Y-102188917D01*
X186831862Y-102250500D01*
X186847715Y-102281614D01*
X186968028Y-102447213D01*
X187112786Y-102591971D01*
X187250967Y-102692363D01*
X187278390Y-102712287D01*
X187394607Y-102771503D01*
X187460776Y-102805218D01*
X187460778Y-102805218D01*
X187460781Y-102805220D01*
X187536329Y-102829767D01*
X187655465Y-102868477D01*
X187756557Y-102884488D01*
X187857648Y-102900500D01*
X187857649Y-102900500D01*
X188062351Y-102900500D01*
X188062352Y-102900500D01*
X188264534Y-102868477D01*
X188459219Y-102805220D01*
X188641610Y-102712287D01*
X188770482Y-102618657D01*
X188807213Y-102591971D01*
X188807215Y-102591968D01*
X188807219Y-102591966D01*
X188951966Y-102447219D01*
X188951968Y-102447215D01*
X188951971Y-102447213D01*
X189050116Y-102312126D01*
X189072287Y-102281610D01*
X189119796Y-102188367D01*
X189167769Y-102137573D01*
X189235589Y-102120777D01*
X189301725Y-102143314D01*
X189340765Y-102188368D01*
X189388142Y-102281350D01*
X189388148Y-102281359D01*
X189420524Y-102325921D01*
X189420525Y-102325922D01*
X190100001Y-101646446D01*
X190100001Y-101652661D01*
X190127260Y-101754394D01*
X190179921Y-101845606D01*
X190254395Y-101920080D01*
X190345607Y-101972741D01*
X190447340Y-102000000D01*
X190453554Y-102000000D01*
X189774077Y-102679474D01*
X189818651Y-102711859D01*
X190000969Y-102804755D01*
X190195583Y-102867990D01*
X190397684Y-102900000D01*
X190602318Y-102900000D01*
X190804418Y-102867990D01*
X190999032Y-102804755D01*
X191181350Y-102711859D01*
X191225922Y-102679474D01*
X190546448Y-102000000D01*
X190552662Y-102000000D01*
X190654395Y-101972741D01*
X190745607Y-101920080D01*
X190820081Y-101845606D01*
X190872742Y-101754394D01*
X190900001Y-101652661D01*
X190900001Y-101646448D01*
X191579475Y-102325922D01*
X191579475Y-102325921D01*
X191611860Y-102281349D01*
X191704756Y-102099031D01*
X191767991Y-101904417D01*
X191800001Y-101702317D01*
X191800001Y-101497682D01*
X191767991Y-101295582D01*
X191704756Y-101100968D01*
X191611860Y-100918650D01*
X191579475Y-100874077D01*
X191579475Y-100874076D01*
X190900001Y-101553551D01*
X190900001Y-101547339D01*
X190872742Y-101445606D01*
X190820081Y-101354394D01*
X190745607Y-101279920D01*
X190654395Y-101227259D01*
X190552662Y-101200000D01*
X190546447Y-101200000D01*
X191225923Y-100520524D01*
X191225922Y-100520523D01*
X191180367Y-100487425D01*
X191137702Y-100432095D01*
X191131723Y-100362482D01*
X191164329Y-100300687D01*
X191165433Y-100299566D01*
X193003681Y-98461319D01*
X193065004Y-98427834D01*
X193091362Y-98425000D01*
X199375500Y-98425000D01*
X199442539Y-98444685D01*
G37*
%TD.AperFunction*%
%TD*%
M02*
