M48
; DRILL file {KiCad 9.0.6} date 2026-04-10T14:22:55+0900
; FORMAT={-:-/ absolute / inch / decimal}
; #@! TF.CreationDate,2026-04-10T14:22:55+09:00
; #@! TF.GenerationSoftware,Kicad,Pcbnew,9.0.6
; #@! TF.FileFunction,Plated,1,2,PTH
FMAT,2
INCH
; #@! TA.AperFunction,Plated,PTH,ViaDrill
T1C0.0315
; #@! TA.AperFunction,Plated,PTH,ComponentDrill
T2C0.0315
; #@! TA.AperFunction,Plated,PTH,ViaDrill
T3C0.0394
; #@! TA.AperFunction,Plated,PTH,ComponentDrill
T4C0.0394
%
G90
G05
T1
X4.35Y-3.275
X4.35Y-3.6
X4.3675Y-3.8315
X4.4Y-3.9
X4.45Y-3.6
X4.55Y-2.625
X4.5547Y-3.125
X4.65Y-4.6
X4.8Y-4.725
X4.9Y-4.35
X5.1Y-5.0
X5.425Y-4.125
X5.425Y-4.225
X6.15Y-3.925
X6.3Y-4.175
X6.75Y-3.85
X7.05Y-3.85
X7.3Y-3.875
X7.4Y-3.4
X7.425Y-3.875
X7.55Y-3.1
X7.55Y-3.5
X7.6Y-3.175
X7.6Y-3.25
X7.6Y-3.325
X7.6Y-3.4
T2
X4.075Y-2.7516
X4.075Y-2.9484
X4.175Y-4.2516
X4.175Y-4.4484
X4.18Y-3.2516
X4.18Y-3.4484
X4.18Y-3.7416
X4.18Y-3.9384
X4.2Y-2.7
X4.2Y-3.0
X4.3Y-2.7
X4.3Y-3.0
X4.3Y-3.2
X4.3Y-3.5
X4.3Y-3.7
X4.3Y-4.0
X4.3Y-4.2
X4.3Y-4.5
X4.4Y-3.0
X4.4Y-2.7
X4.4Y-3.2
X4.4Y-3.5
X4.4Y-3.7
X4.4Y-4.0
X4.4Y-4.2
X4.4Y-4.5
X4.5Y-3.5
X4.5Y-4.0
X4.5Y-4.5
X4.5Y-2.7
X4.5Y-3.0
X4.5Y-3.2
X4.5Y-3.7
X4.5Y-4.2
X4.6Y-2.7
X4.6Y-3.0
X4.6Y-3.2
X4.6Y-3.5
X4.6Y-3.7
X4.6Y-4.0
X4.6Y-4.2
X4.6Y-4.5
X4.7Y-2.7
X4.7Y-3.0
X4.7Y-3.2
X4.7Y-3.5
X4.7Y-3.7
X4.7Y-4.0
X4.7Y-4.2
X4.7Y-4.5
X4.8Y-2.7
X4.8Y-3.0
X4.8Y-3.1
X4.8Y-3.2
X4.8Y-3.5
X4.8Y-3.6
X4.8Y-3.7
X4.8Y-4.0
X4.8Y-4.2
X4.8Y-4.5
X4.9Y-2.7
X4.9Y-3.2
X4.9Y-3.5
X4.9Y-3.7
X4.9Y-4.0
X4.9Y-4.2
X4.9Y-4.5
X4.9Y-3.0
X5.0Y-4.2
X5.0Y-4.5
X5.1Y-2.975
X5.1Y-3.225
X5.1Y-3.35
X5.1Y-3.475
X5.1Y-3.725
X5.1Y-3.85
X5.15Y-4.0
X5.15Y-4.125
X5.2Y-3.1
X5.2Y-3.6
X5.5Y-2.975
X5.5Y-3.225
X5.5Y-3.35
X5.5Y-3.475
X5.5Y-3.725
X5.5Y-3.85
X5.55Y-4.0
X5.55Y-4.125
X5.675Y-3.1016
X5.675Y-3.2984
X5.675Y-3.6766
X5.675Y-3.8734
X5.8Y-3.1
X5.8Y-3.4
X5.8Y-3.7
X5.8Y-4.0
X5.9Y-3.1
X5.9Y-3.4
X5.9Y-3.7
X5.9Y-4.0
X6.0Y-3.4
X6.0Y-3.1
X6.0Y-4.0
X6.0Y-3.7
X6.1Y-3.1
X6.1Y-3.4
X6.1Y-3.7
X6.1Y-4.0
X6.2Y-3.1
X6.2Y-3.4
X6.2Y-3.7
X6.2Y-4.0
X6.3Y-3.1
X6.3Y-3.4
X6.3Y-3.7
X6.3Y-4.0
X6.3016Y-4.425
X6.4Y-3.1
X6.4Y-3.4
X6.4Y-4.425
X6.4Y-3.7
X6.4Y-4.0
X6.5Y-3.7
X6.5Y-4.0
X6.575Y-4.25
X6.675Y-3.25
X6.675Y-3.4469
X6.675Y-3.7031
X6.675Y-3.9
X6.775Y-2.75
X6.775Y-2.9469
X6.8Y-3.2
X6.8Y-3.5
X6.8Y-3.7
X6.8Y-4.0
X6.9Y-2.7
X6.9Y-3.0
X6.9Y-3.2
X6.9Y-3.5
X6.9Y-3.7
X6.9Y-4.0
X6.975Y-4.25
X7.0Y-4.0
X7.0Y-2.7
X7.0Y-3.0
X7.0Y-3.2
X7.0Y-3.5
X7.0Y-3.7
X7.1Y-3.0
X7.1Y-2.7
X7.1Y-3.2
X7.1Y-3.5
X7.1Y-3.7
X7.1Y-4.0
X7.2Y-2.7
X7.2Y-3.0
X7.2Y-3.2
X7.2Y-3.5
X7.2Y-3.7
X7.2Y-4.0
X7.3Y-2.7
X7.3Y-3.0
X7.3Y-3.2
X7.3Y-3.5
X7.3Y-3.7
X7.3Y-4.0
X7.4Y-2.7
X7.4Y-3.0
X7.4Y-3.2
X7.4Y-3.5
X7.4Y-3.7
X7.4Y-4.0
X7.5Y-2.7
X7.5Y-3.0
X7.5Y-3.7
X7.5Y-4.0
T3
X5.075Y-4.425
X6.5Y-2.9
X6.5Y-3.1
X7.625Y-4.0
X7.7Y-3.925
T4
X4.9Y-4.7
X4.9Y-5.3
X5.0Y-4.7
X5.0Y-5.3
X5.1Y-4.7
X5.1Y-5.3
X5.2Y-2.7
X5.2Y-2.8
X5.2Y-5.3
X5.2Y-4.7
X5.3Y-2.7
X5.3Y-2.8
X5.3Y-4.7
X5.3Y-5.3
X5.4Y-2.7
X5.4Y-4.7
X5.4Y-5.3
X5.4Y-2.8
X5.5Y-2.7
X5.5Y-2.8
X5.5Y-4.7
X5.5Y-5.3
X5.6Y-4.7
X5.6Y-2.7
X5.6Y-2.8
X5.6Y-5.3
X5.7Y-2.7
X5.7Y-2.8
X5.7Y-4.7
X5.7Y-5.3
X5.8Y-2.8
X5.8Y-2.7
X5.8Y-4.7
X5.8Y-5.3
X5.9Y-2.7
X5.9Y-2.8
X5.9Y-4.7
X5.9Y-5.3
X6.0Y-2.7
X6.0Y-2.8
X6.0Y-4.7
X6.0Y-5.3
X6.1Y-2.7
X6.1Y-2.8
X6.1Y-5.3
X6.1Y-4.7
X6.2Y-2.7
X6.2Y-2.8
X6.2Y-4.7
X6.2Y-5.3
X6.3Y-2.7
X6.3Y-4.7
X6.3Y-5.3
X6.3Y-2.8
X6.4Y-2.7
X6.4Y-2.8
X6.5Y-2.7
X6.5Y-2.8
X6.6Y-4.5
X6.6Y-4.6
X6.6Y-4.7
X6.6Y-4.8
X6.6Y-4.9
X6.6Y-5.0
X6.6Y-5.1
X6.6Y-5.2
X6.6Y-5.3
X6.6Y-5.4
X6.6Y-5.5
X6.7Y-4.5
X6.7Y-4.6
X6.7Y-4.7
X6.7Y-4.8
X6.7Y-4.9
X6.7Y-5.0
X6.7Y-5.1
X6.7Y-5.2
X6.7Y-5.3
X6.7Y-5.4
X6.7Y-5.5
X6.8Y-4.5
X6.8Y-4.6
X6.8Y-4.7
X6.8Y-4.8
X6.8Y-4.9
X6.8Y-5.0
X6.8Y-5.1
X6.8Y-5.2
X6.8Y-5.3
X6.8Y-5.4
X6.8Y-5.5
X6.9Y-4.5
X6.9Y-4.6
X6.9Y-4.7
X6.9Y-4.8
X6.9Y-4.9
X6.9Y-5.0
X6.9Y-5.1
X6.9Y-5.2
X6.9Y-5.3
X6.9Y-5.4
X6.9Y-5.5
X7.0Y-4.5
X7.0Y-4.6
X7.0Y-4.7
X7.0Y-4.8
X7.0Y-4.9
X7.0Y-5.0
X7.0Y-5.1
X7.0Y-5.2
X7.0Y-5.3
X7.0Y-5.4
X7.0Y-5.5
X7.1Y-4.5
X7.1Y-4.6
X7.1Y-4.7
X7.1Y-4.8
X7.1Y-4.9
X7.1Y-5.0
X7.1Y-5.1
X7.1Y-5.2
X7.1Y-5.3
X7.1Y-5.4
X7.1Y-5.5
X7.2Y-4.5
X7.2Y-4.6
X7.2Y-4.7
X7.2Y-4.8
X7.2Y-4.9
X7.2Y-5.0
X7.2Y-5.1
X7.2Y-5.2
X7.2Y-5.3
X7.2Y-5.4
X7.2Y-5.5
X7.3Y-4.5
X7.3Y-4.6
X7.3Y-4.7
X7.3Y-4.8
X7.3Y-4.9
X7.3Y-5.0
X7.3Y-5.1
X7.3Y-5.2
X7.3Y-5.3
X7.3Y-5.4
X7.3Y-5.5
X7.4Y-4.6
X7.4Y-4.7
X7.4Y-4.8
X7.4Y-4.9
X7.4Y-5.0
X7.4Y-5.1
X7.4Y-5.2
X7.4Y-5.3
X7.4Y-5.4
X7.4Y-5.5
X7.5Y-4.6
X7.5Y-4.7
X7.5Y-4.8
X7.5Y-4.9
X7.5Y-5.0
X7.5Y-5.1
X7.5Y-5.2
X7.5Y-5.3
X7.5Y-5.4
X7.5Y-5.5
X7.6Y-4.6
X7.6Y-4.7
X7.6Y-4.8
X7.6Y-4.9
X7.6Y-5.0
X7.6Y-5.1
X7.6Y-5.2
X7.6Y-5.3
X7.6Y-5.4
X7.6Y-5.5
X7.7Y-4.6
X7.7Y-4.7
X7.7Y-4.8
X7.7Y-4.9
X7.7Y-5.0
X7.7Y-5.1
X7.7Y-5.2
X7.7Y-5.3
M30
