%TF.GenerationSoftware,KiCad,Pcbnew,9.0.6*%
%TF.CreationDate,2026-04-10T14:22:49+09:00*%
%TF.ProjectId,KeyboardHook,4b657962-6f61-4726-9448-6f6f6b2e6b69,rev?*%
%TF.SameCoordinates,Original*%
%TF.FileFunction,Soldermask,Top*%
%TF.FilePolarity,Negative*%
%FSLAX46Y46*%
G04 Gerber Fmt 4.6, Leading zero omitted, Abs format (unit mm)*
G04 Created by KiCad (PCBNEW 9.0.6) date 2026-04-10 14:22:49*
%MOMM*%
%LPD*%
G01*
G04 APERTURE LIST*
G04 Aperture macros list*
%AMRoundRect*
0 Rectangle with rounded corners*
0 $1 Rounding radius*
0 $2 $3 $4 $5 $6 $7 $8 $9 X,Y pos of 4 corners*
0 Add a 4 corners polygon primitive as box body*
4,1,4,$2,$3,$4,$5,$6,$7,$8,$9,$2,$3,0*
0 Add four circle primitives for the rounded corners*
1,1,$1+$1,$2,$3*
1,1,$1+$1,$4,$5*
1,1,$1+$1,$6,$7*
1,1,$1+$1,$8,$9*
0 Add four rect primitives between the rounded corners*
20,1,$1+$1,$2,$3,$4,$5,0*
20,1,$1+$1,$4,$5,$6,$7,0*
20,1,$1+$1,$6,$7,$8,$9,0*
20,1,$1+$1,$8,$9,$2,$3,0*%
G04 Aperture macros list end*
%ADD10R,1.600000X1.600000*%
%ADD11O,1.600000X1.600000*%
%ADD12RoundRect,0.250000X-0.550000X-0.550000X0.550000X-0.550000X0.550000X0.550000X-0.550000X0.550000X0*%
%ADD13C,1.600000*%
%ADD14RoundRect,0.250000X0.550000X-0.550000X0.550000X0.550000X-0.550000X0.550000X-0.550000X-0.550000X0*%
%ADD15RoundRect,0.250000X0.550000X0.550000X-0.550000X0.550000X-0.550000X-0.550000X0.550000X-0.550000X0*%
%ADD16C,2.000000*%
%ADD17C,2.700000*%
%ADD18R,1.700000X1.700000*%
%ADD19C,1.700000*%
%ADD20C,3.200000*%
G04 APERTURE END LIST*
D10*
%TO.C,A1*%
X160020000Y-119380000D03*
D11*
X157480000Y-119380000D03*
X154940001Y-119380000D03*
X152400000Y-119380000D03*
X149860000Y-119380000D03*
X147320000Y-119380000D03*
X144780000Y-119380000D03*
X142239999Y-119380000D03*
X139700000Y-119380000D03*
X137160000Y-119380000D03*
X134620000Y-119380000D03*
X132080001Y-119380000D03*
X129540000Y-119380000D03*
X127000000Y-119380000D03*
X124460000Y-119380000D03*
X124460000Y-134620000D03*
X127000000Y-134620000D03*
X129540000Y-134620000D03*
X132080000Y-134620000D03*
X134620000Y-134620000D03*
X137160000Y-134620000D03*
X139700000Y-134620000D03*
X142240000Y-134620000D03*
X144780000Y-134620000D03*
X147320000Y-134620000D03*
X149860000Y-134620000D03*
X152400000Y-134620000D03*
X154940000Y-134620000D03*
X157480000Y-134620000D03*
X160020000Y-134620000D03*
%TD*%
D12*
%TO.C,D3*%
X167005000Y-107950000D03*
D13*
X177165000Y-107950000D03*
%TD*%
D12*
%TO.C,D2*%
X121920000Y-78740000D03*
D13*
X132080000Y-78740000D03*
%TD*%
D12*
%TO.C,D1*%
X121920000Y-91440000D03*
D13*
X132080000Y-91440000D03*
%TD*%
D14*
%TO.C,U1*%
X172720000Y-88900000D03*
D13*
X175260000Y-88900000D03*
X177800000Y-88900000D03*
X180340000Y-88900000D03*
X182880000Y-88900000D03*
X185420000Y-88900000D03*
X187960000Y-88900000D03*
X187960000Y-81280000D03*
X185420000Y-81280000D03*
X182880000Y-81280000D03*
X180340000Y-81280000D03*
X177800000Y-81280000D03*
X175260000Y-81280000D03*
X172720000Y-81280000D03*
%TD*%
%TO.C,R8*%
X140970000Y-104775000D03*
X130810000Y-104775000D03*
%TD*%
%TO.C,R7*%
X140970000Y-101600000D03*
X130810000Y-101600000D03*
%TD*%
%TO.C,R6*%
X129540000Y-97790000D03*
X139700000Y-97790000D03*
%TD*%
%TO.C,R5*%
X139700000Y-94615000D03*
X129540000Y-94615000D03*
%TD*%
%TO.C,R4*%
X139700000Y-75565000D03*
X129540000Y-75565000D03*
%TD*%
%TO.C,R3*%
X139700000Y-81915000D03*
X129540000Y-81915000D03*
%TD*%
%TO.C,R2*%
X139700000Y-85090000D03*
X129540000Y-85090000D03*
%TD*%
%TO.C,R1*%
X139700000Y-88265000D03*
X129540000Y-88265000D03*
%TD*%
D15*
%TO.C,C9*%
X162560000Y-112395000D03*
D13*
X160060000Y-112395000D03*
%TD*%
D16*
%TO.C,REF\u002A\u002A*%
X187960000Y-132080000D03*
X190500000Y-132080000D03*
X193040000Y-132080000D03*
X195580000Y-132080000D03*
X187960000Y-134620000D03*
X190500000Y-134620000D03*
X193040000Y-134620000D03*
X195580000Y-134620000D03*
X187960000Y-137160000D03*
X190500000Y-137160000D03*
X193040000Y-137160000D03*
X187960000Y-139700000D03*
X190500000Y-139700000D03*
X193040000Y-139700000D03*
%TD*%
%TO.C,REF\u002A\u002A*%
X187960000Y-116840000D03*
X190500000Y-116840000D03*
X193040000Y-116840000D03*
X195580000Y-116840000D03*
X187960000Y-119380000D03*
X190500000Y-119380000D03*
X193040000Y-119380000D03*
X195580000Y-119380000D03*
%TD*%
%TO.C,REF\u002A\u002A*%
X177800000Y-114300000D03*
X180340000Y-114300000D03*
X182880000Y-114300000D03*
X185420000Y-114300000D03*
X177800000Y-116840000D03*
X180340000Y-116840000D03*
X182880000Y-116840000D03*
X185420000Y-116840000D03*
X177800000Y-119380000D03*
X180340000Y-119380000D03*
X182880000Y-119380000D03*
X185420000Y-119380000D03*
%TD*%
%TO.C,REF\u002A\u002A*%
X167640000Y-114300000D03*
X170180000Y-114300000D03*
X172720000Y-114300000D03*
X175260000Y-114300000D03*
X167640000Y-116840000D03*
X170180000Y-116840000D03*
X172720000Y-116840000D03*
X175260000Y-116840000D03*
X167640000Y-119380000D03*
X170180000Y-119380000D03*
X172720000Y-119380000D03*
X175260000Y-119380000D03*
%TD*%
%TO.C,REF\u002A\u002A*%
X187960000Y-121920000D03*
X190500000Y-121920000D03*
X193040000Y-121920000D03*
X195580000Y-121920000D03*
X187960000Y-124460000D03*
X190500000Y-124460000D03*
X193040000Y-124460000D03*
X195580000Y-124460000D03*
X187960000Y-127000000D03*
X190500000Y-127000000D03*
X193040000Y-127000000D03*
X195580000Y-127000000D03*
X187960000Y-129540000D03*
X190500000Y-129540000D03*
X193040000Y-129540000D03*
X195580000Y-129540000D03*
%TD*%
%TO.C,REF\u002A\u002A*%
X167640000Y-121920000D03*
X170180000Y-121920000D03*
X172720000Y-121920000D03*
X175260000Y-121920000D03*
X167640000Y-124460000D03*
X170180000Y-124460000D03*
X172720000Y-124460000D03*
X175260000Y-124460000D03*
X167640000Y-127000000D03*
X170180000Y-127000000D03*
X172720000Y-127000000D03*
X175260000Y-127000000D03*
X167640000Y-129540000D03*
X170180000Y-129540000D03*
X172720000Y-129540000D03*
X175260000Y-129540000D03*
%TD*%
%TO.C,REF\u002A\u002A*%
X177800000Y-121920000D03*
X180340000Y-121920000D03*
X182880000Y-121920000D03*
X185420000Y-121920000D03*
X177800000Y-124460000D03*
X180340000Y-124460000D03*
X182880000Y-124460000D03*
X185420000Y-124460000D03*
X177800000Y-127000000D03*
X180340000Y-127000000D03*
X182880000Y-127000000D03*
X185420000Y-127000000D03*
X177800000Y-129540000D03*
X180340000Y-129540000D03*
X182880000Y-129540000D03*
X185420000Y-129540000D03*
%TD*%
%TO.C,REF\u002A\u002A*%
X177800000Y-132080000D03*
X180340000Y-132080000D03*
X182880000Y-132080000D03*
X185420000Y-132080000D03*
X177800000Y-134620000D03*
X180340000Y-134620000D03*
X182880000Y-134620000D03*
X185420000Y-134620000D03*
X177800000Y-137160000D03*
X180340000Y-137160000D03*
X182880000Y-137160000D03*
X185420000Y-137160000D03*
X177800000Y-139700000D03*
X180340000Y-139700000D03*
X182880000Y-139700000D03*
X185420000Y-139700000D03*
%TD*%
%TO.C,REF\u002A\u002A*%
X167640000Y-132080000D03*
X170180000Y-132080000D03*
X172720000Y-132080000D03*
X175260000Y-132080000D03*
X167640000Y-134620000D03*
X170180000Y-134620000D03*
X172720000Y-134620000D03*
X175260000Y-134620000D03*
X167640000Y-137160000D03*
X170180000Y-137160000D03*
X172720000Y-137160000D03*
X175260000Y-137160000D03*
X167640000Y-139700000D03*
X170180000Y-139700000D03*
X172720000Y-139700000D03*
X175260000Y-139700000D03*
%TD*%
D17*
%TO.C,REF\u002A\u002A*%
X102500000Y-65000000D03*
%TD*%
D14*
%TO.C,U5*%
X109220000Y-88900000D03*
D13*
X111760000Y-88900000D03*
X114299999Y-88900000D03*
X116840000Y-88900000D03*
X119380000Y-88900000D03*
X121920000Y-88900000D03*
X124460000Y-88900000D03*
X124460000Y-81280000D03*
X121920000Y-81280000D03*
X119380000Y-81280000D03*
X116840000Y-81280000D03*
X114300000Y-81280000D03*
X111760000Y-81280000D03*
X109220000Y-81280000D03*
%TD*%
D14*
%TO.C,U8*%
X147320001Y-101600000D03*
D13*
X149860001Y-101600000D03*
X152400000Y-101600000D03*
X154940001Y-101600000D03*
X157480001Y-101600000D03*
X160020001Y-101600000D03*
X162560001Y-101600000D03*
X165100002Y-101600000D03*
X165100001Y-93980000D03*
X162560001Y-93980000D03*
X160020001Y-93980000D03*
X157480001Y-93980000D03*
X154940001Y-93980000D03*
X152400001Y-93980000D03*
X149860001Y-93980000D03*
X147320001Y-93980000D03*
%TD*%
D18*
%TO.C,J1*%
X165100000Y-71120000D03*
D19*
X165100000Y-68580000D03*
X162560000Y-71120000D03*
X162560000Y-68580000D03*
X160020001Y-71120000D03*
X160020000Y-68580000D03*
X157480000Y-71120000D03*
X157480000Y-68580000D03*
X154940000Y-71120000D03*
X154940000Y-68580000D03*
X152400000Y-71120000D03*
X152400000Y-68580000D03*
X149860000Y-71120000D03*
X149860000Y-68580000D03*
X147319999Y-71120000D03*
X147320000Y-68580000D03*
X144780000Y-71120000D03*
X144780000Y-68580000D03*
X142240000Y-71120000D03*
X142240000Y-68580000D03*
X139700000Y-71120000D03*
X139700000Y-68580000D03*
X137160001Y-71120000D03*
X137160000Y-68580000D03*
X134620000Y-71120000D03*
X134620000Y-68580000D03*
X132080000Y-71120000D03*
X132080000Y-68580000D03*
%TD*%
D14*
%TO.C,U2*%
X109220000Y-101600000D03*
D13*
X111760000Y-101600000D03*
X114299999Y-101600000D03*
X116840000Y-101600000D03*
X119380000Y-101600000D03*
X121920000Y-101600000D03*
X124460000Y-101600000D03*
X124460000Y-93980000D03*
X121920000Y-93980000D03*
X119380000Y-93980000D03*
X116840000Y-93980000D03*
X114300000Y-93980000D03*
X111760000Y-93980000D03*
X109220000Y-93980000D03*
%TD*%
D17*
%TO.C,REF\u002A\u002A*%
X102500000Y-141000000D03*
%TD*%
D13*
%TO.C,C1*%
X169545000Y-82550000D03*
X169545000Y-87550000D03*
%TD*%
D20*
%TO.C,REF\u002A\u002A*%
X193040000Y-109220000D03*
%TD*%
D13*
%TO.C,C5*%
X169545000Y-94060000D03*
X169545000Y-99060000D03*
%TD*%
%TO.C,C8*%
X144145000Y-98385000D03*
X144145000Y-93385000D03*
%TD*%
%TO.C,C2*%
X106172000Y-95036000D03*
X106172000Y-100036000D03*
%TD*%
D14*
%TO.C,U4*%
X109220000Y-114300000D03*
D13*
X111760000Y-114300000D03*
X114299999Y-114300000D03*
X116840000Y-114300000D03*
X119380000Y-114300000D03*
X121920000Y-114300000D03*
X124460000Y-114300000D03*
X127000001Y-114300000D03*
X127000000Y-106680000D03*
X124460000Y-106680000D03*
X121920000Y-106680000D03*
X119380000Y-106680000D03*
X116840000Y-106680000D03*
X114300000Y-106680000D03*
X111760000Y-106680000D03*
X109220000Y-106680000D03*
%TD*%
%TO.C,C4*%
X172085000Y-69850000D03*
X172085000Y-74850000D03*
%TD*%
D14*
%TO.C,U6*%
X175260000Y-76200000D03*
D13*
X177800000Y-76200000D03*
X180339999Y-76200000D03*
X182880000Y-76200000D03*
X185420000Y-76200000D03*
X187960000Y-76200000D03*
X190500000Y-76200000D03*
X190500000Y-68580000D03*
X187960000Y-68580000D03*
X185420000Y-68580000D03*
X182880000Y-68580000D03*
X180340000Y-68580000D03*
X177800000Y-68580000D03*
X175260000Y-68580000D03*
%TD*%
%TO.C,C7*%
X144145000Y-83780000D03*
X144145000Y-78780000D03*
%TD*%
D14*
%TO.C,U7*%
X147320000Y-86360000D03*
D13*
X149860000Y-86360000D03*
X152399999Y-86360000D03*
X154940000Y-86360000D03*
X157480000Y-86360000D03*
X160020000Y-86360000D03*
X162560000Y-86360000D03*
X162560000Y-78740000D03*
X160020000Y-78740000D03*
X157480000Y-78740000D03*
X154940000Y-78740000D03*
X152400000Y-78740000D03*
X149860000Y-78740000D03*
X147320000Y-78740000D03*
%TD*%
%TO.C,C3*%
X106172000Y-82590000D03*
X106172000Y-87590000D03*
%TD*%
D14*
%TO.C,U9*%
X106680000Y-76200000D03*
D13*
X109220000Y-76200000D03*
X111759999Y-76200000D03*
X114300000Y-76200000D03*
X116840000Y-76200000D03*
X119380000Y-76200000D03*
X121920000Y-76200000D03*
X124460001Y-76200000D03*
X124460000Y-68580000D03*
X121920000Y-68580000D03*
X119380000Y-68580000D03*
X116840000Y-68580000D03*
X114300000Y-68580000D03*
X111760000Y-68580000D03*
X109220000Y-68580000D03*
X106680000Y-68580000D03*
%TD*%
D17*
%TO.C,REF\u002A\u002A*%
X197500000Y-141000000D03*
%TD*%
%TO.C,REF\u002A\u002A*%
X197500000Y-65000000D03*
%TD*%
D13*
%TO.C,C6*%
X106045000Y-107990000D03*
X106045000Y-112990000D03*
%TD*%
%TO.C,C17*%
X103505000Y-74890000D03*
X103505000Y-69890000D03*
%TD*%
D14*
%TO.C,U3*%
X172720000Y-101600000D03*
D13*
X175260000Y-101600000D03*
X177799999Y-101600000D03*
X180340000Y-101600000D03*
X182880000Y-101600000D03*
X185420000Y-101600000D03*
X187960000Y-101600000D03*
X190500001Y-101600000D03*
X190500000Y-93980000D03*
X187960000Y-93980000D03*
X185420000Y-93980000D03*
X182880000Y-93980000D03*
X180340000Y-93980000D03*
X177800000Y-93980000D03*
X175260000Y-93980000D03*
X172720000Y-93980000D03*
%TD*%
M02*
